<svg width="190" height="68" viewBox="0 0 190 68" fill="none" xmlns="http://www.w3.org/2000/svg">
<rect width="190" height="68" rx="8" fill="white"/>
<path d="M67.94 14.3633C68.7 14.3633 69.3567 14.5066 69.91 14.7933C70.47 15.0733 70.8967 15.4766 71.19 16.0033C71.49 16.5299 71.64 17.1499 71.64 17.8633C71.64 18.5766 71.49 19.1966 71.19 19.7233C70.8967 20.2433 70.47 20.6433 69.91 20.9233C69.3567 21.1966 68.7 21.3333 67.94 21.3333H65.77V14.3633H67.94ZM67.94 20.5833C68.84 20.5833 69.5267 20.3466 70 19.8733C70.4733 19.3933 70.71 18.7233 70.71 17.8633C70.71 16.9966 70.47 16.3199 69.99 15.8333C69.5167 15.3466 68.8333 15.1033 67.94 15.1033H66.68V20.5833H67.94ZM75.2303 21.4233C74.717 21.4233 74.2503 21.3066 73.8303 21.0733C73.417 20.8399 73.0903 20.5099 72.8503 20.0833C72.617 19.6499 72.5003 19.1499 72.5003 18.5833C72.5003 18.0233 72.6203 17.5299 72.8603 17.1033C73.107 16.6699 73.4403 16.3399 73.8603 16.1133C74.2803 15.8799 74.7503 15.7633 75.2703 15.7633C75.7903 15.7633 76.2603 15.8799 76.6803 16.1133C77.1003 16.3399 77.4303 16.6666 77.6703 17.0933C77.917 17.5199 78.0403 18.0166 78.0403 18.5833C78.0403 19.1499 77.9136 19.6499 77.6603 20.0833C77.4136 20.5099 77.077 20.8399 76.6503 21.0733C76.2236 21.3066 75.7503 21.4233 75.2303 21.4233ZM75.2303 20.6233C75.557 20.6233 75.8636 20.5466 76.1503 20.3933C76.437 20.2399 76.667 20.0099 76.8403 19.7033C77.0203 19.3966 77.1103 19.0233 77.1103 18.5833C77.1103 18.1433 77.0236 17.7699 76.8503 17.4633C76.677 17.1566 76.4503 16.9299 76.1703 16.7833C75.8903 16.6299 75.587 16.5533 75.2603 16.5533C74.927 16.5533 74.6203 16.6299 74.3403 16.7833C74.067 16.9299 73.847 17.1566 73.6803 17.4633C73.5136 17.7699 73.4303 18.1433 73.4303 18.5833C73.4303 19.0299 73.5103 19.4066 73.6703 19.7133C73.837 20.0199 74.057 20.2499 74.3303 20.4033C74.6036 20.5499 74.9036 20.6233 75.2303 20.6233ZM86.5368 15.8533L84.8268 21.3333H83.8868L82.5668 16.9833L81.2468 21.3333H80.3068L78.5868 15.8533H79.5168L80.7768 20.4533L82.1368 15.8533H83.0668L84.3968 20.4633L85.6368 15.8533H86.5368ZM90.1099 15.7533C90.7766 15.7533 91.3166 15.9566 91.7299 16.3633C92.1433 16.7633 92.3499 17.3433 92.3499 18.1033V21.3333H91.4499V18.2333C91.4499 17.6866 91.3133 17.2699 91.0399 16.9833C90.7666 16.6899 90.3933 16.5433 89.9199 16.5433C89.4399 16.5433 89.0566 16.6933 88.7699 16.9933C88.4899 17.2933 88.3499 17.7299 88.3499 18.3033V21.3333H87.4399V15.8533H88.3499V16.6333C88.5299 16.3533 88.7733 16.1366 89.0799 15.9833C89.3933 15.8299 89.7366 15.7533 90.1099 15.7533ZM94.7464 13.9333V21.3333H93.8364V13.9333H94.7464ZM98.6873 21.4233C98.174 21.4233 97.7073 21.3066 97.2873 21.0733C96.874 20.8399 96.5473 20.5099 96.3073 20.0833C96.074 19.6499 95.9573 19.1499 95.9573 18.5833C95.9573 18.0233 96.0773 17.5299 96.3173 17.1033C96.564 16.6699 96.8973 16.3399 97.3173 16.1133C97.7373 15.8799 98.2073 15.7633 98.7273 15.7633C99.2473 15.7633 99.7173 15.8799 100.137 16.1133C100.557 16.3399 100.887 16.6666 101.127 17.0933C101.374 17.5199 101.497 18.0166 101.497 18.5833C101.497 19.1499 101.371 19.6499 101.117 20.0833C100.871 20.5099 100.534 20.8399 100.107 21.0733C99.6807 21.3066 99.2073 21.4233 98.6873 21.4233ZM98.6873 20.6233C99.014 20.6233 99.3207 20.5466 99.6073 20.3933C99.894 20.2399 100.124 20.0099 100.297 19.7033C100.477 19.3966 100.567 19.0233 100.567 18.5833C100.567 18.1433 100.481 17.7699 100.307 17.4633C100.134 17.1566 99.9073 16.9299 99.6273 16.7833C99.3473 16.6299 99.044 16.5533 98.7173 16.5533C98.384 16.5533 98.0773 16.6299 97.7973 16.7833C97.524 16.9299 97.304 17.1566 97.1373 17.4633C96.9707 17.7699 96.8873 18.1433 96.8873 18.5833C96.8873 19.0299 96.9673 19.4066 97.1273 19.7133C97.294 20.0199 97.514 20.2499 97.7873 20.4033C98.0607 20.5499 98.3607 20.6233 98.6873 20.6233ZM102.354 18.5733C102.354 18.0133 102.467 17.5233 102.694 17.1033C102.92 16.6766 103.23 16.3466 103.624 16.1133C104.024 15.8799 104.467 15.7633 104.954 15.7633C105.434 15.7633 105.85 15.8666 106.204 16.0733C106.557 16.2799 106.82 16.5399 106.994 16.8533V15.8533H107.914V21.3333H106.994V20.3133C106.814 20.6333 106.544 20.8999 106.184 21.1133C105.83 21.3199 105.417 21.4233 104.944 21.4233C104.457 21.4233 104.017 21.3033 103.624 21.0633C103.23 20.8233 102.92 20.4866 102.694 20.0533C102.467 19.6199 102.354 19.1266 102.354 18.5733ZM106.994 18.5833C106.994 18.1699 106.91 17.8099 106.744 17.5033C106.577 17.1966 106.35 16.9633 106.064 16.8033C105.784 16.6366 105.474 16.5533 105.134 16.5533C104.794 16.5533 104.484 16.6333 104.204 16.7933C103.924 16.9533 103.7 17.1866 103.534 17.4933C103.367 17.7999 103.284 18.1599 103.284 18.5733C103.284 18.9933 103.367 19.3599 103.534 19.6733C103.7 19.9799 103.924 20.2166 104.204 20.3833C104.484 20.5433 104.794 20.6233 105.134 20.6233C105.474 20.6233 105.784 20.5433 106.064 20.3833C106.35 20.2166 106.577 19.9799 106.744 19.6733C106.91 19.3599 106.994 18.9966 106.994 18.5833ZM109.112 18.5733C109.112 18.0133 109.225 17.5233 109.452 17.1033C109.678 16.6766 109.988 16.3466 110.382 16.1133C110.782 15.8799 111.228 15.7633 111.722 15.7633C112.148 15.7633 112.545 15.8633 112.912 16.0633C113.278 16.2566 113.558 16.5133 113.752 16.8333V13.9333H114.672V21.3333H113.752V20.3033C113.572 20.6299 113.305 20.8999 112.952 21.1133C112.598 21.3199 112.185 21.4233 111.712 21.4233C111.225 21.4233 110.782 21.3033 110.382 21.0633C109.988 20.8233 109.678 20.4866 109.452 20.0533C109.225 19.6199 109.112 19.1266 109.112 18.5733ZM113.752 18.5833C113.752 18.1699 113.668 17.8099 113.502 17.5033C113.335 17.1966 113.108 16.9633 112.822 16.8033C112.542 16.6366 112.232 16.5533 111.892 16.5533C111.552 16.5533 111.242 16.6333 110.962 16.7933C110.682 16.9533 110.458 17.1866 110.292 17.4933C110.125 17.7999 110.042 18.1599 110.042 18.5733C110.042 18.9933 110.125 19.3599 110.292 19.6733C110.458 19.9799 110.682 20.2166 110.962 20.3833C111.242 20.5433 111.552 20.6233 111.892 20.6233C112.232 20.6233 112.542 20.5433 112.822 20.3833C113.108 20.2166 113.335 19.9799 113.502 19.6733C113.668 19.3599 113.752 18.9966 113.752 18.5833ZM121.265 21.4233C120.752 21.4233 120.285 21.3066 119.865 21.0733C119.452 20.8399 119.125 20.5099 118.885 20.0833C118.652 19.6499 118.535 19.1499 118.535 18.5833C118.535 18.0233 118.655 17.5299 118.895 17.1033C119.142 16.6699 119.475 16.3399 119.895 16.1133C120.315 15.8799 120.785 15.7633 121.305 15.7633C121.825 15.7633 122.295 15.8799 122.715 16.1133C123.135 16.3399 123.465 16.6666 123.705 17.0933C123.952 17.5199 124.075 18.0166 124.075 18.5833C124.075 19.1499 123.949 19.6499 123.695 20.0833C123.449 20.5099 123.112 20.8399 122.685 21.0733C122.259 21.3066 121.785 21.4233 121.265 21.4233ZM121.265 20.6233C121.592 20.6233 121.899 20.5466 122.185 20.3933C122.472 20.2399 122.702 20.0099 122.875 19.7033C123.055 19.3966 123.145 19.0233 123.145 18.5833C123.145 18.1433 123.059 17.7699 122.885 17.4633C122.712 17.1566 122.485 16.9299 122.205 16.7833C121.925 16.6299 121.622 16.5533 121.295 16.5533C120.962 16.5533 120.655 16.6299 120.375 16.7833C120.102 16.9299 119.882 17.1566 119.715 17.4633C119.549 17.7699 119.465 18.1433 119.465 18.5833C119.465 19.0299 119.545 19.4066 119.705 19.7133C119.872 20.0199 120.092 20.2499 120.365 20.4033C120.639 20.5499 120.939 20.6233 121.265 20.6233ZM127.942 15.7533C128.609 15.7533 129.149 15.9566 129.562 16.3633C129.975 16.7633 130.182 17.3433 130.182 18.1033V21.3333H129.282V18.2333C129.282 17.6866 129.145 17.2699 128.872 16.9833C128.599 16.6899 128.225 16.5433 127.752 16.5433C127.272 16.5433 126.889 16.6933 126.602 16.9933C126.322 17.2933 126.182 17.7299 126.182 18.3033V21.3333H125.272V15.8533H126.182V16.6333C126.362 16.3533 126.605 16.1366 126.912 15.9833C127.225 15.8299 127.569 15.7533 127.942 15.7533ZM135.444 16.6033V19.8333C135.444 20.0999 135.501 20.2899 135.614 20.4033C135.728 20.5099 135.924 20.5633 136.204 20.5633H136.874V21.3333H136.054C135.548 21.3333 135.168 21.2166 134.914 20.9833C134.661 20.7499 134.534 20.3666 134.534 19.8333V16.6033H133.824V15.8533H134.534V14.4733H135.444V15.8533H136.874V16.6033H135.444ZM140.697 15.7533C141.11 15.7533 141.484 15.8433 141.817 16.0233C142.15 16.1966 142.41 16.4599 142.597 16.8133C142.79 17.1666 142.887 17.5966 142.887 18.1033V21.3333H141.987V18.2333C141.987 17.6866 141.85 17.2699 141.577 16.9833C141.304 16.6899 140.93 16.5433 140.457 16.5433C139.977 16.5433 139.594 16.6933 139.307 16.9933C139.027 17.2933 138.887 17.7299 138.887 18.3033V21.3333H137.977V13.9333H138.887V16.6333C139.067 16.3533 139.314 16.1366 139.627 15.9833C139.947 15.8299 140.304 15.7533 140.697 15.7533ZM149.374 18.3833C149.374 18.5566 149.364 18.7399 149.344 18.9333H144.964C144.997 19.4733 145.18 19.8966 145.514 20.2033C145.854 20.5033 146.264 20.6533 146.744 20.6533C147.137 20.6533 147.464 20.5633 147.724 20.3833C147.99 20.1966 148.177 19.9499 148.284 19.6433H149.264C149.117 20.1699 148.824 20.5999 148.384 20.9333C147.944 21.2599 147.397 21.4233 146.744 21.4233C146.224 21.4233 145.757 21.3066 145.344 21.0733C144.937 20.8399 144.617 20.5099 144.384 20.0833C144.15 19.6499 144.034 19.1499 144.034 18.5833C144.034 18.0166 144.147 17.5199 144.374 17.0933C144.6 16.6666 144.917 16.3399 145.324 16.1133C145.737 15.8799 146.21 15.7633 146.744 15.7633C147.264 15.7633 147.724 15.8766 148.124 16.1033C148.524 16.3299 148.83 16.6433 149.044 17.0433C149.264 17.4366 149.374 17.8833 149.374 18.3833ZM148.434 18.1933C148.434 17.8466 148.357 17.5499 148.204 17.3033C148.05 17.0499 147.84 16.8599 147.574 16.7333C147.314 16.5999 147.024 16.5333 146.704 16.5333C146.244 16.5333 145.85 16.6799 145.524 16.9733C145.204 17.2666 145.02 17.6733 144.974 18.1933H148.434Z" fill="#2A2B3C"/>
<path d="M73.802 41.5433H68.33L67.322 44.3333H65.594L70.13 31.8593H72.02L76.538 44.3333H74.81L73.802 41.5433ZM73.334 40.2113L71.066 33.8753L68.798 40.2113H73.334ZM80.1529 36.2873C80.4769 35.7233 80.9569 35.2553 81.5929 34.8833C82.2409 34.4993 82.9909 34.3073 83.8429 34.3073C84.7189 34.3073 85.5109 34.5173 86.2189 34.9373C86.9389 35.3573 87.5029 35.9513 87.9109 36.7193C88.3189 37.4753 88.5229 38.3573 88.5229 39.3653C88.5229 40.3613 88.3189 41.2493 87.9109 42.0293C87.5029 42.8093 86.9389 43.4153 86.2189 43.8473C85.5109 44.2793 84.7189 44.4953 83.8429 44.4953C83.0029 44.4953 82.2589 44.3093 81.6109 43.9373C80.9749 43.5533 80.4889 43.0793 80.1529 42.5153V49.0133H78.5149V34.4693H80.1529V36.2873ZM86.8489 39.3653C86.8489 38.6213 86.6989 37.9733 86.3989 37.4213C86.0989 36.8693 85.6909 36.4493 85.1749 36.1613C84.6709 35.8733 84.1129 35.7293 83.5009 35.7293C82.9009 35.7293 82.3429 35.8793 81.8269 36.1793C81.3229 36.4673 80.9149 36.8933 80.6029 37.4573C80.3029 38.0093 80.1529 38.6513 80.1529 39.3833C80.1529 40.1273 80.3029 40.7813 80.6029 41.3453C80.9149 41.8973 81.3229 42.3233 81.8269 42.6233C82.3429 42.9113 82.9009 43.0553 83.5009 43.0553C84.1129 43.0553 84.6709 42.9113 85.1749 42.6233C85.6909 42.3233 86.0989 41.8973 86.3989 41.3453C86.6989 40.7813 86.8489 40.1213 86.8489 39.3653ZM92.317 36.2873C92.641 35.7233 93.121 35.2553 93.757 34.8833C94.405 34.4993 95.155 34.3073 96.007 34.3073C96.883 34.3073 97.675 34.5173 98.383 34.9373C99.103 35.3573 99.667 35.9513 100.075 36.7193C100.483 37.4753 100.687 38.3573 100.687 39.3653C100.687 40.3613 100.483 41.2493 100.075 42.0293C99.667 42.8093 99.103 43.4153 98.383 43.8473C97.675 44.2793 96.883 44.4953 96.007 44.4953C95.167 44.4953 94.423 44.3093 93.775 43.9373C93.139 43.5533 92.653 43.0793 92.317 42.5153V49.0133H90.679V34.4693H92.317V36.2873ZM99.013 39.3653C99.013 38.6213 98.863 37.9733 98.563 37.4213C98.263 36.8693 97.855 36.4493 97.339 36.1613C96.835 35.8733 96.277 35.7293 95.665 35.7293C95.065 35.7293 94.507 35.8793 93.991 36.1793C93.487 36.4673 93.079 36.8933 92.767 37.4573C92.467 38.0093 92.317 38.6513 92.317 39.3833C92.317 40.1273 92.467 40.7813 92.767 41.3453C93.079 41.8973 93.487 42.3233 93.991 42.6233C94.507 42.9113 95.065 43.0553 95.665 43.0553C96.277 43.0553 96.835 42.9113 97.339 42.6233C97.855 42.3233 98.263 41.8973 98.563 41.3453C98.863 40.7813 99.013 40.1213 99.013 39.3653ZM111.62 44.4593C110.792 44.4593 110.048 44.3153 109.388 44.0273C108.74 43.7273 108.23 43.3193 107.858 42.8033C107.486 42.2753 107.294 41.6693 107.282 40.9853H109.028C109.088 41.5733 109.328 42.0713 109.748 42.4793C110.18 42.8753 110.804 43.0733 111.62 43.0733C112.4 43.0733 113.012 42.8813 113.456 42.4973C113.912 42.1013 114.14 41.5973 114.14 40.9853C114.14 40.5053 114.008 40.1153 113.744 39.8153C113.48 39.5153 113.15 39.2873 112.754 39.1313C112.358 38.9753 111.824 38.8073 111.152 38.6273C110.324 38.4113 109.658 38.1953 109.154 37.9793C108.662 37.7633 108.236 37.4273 107.876 36.9713C107.528 36.5033 107.354 35.8793 107.354 35.0993C107.354 34.4153 107.528 33.8093 107.876 33.2813C108.224 32.7533 108.71 32.3453 109.334 32.0573C109.97 31.7693 110.696 31.6253 111.512 31.6253C112.688 31.6253 113.648 31.9193 114.392 32.5073C115.148 33.0953 115.574 33.8753 115.67 34.8473H113.87C113.81 34.3673 113.558 33.9473 113.114 33.5873C112.67 33.2153 112.082 33.0293 111.35 33.0293C110.666 33.0293 110.108 33.2093 109.676 33.5693C109.244 33.9173 109.028 34.4093 109.028 35.0453C109.028 35.5013 109.154 35.8733 109.406 36.1613C109.67 36.4493 109.988 36.6713 110.36 36.8273C110.744 36.9713 111.278 37.1393 111.962 37.3313C112.79 37.5593 113.456 37.7873 113.96 38.0153C114.464 38.2313 114.896 38.5733 115.256 39.0413C115.616 39.4973 115.796 40.1213 115.796 40.9133C115.796 41.5253 115.634 42.1013 115.31 42.6413C114.986 43.1813 114.506 43.6193 113.87 43.9553C113.234 44.2913 112.484 44.4593 111.62 44.4593ZM120.204 35.8193V41.6333C120.204 42.1133 120.306 42.4553 120.51 42.6593C120.714 42.8513 121.068 42.9473 121.572 42.9473H122.778V44.3333H121.302C120.39 44.3333 119.706 44.1233 119.25 43.7033C118.794 43.2833 118.566 42.5933 118.566 41.6333V35.8193H117.288V34.4693H118.566V31.9853H120.204V34.4693H122.778V35.8193H120.204ZM129.065 44.4953C128.141 44.4953 127.301 44.2853 126.545 43.8653C125.801 43.4453 125.213 42.8513 124.781 42.0833C124.361 41.3033 124.151 40.4033 124.151 39.3833C124.151 38.3753 124.367 37.4873 124.799 36.7193C125.243 35.9393 125.843 35.3453 126.599 34.9373C127.355 34.5173 128.201 34.3073 129.137 34.3073C130.073 34.3073 130.919 34.5173 131.675 34.9373C132.431 35.3453 133.025 35.9333 133.457 36.7013C133.901 37.4693 134.123 38.3633 134.123 39.3833C134.123 40.4033 133.895 41.3033 133.439 42.0833C132.995 42.8513 132.389 43.4453 131.621 43.8653C130.853 44.2853 130.001 44.4953 129.065 44.4953ZM129.065 43.0553C129.653 43.0553 130.205 42.9173 130.721 42.6413C131.237 42.3653 131.651 41.9513 131.963 41.3993C132.287 40.8473 132.449 40.1753 132.449 39.3833C132.449 38.5913 132.293 37.9193 131.981 37.3673C131.669 36.8153 131.261 36.4073 130.757 36.1433C130.253 35.8673 129.707 35.7293 129.119 35.7293C128.519 35.7293 127.967 35.8673 127.463 36.1433C126.971 36.4073 126.575 36.8153 126.275 37.3673C125.975 37.9193 125.825 38.5913 125.825 39.3833C125.825 40.1873 125.969 40.8653 126.257 41.4173C126.557 41.9693 126.953 42.3833 127.445 42.6593C127.937 42.9233 128.477 43.0553 129.065 43.0553ZM137.915 36.0713C138.203 35.5073 138.611 35.0693 139.139 34.7573C139.679 34.4453 140.333 34.2893 141.101 34.2893V35.9813H140.669C138.833 35.9813 137.915 36.9773 137.915 38.9693V44.3333H136.277V34.4693H137.915V36.0713ZM151.991 39.0233C151.991 39.3353 151.973 39.6653 151.937 40.0133H144.053C144.113 40.9853 144.443 41.7473 145.043 42.2993C145.655 42.8393 146.393 43.1093 147.257 43.1093C147.965 43.1093 148.553 42.9473 149.021 42.6233C149.501 42.2873 149.837 41.8433 150.029 41.2913H151.793C151.529 42.2393 151.001 43.0133 150.209 43.6133C149.417 44.2013 148.433 44.4953 147.257 44.4953C146.321 44.4953 145.481 44.2853 144.737 43.8653C144.005 43.4453 143.429 42.8513 143.009 42.0833C142.589 41.3033 142.379 40.4033 142.379 39.3833C142.379 38.3633 142.583 37.4693 142.991 36.7013C143.399 35.9333 143.969 35.3453 144.701 34.9373C145.445 34.5173 146.297 34.3073 147.257 34.3073C148.193 34.3073 149.021 34.5113 149.741 34.9193C150.461 35.3273 151.013 35.8913 151.397 36.6113C151.793 37.3193 151.991 38.1233 151.991 39.0233ZM150.299 38.6813C150.299 38.0573 150.161 37.5233 149.885 37.0793C149.609 36.6233 149.231 36.2813 148.751 36.0533C148.283 35.8133 147.761 35.6933 147.185 35.6933C146.357 35.6933 145.649 35.9573 145.061 36.4853C144.485 37.0133 144.155 37.7453 144.071 38.6813H150.299Z" fill="#2A2B3C"/>
<path d="M49.3712 44.7623C48.8326 46.1086 48.1951 47.3478 47.4564 48.4871C46.4495 50.0403 45.6251 51.1154 44.9897 51.7124C44.0048 52.6923 42.9496 53.1942 41.8196 53.2227C41.0084 53.2227 40.03 52.973 38.8912 52.4664C37.7487 51.9621 36.6987 51.7124 35.7387 51.7124C34.7318 51.7124 33.6519 51.9621 32.4968 52.4664C31.34 52.973 30.4081 53.237 29.6956 53.2632C28.612 53.3131 27.5319 52.797 26.4538 51.7124C25.7656 51.063 24.905 49.9499 23.8739 48.3729C22.7676 46.6889 21.8581 44.7362 21.1456 42.5099C20.3825 40.1052 20 37.7766 20 35.5222C20 32.9398 20.5158 30.7126 21.5488 28.8462C22.3607 27.347 23.4408 26.1644 24.7926 25.2962C26.1444 24.428 27.6051 23.9856 29.1781 23.9573C30.0388 23.9573 31.1674 24.2454 32.5701 24.8115C33.9687 25.3795 34.8668 25.6675 35.2605 25.6675C35.5549 25.6675 36.5525 25.3307 38.2438 24.6592C39.8432 24.0365 41.193 23.7787 42.2988 23.8803C45.2953 24.1419 47.5465 25.4199 49.0437 27.7223C46.3638 29.4791 45.0381 31.9397 45.0645 35.0962C45.0887 37.5549 45.9131 39.6009 47.5333 41.2254C48.2676 41.9794 49.0876 42.5622 50 42.976C49.8021 43.5968 49.5933 44.1915 49.3712 44.7623V44.7623ZM42.4989 15.504C42.4989 17.4311 41.8482 19.2305 40.5511 20.8959C38.9858 22.8758 37.0925 24.0199 35.0394 23.8394C35.0132 23.6082 34.998 23.3648 34.998 23.1091C34.998 21.2591 35.7424 19.2792 37.0643 17.6604C37.7243 16.8408 38.5637 16.1593 39.5816 15.6156C40.5972 15.08 41.558 14.7839 42.4615 14.7332C42.4879 14.9908 42.4989 15.2484 42.4989 15.504V15.504Z" fill="black"/>
</svg>
