<svg width="1440" height="2663" viewBox="0 0 1440 2663" fill="none" xmlns="http://www.w3.org/2000/svg">
<mask id="mask0" mask-type="alpha" maskUnits="userSpaceOnUse" x="0" y="0" width="2528" height="365">
<rect width="2528" height="364.397" fill="#C4C4C4"/>
</mask>
<g mask="url(#mask0)">
<path fill-rule="evenodd" clip-rule="evenodd" d="M1680.48 0.270784C3856.13 13.8783 5986.9 498.456 7313.11 1479.33C8613.04 2440.78 8628.81 3694.38 8294.65 4892.19C7919.46 6237.07 7581.15 7865.97 5381.31 8403.82C3218.31 8932.66 1176.39 7714.27 -963.404 7155.73C-3195.96 6572.98 -6299.65 6498.05 -7029.75 5164.24C-7782.54 3789.01 -5862.96 2447.35 -4109.68 1407.89C-2580.99 501.585 -527.758 -13.5406 1680.48 0.270784Z" fill="#666971"/>
<path fill-rule="evenodd" clip-rule="evenodd" d="M1525.99 20.2377C3701.64 33.8453 5832.41 518.423 7158.62 1499.3C8458.55 2460.75 8474.32 3714.35 8140.16 4912.15C7764.97 6257.03 7426.66 7885.94 5226.82 8423.79C3063.82 8952.63 1021.9 7734.23 -1117.89 7175.7C-3350.45 6592.95 -6454.14 6518.02 -7184.24 5184.21C-7937.03 3808.97 -6017.45 2467.31 -4264.17 1427.86C-2735.48 521.552 -682.247 6.4264 1525.99 20.2377Z" fill="#151211"/>
</g>
<rect y="182.698" width="2528" height="2839.3" fill="#151211"/>
</svg>
