<svg width="149" height="54" viewBox="0 0 149 54" fill="none" xmlns="http://www.w3.org/2000/svg">
<rect width="149" height="54" rx="27" fill="white"/>
<path d="M55.1676 27.288C55.765 27.3947 56.2716 27.7093 56.6876 28.232C57.1036 28.7547 57.3116 29.3467 57.3116 30.008C57.3116 30.5733 57.1623 31.0853 56.8636 31.544C56.5756 31.992 56.1543 32.3493 55.5996 32.616C55.045 32.872 54.3996 33 53.6636 33H49.2156V21.88H53.4556C54.213 21.88 54.8636 22.008 55.4076 22.264C55.9516 22.52 56.3623 22.8667 56.6396 23.304C56.917 23.7307 57.0556 24.2107 57.0556 24.744C57.0556 25.384 56.885 25.9173 56.5436 26.344C56.2023 26.7707 55.7436 27.0853 55.1676 27.288ZM51.0396 26.552H53.2956C53.893 26.552 54.357 26.4187 54.6876 26.152C55.029 25.8747 55.1996 25.48 55.1996 24.968C55.1996 24.4667 55.029 24.0773 54.6876 23.8C54.357 23.512 53.893 23.368 53.2956 23.368H51.0396V26.552ZM53.5036 31.512C54.1223 31.512 54.6076 31.3627 54.9596 31.064C55.3116 30.7653 55.4876 30.3493 55.4876 29.816C55.4876 29.272 55.301 28.84 54.9276 28.52C54.5543 28.2 54.0583 28.04 53.4396 28.04H51.0396V31.512H53.5036ZM67.2778 24.184V33H65.4538V31.96C65.1658 32.3227 64.7871 32.6107 64.3178 32.824C63.8591 33.0267 63.3684 33.128 62.8458 33.128C62.1524 33.128 61.5284 32.984 60.9738 32.696C60.4298 32.408 59.9978 31.9813 59.6778 31.416C59.3684 30.8507 59.2138 30.168 59.2138 29.368V24.184H61.0218V29.096C61.0218 29.8853 61.2191 30.4933 61.6138 30.92C62.0084 31.336 62.5471 31.544 63.2298 31.544C63.9124 31.544 64.4511 31.336 64.8458 30.92C65.2511 30.4933 65.4538 29.8853 65.4538 29.096V24.184H67.2778ZM71.8124 25.672V30.552C71.8124 30.8827 71.887 31.1227 72.0364 31.272C72.1964 31.4107 72.463 31.48 72.8364 31.48H73.9564V33H72.5164C71.695 33 71.0657 32.808 70.6284 32.424C70.191 32.04 69.9724 31.416 69.9724 30.552V25.672H68.9324V24.184H69.9724V21.992H71.8124V24.184H73.9564V25.672H71.8124ZM77.7655 25.672V30.552C77.7655 30.8827 77.8402 31.1227 77.9895 31.272C78.1495 31.4107 78.4162 31.48 78.7895 31.48H79.9095V33H78.4695C77.6482 33 77.0188 32.808 76.5815 32.424C76.1442 32.04 75.9255 31.416 75.9255 30.552V25.672H74.8855V24.184H75.9255V21.992H77.7655V24.184H79.9095V25.672H77.7655ZM85.4146 33.144C84.5826 33.144 83.8306 32.9573 83.1586 32.584C82.4866 32.2 81.9586 31.6667 81.5746 30.984C81.1906 30.2907 80.9986 29.4907 80.9986 28.584C80.9986 27.688 81.196 26.8933 81.5906 26.2C81.9853 25.5067 82.524 24.9733 83.2066 24.6C83.8893 24.2267 84.652 24.04 85.4946 24.04C86.3373 24.04 87.1 24.2267 87.7826 24.6C88.4653 24.9733 89.004 25.5067 89.3986 26.2C89.7933 26.8933 89.9906 27.688 89.9906 28.584C89.9906 29.48 89.788 30.2747 89.3826 30.968C88.9773 31.6613 88.4226 32.2 87.7186 32.584C87.0253 32.9573 86.2573 33.144 85.4146 33.144ZM85.4146 31.56C85.884 31.56 86.3213 31.448 86.7266 31.224C87.1426 31 87.4786 30.664 87.7346 30.216C87.9906 29.768 88.1186 29.224 88.1186 28.584C88.1186 27.944 87.996 27.4053 87.7506 26.968C87.5053 26.52 87.18 26.184 86.7746 25.96C86.3693 25.736 85.932 25.624 85.4626 25.624C84.9933 25.624 84.556 25.736 84.1506 25.96C83.756 26.184 83.4413 26.52 83.2066 26.968C82.972 27.4053 82.8546 27.944 82.8546 28.584C82.8546 29.5333 83.0946 30.2693 83.5746 30.792C84.0653 31.304 84.6786 31.56 85.4146 31.56ZM96.2418 24.04C96.9351 24.04 97.5538 24.184 98.0978 24.472C98.6524 24.76 99.0844 25.1867 99.3938 25.752C99.7031 26.3173 99.8578 27 99.8578 27.8V33H98.0498V28.072C98.0498 27.2827 97.8524 26.68 97.4578 26.264C97.0631 25.8373 96.5244 25.624 95.8418 25.624C95.1591 25.624 94.6151 25.8373 94.2098 26.264C93.8151 26.68 93.6178 27.2827 93.6178 28.072V33H91.7938V24.184H93.6178V25.192C93.9164 24.8293 94.2951 24.5467 94.7538 24.344C95.2231 24.1413 95.7191 24.04 96.2418 24.04Z" fill="#2A2B3C"/>
</svg>
