<svg width="197" height="264" viewBox="0 0 197 264" fill="none" xmlns="http://www.w3.org/2000/svg">
<rect x="0.5" y="0.5" width="196" height="263" rx="11.5" stroke="#6D6F9C"/>
<path d="M33.7295 137.004C34.6442 137.004 35.4655 137.219 36.1935 137.648C36.9309 138.077 37.5095 138.679 37.9295 139.454C38.3495 140.219 38.5595 141.087 38.5595 142.058C38.5595 143.029 38.3495 143.901 37.9295 144.676C37.5095 145.441 36.9309 146.039 36.1935 146.468C35.4655 146.897 34.6442 147.112 33.7295 147.112C32.8149 147.112 31.9842 146.897 31.2375 146.468C30.5002 146.039 29.9215 145.441 29.5015 144.676C29.0815 143.901 28.8715 143.029 28.8715 142.058C28.8715 141.087 29.0815 140.219 29.5015 139.454C29.9215 138.679 30.5002 138.077 31.2375 137.648C31.9842 137.219 32.8149 137.004 33.7295 137.004ZM33.7295 138.194C33.0482 138.194 32.4369 138.353 31.8955 138.67C31.3635 138.978 30.9435 139.426 30.6355 140.014C30.3369 140.593 30.1875 141.274 30.1875 142.058C30.1875 142.833 30.3369 143.514 30.6355 144.102C30.9435 144.69 31.3635 145.143 31.8955 145.46C32.4369 145.768 33.0482 145.922 33.7295 145.922C34.4015 145.922 35.0035 145.763 35.5355 145.446C36.0769 145.129 36.4969 144.681 36.7955 144.102C37.1035 143.514 37.2575 142.833 37.2575 142.058C37.2575 141.274 37.1035 140.593 36.7955 140.014C36.4969 139.426 36.0769 138.978 35.5355 138.67C35.0035 138.353 34.4015 138.194 33.7295 138.194ZM41.5558 140.868C41.8078 140.336 42.1764 139.925 42.6618 139.636C43.1471 139.337 43.7258 139.188 44.3978 139.188V140.574H44.0058C43.2871 140.574 42.6991 140.761 42.2418 141.134C41.7844 141.498 41.5558 142.105 41.5558 142.954V147H40.2818V139.314H41.5558V140.868ZM49.7008 139.188C50.5968 139.188 51.3201 139.477 51.8708 140.056C52.4215 140.625 52.6968 141.451 52.6968 142.534V147H51.4228V142.646C51.4228 141.881 51.2268 141.293 50.8348 140.882C50.4428 140.471 49.9108 140.266 49.2388 140.266C48.5388 140.266 47.9788 140.495 47.5588 140.952C47.1388 141.4 46.9288 142.058 46.9288 142.926V147H45.6548V139.314H46.9288V141.134C47.1248 140.509 47.4701 140.028 47.9648 139.692C48.4688 139.356 49.0475 139.188 49.7008 139.188ZM57.8009 139.216C58.5476 139.216 59.1776 139.403 59.6909 139.776C60.2136 140.149 60.5776 140.649 60.7829 141.274V139.314H62.0569V147H60.7829V145.04C60.5776 145.665 60.2136 146.165 59.6909 146.538C59.1776 146.911 58.5476 147.098 57.8009 147.098C57.1196 147.098 56.5129 146.939 55.9809 146.622C55.4489 146.305 55.0289 145.852 54.7209 145.264C54.4222 144.667 54.2729 143.967 54.2729 143.164C54.2729 142.361 54.4222 141.661 54.7209 141.064C55.0289 140.467 55.4489 140.009 55.9809 139.692C56.5129 139.375 57.1196 139.216 57.8009 139.216ZM58.1649 140.35C57.3809 140.35 56.7509 140.602 56.2749 141.106C55.8082 141.601 55.5749 142.287 55.5749 143.164C55.5749 144.041 55.8082 144.732 56.2749 145.236C56.7509 145.731 57.3809 145.978 58.1649 145.978C58.6689 145.978 59.1169 145.861 59.5089 145.628C59.9102 145.395 60.2229 145.068 60.4469 144.648C60.6709 144.219 60.7829 143.724 60.7829 143.164C60.7829 142.604 60.6709 142.109 60.4469 141.68C60.2229 141.251 59.9102 140.924 59.5089 140.7C59.1169 140.467 58.6689 140.35 58.1649 140.35ZM65.3585 140.868C65.6105 140.336 65.9792 139.925 66.4645 139.636C66.9498 139.337 67.5285 139.188 68.2005 139.188V140.574H67.8085C67.0898 140.574 66.5018 140.761 66.0445 141.134C65.5872 141.498 65.3585 142.105 65.3585 142.954V147H64.0845V139.314H65.3585V140.868ZM76.5275 142.73C76.5275 143.001 76.5089 143.234 76.4715 143.43H70.3255C70.3535 144.307 70.6009 144.965 71.0675 145.404C71.5435 145.843 72.1222 146.062 72.8035 146.062C73.4195 146.062 73.9329 145.908 74.3435 145.6C74.7635 145.283 75.0202 144.863 75.1135 144.34H76.4715C76.3782 144.872 76.1682 145.348 75.8415 145.768C75.5242 146.188 75.1089 146.515 74.5955 146.748C74.0822 146.981 73.5035 147.098 72.8595 147.098C72.1222 147.098 71.4689 146.939 70.8995 146.622C70.3302 146.305 69.8822 145.852 69.5555 145.264C69.2382 144.667 69.0795 143.967 69.0795 143.164C69.0795 142.361 69.2382 141.661 69.5555 141.064C69.8822 140.467 70.3302 140.009 70.8995 139.692C71.4689 139.375 72.1222 139.216 72.8595 139.216C73.6062 139.216 74.2549 139.375 74.8055 139.692C75.3655 140.009 75.7902 140.434 76.0795 140.966C76.3782 141.498 76.5275 142.086 76.5275 142.73ZM75.2395 142.814C75.2675 142.245 75.1742 141.769 74.9595 141.386C74.7449 141.003 74.4509 140.719 74.0775 140.532C73.7042 140.345 73.2982 140.252 72.8595 140.252C72.1595 140.252 71.5715 140.471 71.0955 140.91C70.6195 141.339 70.3629 141.974 70.3255 142.814H75.2395ZM85.6989 139.188C86.5949 139.188 87.3182 139.477 87.8689 140.056C88.4195 140.625 88.6949 141.451 88.6949 142.534V147H87.4209V142.646C87.4209 141.881 87.2249 141.293 86.8329 140.882C86.4409 140.471 85.9089 140.266 85.2369 140.266C84.5369 140.266 83.9769 140.495 83.5569 140.952C83.1369 141.4 82.9269 142.058 82.9269 142.926V147H81.6529V139.314H82.9269V141.134C83.1229 140.509 83.4682 140.028 83.9629 139.692C84.4669 139.356 85.0455 139.188 85.6989 139.188ZM97.481 139.314V147H96.207V145.194C96.011 145.819 95.661 146.3 95.157 146.636C94.6623 146.963 94.0836 147.126 93.421 147.126C92.5343 147.126 91.8156 146.841 91.265 146.272C90.7143 145.693 90.439 144.867 90.439 143.794V139.314H91.713V143.668C91.713 144.433 91.909 145.026 92.301 145.446C92.693 145.857 93.225 146.062 93.897 146.062C94.597 146.062 95.157 145.838 95.577 145.39C95.997 144.933 96.207 144.27 96.207 143.402V139.314H97.481ZM100.796 136.64V147H99.522V136.64H100.796ZM104.118 136.64V147H102.844V136.64H104.118ZM109.317 139.216C110.063 139.216 110.693 139.403 111.207 139.776C111.729 140.149 112.093 140.649 112.299 141.274V139.314H113.573V147H112.299V145.04C112.093 145.665 111.729 146.165 111.207 146.538C110.693 146.911 110.063 147.098 109.317 147.098C108.635 147.098 108.029 146.939 107.497 146.622C106.965 146.305 106.545 145.852 106.237 145.264C105.938 144.667 105.789 143.967 105.789 143.164C105.789 142.361 105.938 141.661 106.237 141.064C106.545 140.467 106.965 140.009 107.497 139.692C108.029 139.375 108.635 139.216 109.317 139.216ZM109.681 140.35C108.897 140.35 108.267 140.602 107.791 141.106C107.324 141.601 107.091 142.287 107.091 143.164C107.091 144.041 107.324 144.732 107.791 145.236C108.267 145.731 108.897 145.978 109.681 145.978C110.185 145.978 110.633 145.861 111.025 145.628C111.426 145.395 111.739 145.068 111.963 144.648C112.187 144.219 112.299 143.724 112.299 143.164C112.299 142.604 112.187 142.109 111.963 141.68C111.739 141.251 111.426 140.924 111.025 140.7C110.633 140.467 110.185 140.35 109.681 140.35ZM125.891 139.314V147H124.617V145.194C124.421 145.819 124.071 146.3 123.567 146.636C123.072 146.963 122.494 147.126 121.831 147.126C120.944 147.126 120.226 146.841 119.675 146.272C119.124 145.693 118.849 144.867 118.849 143.794V139.314H120.123V143.668C120.123 144.433 120.319 145.026 120.711 145.446C121.103 145.857 121.635 146.062 122.307 146.062C123.007 146.062 123.567 145.838 123.987 145.39C124.407 144.933 124.617 144.27 124.617 143.402V139.314H125.891ZM129.206 136.64V147H127.932V136.64H129.206ZM134.922 145.88V147H133.97C133.186 147 132.598 146.813 132.206 146.44C131.824 146.067 131.632 145.441 131.632 144.564V140.42H130.484V139.314H131.632V137.396H132.92V139.314H134.908V140.42H132.92V144.592C132.92 145.087 133.009 145.427 133.186 145.614C133.373 145.791 133.69 145.88 134.138 145.88H134.922ZM137.751 140.868C138.003 140.336 138.372 139.925 138.857 139.636C139.342 139.337 139.921 139.188 140.593 139.188V140.574H140.201C139.482 140.574 138.894 140.761 138.437 141.134C137.98 141.498 137.751 142.105 137.751 142.954V147H136.477V139.314H137.751V140.868ZM141.626 137.06C141.626 136.827 141.705 136.64 141.864 136.5C142.023 136.351 142.233 136.276 142.494 136.276C142.755 136.276 142.965 136.351 143.124 136.5C143.283 136.64 143.362 136.827 143.362 137.06C143.362 137.293 143.283 137.485 143.124 137.634C142.965 137.774 142.755 137.844 142.494 137.844C142.233 137.844 142.023 137.774 141.864 137.634C141.705 137.485 141.626 137.293 141.626 137.06ZM143.124 139.314V147H141.85V139.314H143.124ZM148.574 139.216C149.554 139.216 150.366 139.477 151.01 140C151.654 140.523 152.051 141.223 152.2 142.1H150.856C150.763 141.549 150.506 141.12 150.086 140.812C149.676 140.495 149.162 140.336 148.546 140.336C148.098 140.336 147.688 140.439 147.314 140.644C146.95 140.849 146.656 141.167 146.432 141.596C146.208 142.016 146.096 142.539 146.096 143.164C146.096 143.789 146.208 144.317 146.432 144.746C146.656 145.166 146.95 145.479 147.314 145.684C147.688 145.889 148.098 145.992 148.546 145.992C149.162 145.992 149.676 145.833 150.086 145.516C150.506 145.199 150.763 144.765 150.856 144.214H152.2C152.051 145.101 151.654 145.805 151.01 146.328C150.366 146.841 149.554 147.098 148.574 147.098C147.837 147.098 147.184 146.939 146.614 146.622C146.045 146.305 145.597 145.852 145.27 145.264C144.953 144.667 144.794 143.967 144.794 143.164C144.794 142.361 144.953 141.661 145.27 141.064C145.597 140.467 146.045 140.009 146.614 139.692C147.184 139.375 147.837 139.216 148.574 139.216ZM160.938 142.73C160.938 143.001 160.919 143.234 160.882 143.43H154.736C154.764 144.307 155.011 144.965 155.478 145.404C155.954 145.843 156.532 146.062 157.214 146.062C157.83 146.062 158.343 145.908 158.754 145.6C159.174 145.283 159.43 144.863 159.524 144.34H160.882C160.788 144.872 160.578 145.348 160.252 145.768C159.934 146.188 159.519 146.515 159.006 146.748C158.492 146.981 157.914 147.098 157.27 147.098C156.532 147.098 155.879 146.939 155.31 146.622C154.74 146.305 154.292 145.852 153.966 145.264C153.648 144.667 153.49 143.967 153.49 143.164C153.49 142.361 153.648 141.661 153.966 141.064C154.292 140.467 154.74 140.009 155.31 139.692C155.879 139.375 156.532 139.216 157.27 139.216C158.016 139.216 158.665 139.375 159.216 139.692C159.776 140.009 160.2 140.434 160.49 140.966C160.788 141.498 160.938 142.086 160.938 142.73ZM159.65 142.814C159.678 142.245 159.584 141.769 159.37 141.386C159.155 141.003 158.861 140.719 158.488 140.532C158.114 140.345 157.708 140.252 157.27 140.252C156.57 140.252 155.982 140.471 155.506 140.91C155.03 141.339 154.773 141.974 154.736 142.814H159.65ZM165.012 139.216C165.88 139.216 166.575 139.445 167.098 139.902C167.63 140.35 167.952 140.957 168.064 141.722H166.846C166.79 141.265 166.599 140.891 166.272 140.602C165.955 140.303 165.525 140.154 164.984 140.154C164.527 140.154 164.167 140.266 163.906 140.49C163.654 140.705 163.528 140.999 163.528 141.372C163.528 141.652 163.612 141.881 163.78 142.058C163.957 142.226 164.172 142.357 164.424 142.45C164.685 142.534 165.04 142.627 165.488 142.73C166.057 142.861 166.515 142.996 166.86 143.136C167.215 143.267 167.513 143.481 167.756 143.78C168.008 144.079 168.134 144.48 168.134 144.984C168.134 145.609 167.896 146.118 167.42 146.51C166.953 146.902 166.328 147.098 165.544 147.098C164.629 147.098 163.883 146.879 163.304 146.44C162.725 146.001 162.385 145.39 162.282 144.606H163.514C163.561 145.073 163.761 145.451 164.116 145.74C164.48 146.029 164.956 146.174 165.544 146.174C165.983 146.174 166.323 146.062 166.566 145.838C166.818 145.614 166.944 145.32 166.944 144.956C166.944 144.657 166.855 144.419 166.678 144.242C166.501 144.065 166.281 143.929 166.02 143.836C165.759 143.743 165.399 143.645 164.942 143.542C164.373 143.411 163.915 143.281 163.57 143.15C163.234 143.019 162.945 142.814 162.702 142.534C162.469 142.245 162.352 141.857 162.352 141.372C162.352 140.728 162.59 140.21 163.066 139.818C163.542 139.417 164.191 139.216 165.012 139.216ZM53.0929 159.244C53.8022 159.244 54.4042 159.417 54.8989 159.762C55.4029 160.098 55.7669 160.555 55.9909 161.134V159.314H57.2649V170.64H55.9909V165.124C55.7576 165.731 55.3889 166.211 54.8849 166.566C54.3902 166.921 53.7929 167.098 53.0929 167.098C52.4116 167.098 51.7956 166.939 51.2449 166.622C50.6942 166.295 50.2602 165.838 49.9429 165.25C49.6349 164.653 49.4809 163.962 49.4809 163.178C49.4809 162.394 49.6349 161.708 49.9429 161.12C50.2602 160.523 50.6942 160.061 51.2449 159.734C51.7956 159.407 52.4116 159.244 53.0929 159.244ZM53.3729 160.35C52.6076 160.35 51.9822 160.602 51.4969 161.106C51.0209 161.601 50.7829 162.291 50.7829 163.178C50.7829 164.065 51.0209 164.755 51.4969 165.25C51.9729 165.735 52.5982 165.978 53.3729 165.978C53.8582 165.978 54.2969 165.866 54.6889 165.642C55.0902 165.409 55.4076 165.082 55.6409 164.662C55.8742 164.233 55.9909 163.733 55.9909 163.164C55.9909 162.595 55.8742 162.1 55.6409 161.68C55.4076 161.251 55.0902 160.924 54.6889 160.7C54.2969 160.467 53.8582 160.35 53.3729 160.35ZM66.1245 159.314V167H64.8505V165.194C64.6545 165.819 64.3045 166.3 63.8005 166.636C63.3058 166.963 62.7272 167.126 62.0645 167.126C61.1778 167.126 60.4592 166.841 59.9085 166.272C59.3578 165.693 59.0825 164.867 59.0825 163.794V159.314H60.3565V163.668C60.3565 164.433 60.5525 165.026 60.9445 165.446C61.3365 165.857 61.8685 166.062 62.5405 166.062C63.2405 166.062 63.8005 165.838 64.2205 165.39C64.6405 164.933 64.8505 164.27 64.8505 163.402V159.314H66.1245ZM71.3156 159.216C72.0622 159.216 72.6922 159.403 73.2056 159.776C73.7282 160.149 74.0922 160.649 74.2976 161.274V159.314H75.5716V167H74.2976V165.04C74.0922 165.665 73.7282 166.165 73.2056 166.538C72.6922 166.911 72.0622 167.098 71.3156 167.098C70.6342 167.098 70.0276 166.939 69.4956 166.622C68.9636 166.305 68.5436 165.852 68.2356 165.264C67.9369 164.667 67.7876 163.967 67.7876 163.164C67.7876 162.361 67.9369 161.661 68.2356 161.064C68.5436 160.467 68.9636 160.009 69.4956 159.692C70.0276 159.375 70.6342 159.216 71.3156 159.216ZM71.6796 160.35C70.8956 160.35 70.2656 160.602 69.7896 161.106C69.3229 161.601 69.0896 162.287 69.0896 163.164C69.0896 164.041 69.3229 164.732 69.7896 165.236C70.2656 165.731 70.8956 165.978 71.6796 165.978C72.1836 165.978 72.6316 165.861 73.0236 165.628C73.4249 165.395 73.7376 165.068 73.9616 164.648C74.1856 164.219 74.2976 163.724 74.2976 163.164C74.2976 162.604 74.1856 162.109 73.9616 161.68C73.7376 161.251 73.4249 160.924 73.0236 160.7C72.6316 160.467 72.1836 160.35 71.6796 160.35ZM87.0491 159.188C87.9451 159.188 88.6638 159.477 89.2051 160.056C89.7558 160.625 90.0311 161.451 90.0311 162.534V167H88.7571V162.646C88.7571 161.89 88.5705 161.311 88.1971 160.91C87.8331 160.509 87.3291 160.308 86.6851 160.308C86.0131 160.308 85.4718 160.532 85.0611 160.98C84.6598 161.419 84.4591 162.067 84.4591 162.926V167H83.1851V162.646C83.1851 161.89 82.9985 161.311 82.6251 160.91C82.2518 160.509 81.7478 160.308 81.1131 160.308C80.4318 160.308 79.8858 160.532 79.4751 160.98C79.0738 161.419 78.8731 162.067 78.8731 162.926V167H77.5991V159.314H78.8731V161.064C79.0598 160.457 79.3911 159.995 79.8671 159.678C80.3525 159.351 80.9078 159.188 81.5331 159.188C82.1865 159.188 82.7511 159.356 83.2271 159.692C83.7125 160.019 84.0578 160.504 84.2631 161.148C84.4778 160.523 84.8371 160.042 85.3411 159.706C85.8451 159.361 86.4145 159.188 87.0491 159.188ZM102.538 162.73C102.538 163.001 102.52 163.234 102.482 163.43H96.3363C96.3643 164.307 96.6116 164.965 97.0783 165.404C97.5543 165.843 98.133 166.062 98.8143 166.062C99.4303 166.062 99.9436 165.908 100.354 165.6C100.774 165.283 101.031 164.863 101.124 164.34H102.482C102.389 164.872 102.179 165.348 101.852 165.768C101.535 166.188 101.12 166.515 100.606 166.748C100.093 166.981 99.5143 167.098 98.8703 167.098C98.133 167.098 97.4796 166.939 96.9103 166.622C96.341 166.305 95.893 165.852 95.5663 165.264C95.249 164.667 95.0903 163.967 95.0903 163.164C95.0903 162.361 95.249 161.661 95.5663 161.064C95.893 160.467 96.341 160.009 96.9103 159.692C97.4796 159.375 98.133 159.216 98.8703 159.216C99.617 159.216 100.266 159.375 100.816 159.692C101.376 160.009 101.801 160.434 102.09 160.966C102.389 161.498 102.538 162.086 102.538 162.73ZM101.25 162.814C101.278 162.245 101.185 161.769 100.97 161.386C100.756 161.003 100.462 160.719 100.088 160.532C99.715 160.345 99.309 160.252 98.8703 160.252C98.1703 160.252 97.5823 160.471 97.1063 160.91C96.6303 161.339 96.3736 161.974 96.3363 162.814H101.25ZM107.355 159.216C108.101 159.216 108.731 159.403 109.245 159.776C109.767 160.149 110.131 160.649 110.337 161.274V159.314H111.611V167.126C111.611 167.835 111.461 168.465 111.163 169.016C110.864 169.567 110.444 169.996 109.903 170.304C109.361 170.612 108.731 170.766 108.013 170.766C106.977 170.766 106.132 170.514 105.479 170.01C104.825 169.515 104.41 168.843 104.233 167.994H105.493C105.642 168.507 105.922 168.909 106.333 169.198C106.753 169.497 107.289 169.646 107.943 169.646C108.633 169.646 109.203 169.422 109.651 168.974C110.108 168.535 110.337 167.919 110.337 167.126V165.04C110.131 165.665 109.767 166.165 109.245 166.538C108.731 166.911 108.101 167.098 107.355 167.098C106.673 167.098 106.067 166.939 105.535 166.622C105.003 166.305 104.583 165.852 104.275 165.264C103.976 164.667 103.827 163.967 103.827 163.164C103.827 162.361 103.976 161.661 104.275 161.064C104.583 160.467 105.003 160.009 105.535 159.692C106.067 159.375 106.673 159.216 107.355 159.216ZM107.719 160.35C106.935 160.35 106.305 160.602 105.829 161.106C105.362 161.601 105.129 162.287 105.129 163.164C105.129 164.041 105.362 164.732 105.829 165.236C106.305 165.731 106.935 165.978 107.719 165.978C108.223 165.978 108.671 165.861 109.063 165.628C109.464 165.395 109.777 165.068 110.001 164.648C110.225 164.219 110.337 163.724 110.337 163.164C110.337 162.604 110.225 162.109 110.001 161.68C109.777 161.251 109.464 160.924 109.063 160.7C108.671 160.467 108.223 160.35 107.719 160.35ZM120.708 162.73C120.708 163.001 120.69 163.234 120.652 163.43H114.506C114.534 164.307 114.782 164.965 115.248 165.404C115.724 165.843 116.303 166.062 116.984 166.062C117.6 166.062 118.114 165.908 118.524 165.6C118.944 165.283 119.201 164.863 119.294 164.34H120.652C120.559 164.872 120.349 165.348 120.022 165.768C119.705 166.188 119.29 166.515 118.776 166.748C118.263 166.981 117.684 167.098 117.04 167.098C116.303 167.098 115.65 166.939 115.08 166.622C114.511 166.305 114.063 165.852 113.736 165.264C113.419 164.667 113.26 163.967 113.26 163.164C113.26 162.361 113.419 161.661 113.736 161.064C114.063 160.467 114.511 160.009 115.08 159.692C115.65 159.375 116.303 159.216 117.04 159.216C117.787 159.216 118.436 159.375 118.986 159.692C119.546 160.009 119.971 160.434 120.26 160.966C120.559 161.498 120.708 162.086 120.708 162.73ZM119.42 162.814C119.448 162.245 119.355 161.769 119.14 161.386C118.926 161.003 118.632 160.719 118.258 160.532C117.885 160.345 117.479 160.252 117.04 160.252C116.34 160.252 115.752 160.471 115.276 160.91C114.8 161.339 114.544 161.974 114.506 162.814H119.42ZM126.043 165.88V167H125.091C124.307 167 123.719 166.813 123.327 166.44C122.944 166.067 122.753 165.441 122.753 164.564V160.42H121.605V159.314H122.753V157.396H124.041V159.314H126.029V160.42H124.041V164.592C124.041 165.087 124.129 165.427 124.307 165.614C124.493 165.791 124.811 165.88 125.259 165.88H126.043ZM134.206 159.216C134.953 159.216 135.583 159.403 136.096 159.776C136.619 160.149 136.983 160.649 137.188 161.274V159.314H138.462V167H137.188V165.04C136.983 165.665 136.619 166.165 136.096 166.538C135.583 166.911 134.953 167.098 134.206 167.098C133.525 167.098 132.918 166.939 132.386 166.622C131.854 166.305 131.434 165.852 131.126 165.264C130.828 164.667 130.678 163.967 130.678 163.164C130.678 162.361 130.828 161.661 131.126 161.064C131.434 160.467 131.854 160.009 132.386 159.692C132.918 159.375 133.525 159.216 134.206 159.216ZM134.57 160.35C133.786 160.35 133.156 160.602 132.68 161.106C132.214 161.601 131.98 162.287 131.98 163.164C131.98 164.041 132.214 164.732 132.68 165.236C133.156 165.731 133.786 165.978 134.57 165.978C135.074 165.978 135.522 165.861 135.914 165.628C136.316 165.395 136.628 165.068 136.852 164.648C137.076 164.219 137.188 163.724 137.188 163.164C137.188 162.604 137.076 162.109 136.852 161.68C136.628 161.251 136.316 160.924 135.914 160.7C135.522 160.467 135.074 160.35 134.57 160.35ZM143.892 159.216C144.872 159.216 145.684 159.477 146.328 160C146.972 160.523 147.368 161.223 147.518 162.1H146.174C146.08 161.549 145.824 161.12 145.404 160.812C144.993 160.495 144.48 160.336 143.864 160.336C143.416 160.336 143.005 160.439 142.632 160.644C142.268 160.849 141.974 161.167 141.75 161.596C141.526 162.016 141.414 162.539 141.414 163.164C141.414 163.789 141.526 164.317 141.75 164.746C141.974 165.166 142.268 165.479 142.632 165.684C143.005 165.889 143.416 165.992 143.864 165.992C144.48 165.992 144.993 165.833 145.404 165.516C145.824 165.199 146.08 164.765 146.174 164.214H147.518C147.368 165.101 146.972 165.805 146.328 166.328C145.684 166.841 144.872 167.098 143.892 167.098C143.154 167.098 142.501 166.939 141.932 166.622C141.362 166.305 140.914 165.852 140.588 165.264C140.27 164.667 140.112 163.967 140.112 163.164C140.112 162.361 140.27 161.661 140.588 161.064C140.914 160.467 141.362 160.009 141.932 159.692C142.501 159.375 143.154 159.216 143.892 159.216ZM49.0697 179.216C49.751 179.216 50.3577 179.375 50.8897 179.692C51.4217 180.009 51.837 180.467 52.1357 181.064C52.4437 181.661 52.5977 182.361 52.5977 183.164C52.5977 183.967 52.4437 184.667 52.1357 185.264C51.837 185.852 51.4217 186.305 50.8897 186.622C50.3577 186.939 49.751 187.098 49.0697 187.098C48.323 187.098 47.6883 186.911 47.1657 186.538C46.6523 186.155 46.2977 185.656 46.1017 185.04V190.64H44.8277V179.314H46.1017V181.274C46.2977 180.658 46.6523 180.163 47.1657 179.79C47.6883 179.407 48.323 179.216 49.0697 179.216ZM48.7057 180.35C48.211 180.35 47.763 180.467 47.3617 180.7C46.9603 180.924 46.6477 181.251 46.4237 181.68C46.1997 182.109 46.0877 182.604 46.0877 183.164C46.0877 183.724 46.1997 184.219 46.4237 184.648C46.6477 185.068 46.9603 185.395 47.3617 185.628C47.763 185.861 48.211 185.978 48.7057 185.978C49.499 185.978 50.129 185.731 50.5957 185.236C51.0717 184.732 51.3097 184.041 51.3097 183.164C51.3097 182.287 51.0717 181.601 50.5957 181.106C50.129 180.602 49.499 180.35 48.7057 180.35ZM58.3073 179.188C59.2033 179.188 59.9266 179.477 60.4773 180.056C61.0279 180.625 61.3033 181.451 61.3033 182.534V187H60.0293V182.646C60.0293 181.881 59.8333 181.293 59.4413 180.882C59.0493 180.471 58.5173 180.266 57.8453 180.266C57.1453 180.266 56.5853 180.495 56.1653 180.952C55.7453 181.4 55.5353 182.058 55.5353 182.926V187H54.2613V176.64H55.5353V181.134C55.7313 180.509 56.0766 180.028 56.5713 179.692C57.0753 179.356 57.6539 179.188 58.3073 179.188ZM66.4074 179.216C67.154 179.216 67.784 179.403 68.2974 179.776C68.82 180.149 69.184 180.649 69.3894 181.274V179.314H70.6634V187H69.3894V185.04C69.184 185.665 68.82 186.165 68.2974 186.538C67.784 186.911 67.154 187.098 66.4074 187.098C65.726 187.098 65.1194 186.939 64.5874 186.622C64.0554 186.305 63.6354 185.852 63.3274 185.264C63.0287 184.667 62.8794 183.967 62.8794 183.164C62.8794 182.361 63.0287 181.661 63.3274 181.064C63.6354 180.467 64.0554 180.009 64.5874 179.692C65.1194 179.375 65.726 179.216 66.4074 179.216ZM66.7714 180.35C65.9874 180.35 65.3574 180.602 64.8814 181.106C64.4147 181.601 64.1814 182.287 64.1814 183.164C64.1814 184.041 64.4147 184.732 64.8814 185.236C65.3574 185.731 65.9874 185.978 66.7714 185.978C67.2754 185.978 67.7234 185.861 68.1154 185.628C68.5167 185.395 68.8294 185.068 69.0534 184.648C69.2774 184.219 69.3894 183.724 69.3894 183.164C69.3894 182.604 69.2774 182.109 69.0534 181.68C68.8294 181.251 68.5167 180.924 68.1154 180.7C67.7234 180.467 67.2754 180.35 66.7714 180.35ZM73.9649 180.868C74.2169 180.336 74.5856 179.925 75.0709 179.636C75.5563 179.337 76.1349 179.188 76.8069 179.188V180.574H76.4149C75.6963 180.574 75.1083 180.761 74.6509 181.134C74.1936 181.498 73.9649 182.105 73.9649 182.954V187H72.6909V179.314H73.9649V180.868ZM85.134 182.73C85.134 183.001 85.1153 183.234 85.078 183.43H78.932C78.96 184.307 79.2073 184.965 79.674 185.404C80.15 185.843 80.7287 186.062 81.41 186.062C82.026 186.062 82.5393 185.908 82.95 185.6C83.37 185.283 83.6267 184.863 83.72 184.34H85.078C84.9847 184.872 84.7747 185.348 84.448 185.768C84.1307 186.188 83.7153 186.515 83.202 186.748C82.6887 186.981 82.11 187.098 81.466 187.098C80.7287 187.098 80.0753 186.939 79.506 186.622C78.9367 186.305 78.4887 185.852 78.162 185.264C77.8447 184.667 77.686 183.967 77.686 183.164C77.686 182.361 77.8447 181.661 78.162 181.064C78.4887 180.467 78.9367 180.009 79.506 179.692C80.0753 179.375 80.7287 179.216 81.466 179.216C82.2127 179.216 82.8613 179.375 83.412 179.692C83.972 180.009 84.3967 180.434 84.686 180.966C84.9847 181.498 85.134 182.086 85.134 182.73ZM83.846 182.814C83.874 182.245 83.7807 181.769 83.566 181.386C83.3513 181.003 83.0573 180.719 82.684 180.532C82.3107 180.345 81.9047 180.252 81.466 180.252C80.766 180.252 80.178 180.471 79.702 180.91C79.226 181.339 78.9693 181.974 78.932 182.814H83.846ZM90.4683 185.88V187H89.5163C88.7323 187 88.1443 186.813 87.7523 186.44C87.3697 186.067 87.1783 185.441 87.1783 184.564V180.42H86.0303V179.314H87.1783V177.396H88.4663V179.314H90.4543V180.42H88.4663V184.592C88.4663 185.087 88.555 185.427 88.7323 185.614C88.919 185.791 89.2363 185.88 89.6843 185.88H90.4683ZM93.297 180.868C93.549 180.336 93.9176 179.925 94.403 179.636C94.8883 179.337 95.467 179.188 96.139 179.188V180.574H95.747C95.0283 180.574 94.4403 180.761 93.983 181.134C93.5256 181.498 93.297 182.105 93.297 182.954V187H92.023V179.314H93.297V180.868ZM100.546 179.216C101.293 179.216 101.923 179.403 102.436 179.776C102.959 180.149 103.323 180.649 103.528 181.274V179.314H104.802V187H103.528V185.04C103.323 185.665 102.959 186.165 102.436 186.538C101.923 186.911 101.293 187.098 100.546 187.098C99.8647 187.098 99.258 186.939 98.726 186.622C98.194 186.305 97.774 185.852 97.466 185.264C97.1674 184.667 97.018 183.967 97.018 183.164C97.018 182.361 97.1674 181.661 97.466 181.064C97.774 180.467 98.194 180.009 98.726 179.692C99.258 179.375 99.8647 179.216 100.546 179.216ZM100.91 180.35C100.126 180.35 99.496 180.602 99.02 181.106C98.5534 181.601 98.32 182.287 98.32 183.164C98.32 184.041 98.5534 184.732 99.02 185.236C99.496 185.731 100.126 185.978 100.91 185.978C101.414 185.978 101.862 185.861 102.254 185.628C102.655 185.395 102.968 185.068 103.192 184.648C103.416 184.219 103.528 183.724 103.528 183.164C103.528 182.604 103.416 182.109 103.192 181.68C102.968 181.251 102.655 180.924 102.254 180.7C101.862 180.467 101.414 180.35 100.91 180.35ZM119.739 179.188C120.635 179.188 121.353 179.477 121.895 180.056C122.445 180.625 122.721 181.451 122.721 182.534V187H121.447V182.646C121.447 181.89 121.26 181.311 120.887 180.91C120.523 180.509 120.019 180.308 119.375 180.308C118.703 180.308 118.161 180.532 117.751 180.98C117.349 181.419 117.149 182.067 117.149 182.926V187H115.875V182.646C115.875 181.89 115.688 181.311 115.315 180.91C114.941 180.509 114.437 180.308 113.803 180.308C113.121 180.308 112.575 180.532 112.165 180.98C111.763 181.419 111.563 182.067 111.563 182.926V187H110.289V179.314H111.563V181.064C111.749 180.457 112.081 179.995 112.557 179.678C113.042 179.351 113.597 179.188 114.223 179.188C114.876 179.188 115.441 179.356 115.917 179.692C116.402 180.019 116.747 180.504 116.953 181.148C117.167 180.523 117.527 180.042 118.031 179.706C118.535 179.361 119.104 179.188 119.739 179.188ZM128.185 179.216C128.922 179.216 129.58 179.375 130.159 179.692C130.747 180.009 131.204 180.467 131.531 181.064C131.867 181.661 132.035 182.361 132.035 183.164C132.035 183.967 131.867 184.667 131.531 185.264C131.204 185.852 130.747 186.305 130.159 186.622C129.58 186.939 128.922 187.098 128.185 187.098C127.447 187.098 126.785 186.939 126.197 186.622C125.618 186.305 125.161 185.852 124.825 185.264C124.489 184.667 124.321 183.967 124.321 183.164C124.321 182.361 124.489 181.661 124.825 181.064C125.161 180.467 125.618 180.009 126.197 179.692C126.785 179.375 127.447 179.216 128.185 179.216ZM128.185 180.336C127.727 180.336 127.303 180.439 126.911 180.644C126.528 180.849 126.215 181.167 125.973 181.596C125.739 182.016 125.623 182.539 125.623 183.164C125.623 183.78 125.739 184.303 125.973 184.732C126.215 185.152 126.528 185.465 126.911 185.67C127.303 185.875 127.727 185.978 128.185 185.978C128.642 185.978 129.062 185.875 129.445 185.67C129.837 185.465 130.149 185.152 130.383 184.732C130.625 184.303 130.747 183.78 130.747 183.164C130.747 182.539 130.625 182.016 130.383 181.596C130.149 181.167 129.837 180.849 129.445 180.644C129.062 180.439 128.642 180.336 128.185 180.336ZM134.969 180.868C135.221 180.336 135.59 179.925 136.075 179.636C136.56 179.337 137.139 179.188 137.811 179.188V180.574H137.419C136.7 180.574 136.112 180.761 135.655 181.134C135.198 181.498 134.969 182.105 134.969 182.954V187H133.695V179.314H134.969V180.868ZM143.31 179.216C143.991 179.216 144.598 179.375 145.13 179.692C145.662 180.009 146.077 180.467 146.376 181.064C146.684 181.661 146.838 182.361 146.838 183.164C146.838 183.967 146.684 184.667 146.376 185.264C146.077 185.852 145.662 186.305 145.13 186.622C144.598 186.939 143.991 187.098 143.31 187.098C142.563 187.098 141.929 186.911 141.406 186.538C140.893 186.155 140.538 185.656 140.342 185.04V187H139.068V176.64H140.342V181.274C140.538 180.658 140.893 180.163 141.406 179.79C141.929 179.407 142.563 179.216 143.31 179.216ZM142.946 180.35C142.451 180.35 142.003 180.467 141.602 180.7C141.201 180.924 140.888 181.251 140.664 181.68C140.44 182.109 140.328 182.604 140.328 183.164C140.328 183.724 140.44 184.219 140.664 184.648C140.888 185.068 141.201 185.395 141.602 185.628C142.003 185.861 142.451 185.978 142.946 185.978C143.739 185.978 144.369 185.731 144.836 185.236C145.312 184.732 145.55 184.041 145.55 183.164C145.55 182.287 145.312 181.601 144.836 181.106C144.369 180.602 143.739 180.35 142.946 180.35ZM148.277 177.06C148.277 176.827 148.357 176.64 148.515 176.5C148.674 176.351 148.884 176.276 149.145 176.276C149.407 176.276 149.617 176.351 149.775 176.5C149.934 176.64 150.013 176.827 150.013 177.06C150.013 177.293 149.934 177.485 149.775 177.634C149.617 177.774 149.407 177.844 149.145 177.844C148.884 177.844 148.674 177.774 148.515 177.634C148.357 177.485 148.277 177.293 148.277 177.06ZM149.775 179.314V187H148.501V179.314H149.775ZM152.762 185.502V187H151.222V185.502H152.762Z" fill="white"/>
<path d="M50.4784 109.24C50.4784 109.933 50.3117 110.58 49.9784 111.18C49.645 111.767 49.1384 112.24 48.4584 112.6C47.7784 112.96 46.945 113.14 45.9584 113.14C44.9984 113.14 44.1384 112.973 43.3784 112.64C42.6184 112.293 42.0117 111.813 41.5584 111.2C41.105 110.587 40.845 109.88 40.7784 109.08H43.2184C43.285 109.693 43.545 110.22 43.9984 110.66C44.465 111.1 45.085 111.32 45.8584 111.32C46.5517 111.32 47.085 111.133 47.4584 110.76C47.845 110.387 48.0384 109.907 48.0384 109.32C48.0384 108.813 47.8984 108.4 47.6184 108.08C47.3384 107.747 46.9917 107.487 46.5784 107.3C46.165 107.113 45.5984 106.9 44.8784 106.66C43.9984 106.38 43.2784 106.1 42.7184 105.82C42.1717 105.54 41.705 105.133 41.3184 104.6C40.9317 104.067 40.7384 103.367 40.7384 102.5C40.7384 101.74 40.925 101.073 41.2984 100.5C41.6717 99.9267 42.205 99.4867 42.8984 99.18C43.5917 98.86 44.3917 98.7 45.2984 98.7C46.7384 98.7 47.8784 99.0467 48.7184 99.74C49.5717 100.433 50.0584 101.34 50.1784 102.46H47.7184C47.625 101.927 47.3717 101.473 46.9584 101.1C46.5584 100.713 46.005 100.52 45.2984 100.52C44.6584 100.52 44.145 100.687 43.7584 101.02C43.3717 101.34 43.1784 101.807 43.1784 102.42C43.1784 102.9 43.3117 103.3 43.5784 103.62C43.845 103.927 44.1784 104.173 44.5784 104.36C44.9917 104.533 45.5517 104.74 46.2584 104.98C47.1517 105.26 47.8784 105.547 48.4384 105.84C49.0117 106.12 49.4917 106.533 49.8784 107.08C50.2784 107.627 50.4784 108.347 50.4784 109.24ZM63.0009 106.96C63.0009 107.333 62.9742 107.66 62.9209 107.94H54.4409C54.4809 109.073 54.7942 109.913 55.3809 110.46C55.9675 111.007 56.6942 111.28 57.5609 111.28C58.3209 111.28 58.9609 111.087 59.4809 110.7C60.0142 110.313 60.3409 109.8 60.4609 109.16H62.9009C62.7542 109.933 62.4475 110.62 61.9809 111.22C61.5142 111.82 60.9075 112.293 60.1609 112.64C59.4142 112.973 58.5809 113.14 57.6609 113.14C56.5942 113.14 55.6475 112.913 54.8209 112.46C54.0075 112.007 53.3675 111.353 52.9009 110.5C52.4342 109.647 52.2009 108.64 52.2009 107.48C52.2009 106.333 52.4342 105.333 52.9009 104.48C53.3675 103.627 54.0075 102.973 54.8209 102.52C55.6475 102.067 56.5942 101.84 57.6609 101.84C58.7409 101.84 59.6809 102.067 60.4809 102.52C61.2942 102.96 61.9142 103.573 62.3409 104.36C62.7809 105.133 63.0009 106 63.0009 106.96ZM60.7009 106.9C60.7275 106.18 60.6009 105.58 60.3209 105.1C60.0542 104.607 59.6809 104.247 59.2009 104.02C58.7342 103.78 58.2209 103.66 57.6609 103.66C56.7675 103.66 56.0209 103.933 55.4209 104.48C54.8209 105.027 54.4942 105.833 54.4409 106.9H60.7009ZM69.6223 101.84C70.6223 101.84 71.4756 102.087 72.1823 102.58C72.8889 103.073 73.3823 103.727 73.6623 104.54V98.2H75.9623V113H73.6623V110.44C73.3823 111.253 72.8889 111.907 72.1823 112.4C71.4756 112.893 70.6223 113.14 69.6223 113.14C68.6623 113.14 67.8023 112.913 67.0423 112.46C66.2956 112.007 65.7089 111.353 65.2823 110.5C64.8556 109.647 64.6423 108.64 64.6423 107.48C64.6423 106.333 64.8556 105.333 65.2823 104.48C65.7089 103.627 66.2956 102.973 67.0423 102.52C67.8023 102.067 68.6623 101.84 69.6223 101.84ZM70.3223 103.84C69.3089 103.84 68.4956 104.167 67.8823 104.82C67.2823 105.46 66.9823 106.347 66.9823 107.48C66.9823 108.613 67.2823 109.507 67.8823 110.16C68.4956 110.8 69.3089 111.12 70.3223 111.12C70.9623 111.12 71.5356 110.973 72.0423 110.68C72.5489 110.373 72.9489 109.947 73.2423 109.4C73.5356 108.853 73.6823 108.213 73.6823 107.48C73.6823 106.76 73.5356 106.127 73.2423 105.58C72.9489 105.02 72.5489 104.593 72.0423 104.3C71.5356 103.993 70.9623 103.84 70.3223 103.84ZM88.9259 111.02V113H87.5259C86.3525 113 85.4592 112.72 84.8459 112.16C84.2459 111.587 83.9459 110.64 83.9459 109.32V103.92H82.3659V101.98H83.9459V99.24H86.2459V101.98H88.9059V103.92H86.2459V109.36C86.2459 109.987 86.3592 110.42 86.5859 110.66C86.8259 110.9 87.2392 111.02 87.8259 111.02H88.9259ZM101.302 106.96C101.302 107.333 101.275 107.66 101.222 107.94H92.7416C92.7816 109.073 93.095 109.913 93.6816 110.46C94.2683 111.007 94.995 111.28 95.8616 111.28C96.6216 111.28 97.2616 111.087 97.7816 110.7C98.315 110.313 98.6416 109.8 98.7616 109.16H101.202C101.055 109.933 100.748 110.62 100.282 111.22C99.815 111.82 99.2083 112.293 98.4616 112.64C97.715 112.973 96.8816 113.14 95.9616 113.14C94.895 113.14 93.9483 112.913 93.1216 112.46C92.3083 112.007 91.6683 111.353 91.2016 110.5C90.735 109.647 90.5016 108.64 90.5016 107.48C90.5016 106.333 90.735 105.333 91.2016 104.48C91.6683 103.627 92.3083 102.973 93.1216 102.52C93.9483 102.067 94.895 101.84 95.9616 101.84C97.0416 101.84 97.9816 102.067 98.7816 102.52C99.595 102.96 100.215 103.573 100.642 104.36C101.082 105.133 101.302 106 101.302 106.96ZM99.0016 106.9C99.0283 106.18 98.9016 105.58 98.6216 105.1C98.355 104.607 97.9816 104.247 97.5016 104.02C97.035 103.78 96.5216 103.66 95.9616 103.66C95.0683 103.66 94.3216 103.933 93.7216 104.48C93.1216 105.027 92.795 105.833 92.7416 106.9H99.0016ZM117.283 101.8C118.59 101.8 119.63 102.213 120.403 103.04C121.19 103.867 121.583 105.047 121.583 106.58V113H119.303V106.82C119.303 105.86 119.063 105.12 118.583 104.6C118.103 104.067 117.443 103.8 116.603 103.8C115.71 103.8 114.996 104.087 114.463 104.66C113.943 105.22 113.683 106.047 113.683 107.14V113H111.403V106.82C111.403 105.86 111.163 105.12 110.683 104.6C110.203 104.067 109.543 103.8 108.703 103.8C107.81 103.8 107.096 104.087 106.563 104.66C106.043 105.22 105.783 106.047 105.783 107.14V113H103.503V101.98H105.783V104.28C106.063 103.48 106.53 102.867 107.183 102.44C107.836 102.013 108.603 101.8 109.483 101.8C110.403 101.8 111.196 102.027 111.863 102.48C112.543 102.933 113.036 103.587 113.343 104.44C113.663 103.613 114.176 102.967 114.883 102.5C115.59 102.033 116.39 101.8 117.283 101.8ZM130.565 101.84C131.525 101.84 132.379 102.067 133.125 102.52C133.885 102.973 134.479 103.627 134.905 104.48C135.332 105.333 135.545 106.333 135.545 107.48C135.545 108.64 135.332 109.647 134.905 110.5C134.479 111.353 133.885 112.007 133.125 112.46C132.379 112.913 131.525 113.14 130.565 113.14C129.565 113.14 128.712 112.893 128.005 112.4C127.299 111.907 126.805 111.253 126.525 110.44V118.24H124.245V101.98H126.525V104.54C126.805 103.727 127.299 103.073 128.005 102.58C128.712 102.087 129.565 101.84 130.565 101.84ZM129.865 103.84C129.225 103.84 128.652 103.993 128.145 104.3C127.639 104.593 127.239 105.02 126.945 105.58C126.652 106.127 126.505 106.76 126.505 107.48C126.505 108.213 126.652 108.853 126.945 109.4C127.239 109.947 127.639 110.373 128.145 110.68C128.652 110.973 129.225 111.12 129.865 111.12C130.879 111.12 131.692 110.8 132.305 110.16C132.919 109.507 133.225 108.613 133.225 107.48C133.225 106.36 132.919 105.473 132.305 104.82C131.692 104.167 130.879 103.84 129.865 103.84ZM142.781 101.84C143.848 101.84 144.808 102.067 145.661 102.52C146.515 102.973 147.181 103.627 147.661 104.48C148.141 105.333 148.381 106.333 148.381 107.48C148.381 108.64 148.141 109.647 147.661 110.5C147.181 111.353 146.515 112.007 145.661 112.46C144.808 112.913 143.848 113.14 142.781 113.14C141.715 113.14 140.755 112.913 139.901 112.46C139.061 112.007 138.395 111.353 137.901 110.5C137.421 109.633 137.181 108.627 137.181 107.48C137.181 106.333 137.421 105.333 137.901 104.48C138.395 103.627 139.061 102.973 139.901 102.52C140.755 102.067 141.715 101.84 142.781 101.84ZM142.781 103.82C142.195 103.82 141.655 103.953 141.161 104.22C140.668 104.487 140.268 104.9 139.961 105.46C139.668 106.007 139.521 106.68 139.521 107.48C139.521 108.293 139.668 108.973 139.961 109.52C140.268 110.067 140.668 110.473 141.161 110.74C141.655 111.007 142.195 111.14 142.781 111.14C143.368 111.14 143.908 111.007 144.401 110.74C144.895 110.473 145.288 110.067 145.581 109.52C145.888 108.973 146.041 108.293 146.041 107.48C146.041 106.68 145.888 106.007 145.581 105.46C145.288 104.9 144.895 104.487 144.401 104.22C143.908 103.953 143.368 103.82 142.781 103.82ZM152.853 104.14C153.227 103.42 153.76 102.853 154.453 102.44C155.147 102.013 155.947 101.8 156.853 101.8V104.28H156.173C155.173 104.28 154.367 104.527 153.753 105.02C153.153 105.5 152.853 106.3 152.853 107.42V113H150.573V101.98H152.853V104.14Z" fill="white"/>
<circle cx="99" cy="52" r="28" fill="#ED8A68"/>
<path d="M92.3513 50.52C93.5993 50.904 94.5673 51.248 95.2553 51.552C95.9433 51.856 96.5433 52.336 97.0553 52.992C97.5673 53.632 97.8233 54.504 97.8233 55.608C97.8233 56.408 97.6233 57.152 97.2233 57.84C96.8393 58.528 96.2393 59.088 95.4233 59.52C94.6073 59.952 93.6073 60.168 92.4233 60.168H92.3513V62.088H91.6073V60.12C90.0873 59.976 88.8473 59.48 87.8873 58.632C86.9273 57.768 86.3913 56.704 86.2793 55.44H88.6073C88.6713 56.112 88.9593 56.744 89.4713 57.336C89.9993 57.912 90.7113 58.272 91.6073 58.416V52.272C90.3753 51.904 89.4153 51.576 88.7273 51.288C88.0553 50.984 87.4633 50.512 86.9513 49.872C86.4553 49.232 86.2073 48.376 86.2073 47.304C86.2073 46.424 86.4313 45.648 86.8793 44.976C87.3273 44.304 87.9593 43.784 88.7753 43.416C89.5913 43.048 90.5353 42.864 91.6073 42.864V40.8H92.3513V42.888C93.8393 43 95.0233 43.456 95.9033 44.256C96.7833 45.056 97.3033 46.024 97.4633 47.16H95.1113C94.9993 46.552 94.7113 46.008 94.2473 45.528C93.7833 45.048 93.1513 44.744 92.3513 44.616V50.52ZM88.5592 47.208C88.5592 48.024 88.8153 48.656 89.3273 49.104C89.8553 49.552 90.6153 49.944 91.6073 50.28V44.568C90.6793 44.568 89.9353 44.8 89.3753 45.264C88.8313 45.712 88.5592 46.36 88.5592 47.208ZM92.3753 58.464C93.3673 58.464 94.1353 58.2 94.6793 57.672C95.2233 57.144 95.4953 56.472 95.4953 55.656C95.4953 54.808 95.2233 54.152 94.6793 53.688C94.1353 53.224 93.3593 52.832 92.3513 52.512V58.464H92.3753ZM106.32 50.52C107.568 50.904 108.536 51.248 109.224 51.552C109.912 51.856 110.512 52.336 111.024 52.992C111.536 53.632 111.792 54.504 111.792 55.608C111.792 56.408 111.592 57.152 111.192 57.84C110.808 58.528 110.208 59.088 109.392 59.52C108.576 59.952 107.576 60.168 106.392 60.168H106.32V62.088H105.576V60.12C104.056 59.976 102.816 59.48 101.856 58.632C100.896 57.768 100.36 56.704 100.248 55.44H102.576C102.64 56.112 102.928 56.744 103.44 57.336C103.968 57.912 104.68 58.272 105.576 58.416V52.272C104.344 51.904 103.384 51.576 102.696 51.288C102.024 50.984 101.432 50.512 100.92 49.872C100.424 49.232 100.176 48.376 100.176 47.304C100.176 46.424 100.4 45.648 100.848 44.976C101.296 44.304 101.928 43.784 102.744 43.416C103.56 43.048 104.504 42.864 105.576 42.864V40.8H106.32V42.888C107.808 43 108.992 43.456 109.872 44.256C110.752 45.056 111.272 46.024 111.432 47.16H109.08C108.968 46.552 108.68 46.008 108.216 45.528C107.752 45.048 107.12 44.744 106.32 44.616V50.52ZM102.528 47.208C102.528 48.024 102.784 48.656 103.296 49.104C103.824 49.552 104.584 49.944 105.576 50.28V44.568C104.648 44.568 103.904 44.8 103.344 45.264C102.8 45.712 102.528 46.36 102.528 47.208ZM106.344 58.464C107.336 58.464 108.104 58.2 108.648 57.672C109.192 57.144 109.464 56.472 109.464 55.656C109.464 54.808 109.192 54.152 108.648 53.688C108.104 53.224 107.328 52.832 106.32 52.512V58.464H106.344Z" fill="white"/>
<path d="M63.2353 220.94C64.6913 221.388 65.8206 221.789 66.6233 222.144C67.426 222.499 68.126 223.059 68.7233 223.824C69.3206 224.571 69.6193 225.588 69.6193 226.876C69.6193 227.809 69.386 228.677 68.9193 229.48C68.4713 230.283 67.7713 230.936 66.8193 231.44C65.8673 231.944 64.7006 232.196 63.3193 232.196H63.2353V234.436H62.3673V232.14C60.594 231.972 59.1473 231.393 58.0273 230.404C56.9073 229.396 56.282 228.155 56.1513 226.68H58.8673C58.942 227.464 59.278 228.201 59.8753 228.892C60.4913 229.564 61.322 229.984 62.3673 230.152V222.984C60.93 222.555 59.81 222.172 59.0073 221.836C58.2233 221.481 57.5326 220.931 56.9353 220.184C56.3566 219.437 56.0673 218.439 56.0673 217.188C56.0673 216.161 56.3286 215.256 56.8513 214.472C57.374 213.688 58.1113 213.081 59.0633 212.652C60.0153 212.223 61.1166 212.008 62.3673 212.008V209.6H63.2353V212.036C64.9713 212.167 66.3526 212.699 67.3793 213.632C68.406 214.565 69.0126 215.695 69.1993 217.02H66.4553C66.3246 216.311 65.9886 215.676 65.4473 215.116C64.906 214.556 64.1686 214.201 63.2353 214.052V220.94ZM58.8113 217.076C58.8113 218.028 59.11 218.765 59.7073 219.288C60.3233 219.811 61.21 220.268 62.3673 220.66V213.996C61.2846 213.996 60.4166 214.267 59.7633 214.808C59.1286 215.331 58.8113 216.087 58.8113 217.076ZM63.2633 230.208C64.4206 230.208 65.3166 229.9 65.9513 229.284C66.586 228.668 66.9033 227.884 66.9033 226.932C66.9033 225.943 66.586 225.177 65.9513 224.636C65.3166 224.095 64.4113 223.637 63.2353 223.264V230.208H63.2633ZM78.2742 214.64V212.26H83.9302V232H81.2422V214.64H78.2742ZM98.6892 217.524C98.5399 216.348 98.1386 215.443 97.4852 214.808C96.8506 214.155 95.9639 213.828 94.8252 213.828C93.2386 213.828 92.0346 214.444 91.2132 215.676C90.4106 216.908 90.0092 218.859 90.0092 221.528L90.0372 222.564C90.3172 221.444 90.9612 220.557 91.9692 219.904C92.9772 219.232 94.1626 218.896 95.5252 218.896C97.4852 218.896 99.0159 219.484 100.117 220.66C101.237 221.836 101.797 223.479 101.797 225.588C101.797 226.82 101.555 227.94 101.069 228.948C100.584 229.937 99.8372 230.731 98.8292 231.328C97.8399 231.907 96.6079 232.196 95.1332 232.196C92.3146 232.196 90.3732 231.309 89.3092 229.536C88.2639 227.763 87.7412 225.355 87.7412 222.312C87.7412 218.803 88.3012 216.171 89.4212 214.416C90.5599 212.643 92.4079 211.756 94.9652 211.756C96.8506 211.756 98.2972 212.288 99.3052 213.352C100.332 214.416 100.939 215.807 101.125 217.524H98.6892ZM90.3172 225.168C90.3172 226.531 90.7092 227.679 91.4932 228.612C92.2959 229.527 93.4906 229.984 95.0772 229.984C96.3839 229.984 97.4292 229.601 98.2132 228.836C98.9972 228.052 99.3892 226.96 99.3892 225.56C99.3892 224.048 98.9972 222.9 98.2132 222.116C97.4292 221.313 96.3466 220.912 94.9652 220.912C94.1812 220.912 93.4346 221.071 92.7252 221.388C92.0159 221.705 91.4372 222.191 90.9892 222.844C90.5412 223.479 90.3172 224.253 90.3172 225.168ZM106.868 230.124C107.129 230.945 107.26 231.711 107.26 232.42C107.26 233.391 107.017 234.165 106.532 234.744C106.047 235.341 105.319 235.64 104.348 235.64V234.548C104.815 234.548 105.151 234.417 105.356 234.156C105.58 233.913 105.692 233.521 105.692 232.98V232.728H104.264V230.124H106.868ZM112.714 226.456C112.882 227.632 113.293 228.537 113.946 229.172C114.6 229.807 115.496 230.124 116.634 230.124C118.202 230.124 119.388 229.517 120.19 228.304C120.993 227.091 121.394 225.168 121.394 222.536C121.394 222.032 121.385 221.649 121.366 221.388C121.105 222.508 120.47 223.404 119.462 224.076C118.454 224.748 117.269 225.084 115.906 225.084C113.946 225.084 112.406 224.496 111.286 223.32C110.166 222.144 109.606 220.501 109.606 218.392C109.606 217.16 109.849 216.04 110.334 215.032C110.82 214.024 111.557 213.231 112.546 212.652C113.554 212.055 114.796 211.756 116.27 211.756C119.108 211.756 121.049 212.633 122.094 214.388C123.158 216.124 123.69 218.513 123.69 221.556C123.69 225.028 123.149 227.679 122.066 229.508C120.984 231.319 119.173 232.224 116.634 232.224C114.749 232.224 113.265 231.692 112.182 230.628C111.118 229.545 110.493 228.155 110.306 226.456H112.714ZM121.114 218.784C121.114 217.44 120.713 216.301 119.91 215.368C119.126 214.435 117.941 213.968 116.354 213.968C115.048 213.968 114.002 214.36 113.218 215.144C112.434 215.928 112.042 217.02 112.042 218.42C112.042 219.913 112.434 221.061 113.218 221.864C114.002 222.667 115.076 223.068 116.438 223.068C117.222 223.068 117.969 222.909 118.678 222.592C119.406 222.275 119.994 221.789 120.442 221.136C120.89 220.483 121.114 219.699 121.114 218.784ZM129.75 226.456C129.918 227.632 130.328 228.537 130.982 229.172C131.635 229.807 132.531 230.124 133.67 230.124C135.238 230.124 136.423 229.517 137.226 228.304C138.028 227.091 138.43 225.168 138.43 222.536C138.43 222.032 138.42 221.649 138.402 221.388C138.14 222.508 137.506 223.404 136.498 224.076C135.49 224.748 134.304 225.084 132.942 225.084C130.982 225.084 129.442 224.496 128.322 223.32C127.202 222.144 126.642 220.501 126.642 218.392C126.642 217.16 126.884 216.04 127.37 215.032C127.855 214.024 128.592 213.231 129.582 212.652C130.59 212.055 131.831 211.756 133.306 211.756C136.143 211.756 138.084 212.633 139.13 214.388C140.194 216.124 140.726 218.513 140.726 221.556C140.726 225.028 140.184 227.679 139.102 229.508C138.019 231.319 136.208 232.224 133.67 232.224C131.784 232.224 130.3 231.692 129.218 230.628C128.154 229.545 127.528 228.155 127.342 226.456H129.75ZM138.15 218.784C138.15 217.44 137.748 216.301 136.946 215.368C136.162 214.435 134.976 213.968 133.39 213.968C132.083 213.968 131.038 214.36 130.254 215.144C129.47 215.928 129.078 217.02 129.078 218.42C129.078 219.913 129.47 221.061 130.254 221.864C131.038 222.667 132.111 223.068 133.474 223.068C134.258 223.068 135.004 222.909 135.714 222.592C136.442 222.275 137.03 221.789 137.478 221.136C137.926 220.483 138.15 219.699 138.15 218.784Z" fill="white"/>
</svg>
