<svg width="176" height="51" viewBox="0 0 176 51" fill="none" xmlns="http://www.w3.org/2000/svg">
<rect width="176" height="51" rx="8" fill="white"/>
<path d="M63.1505 11.53C63.9105 11.53 64.5672 11.6733 65.1205 11.96C65.6805 12.24 66.1072 12.6433 66.4005 13.17C66.7005 13.6967 66.8505 14.3167 66.8505 15.03C66.8505 15.7433 66.7005 16.3633 66.4005 16.89C66.1072 17.41 65.6805 17.81 65.1205 18.09C64.5672 18.3633 63.9105 18.5 63.1505 18.5H60.9805V11.53H63.1505ZM63.1505 17.75C64.0505 17.75 64.7372 17.5133 65.2105 17.04C65.6838 16.56 65.9205 15.89 65.9205 15.03C65.9205 14.1633 65.6805 13.4867 65.2005 13C64.7272 12.5133 64.0438 12.27 63.1505 12.27H61.8905V17.75H63.1505ZM70.4408 18.59C69.9275 18.59 69.4608 18.4733 69.0408 18.24C68.6275 18.0067 68.3008 17.6767 68.0608 17.25C67.8275 16.8167 67.7108 16.3167 67.7108 15.75C67.7108 15.19 67.8308 14.6967 68.0708 14.27C68.3175 13.8367 68.6508 13.5067 69.0708 13.28C69.4908 13.0467 69.9608 12.93 70.4808 12.93C71.0008 12.93 71.4708 13.0467 71.8908 13.28C72.3108 13.5067 72.6408 13.8333 72.8808 14.26C73.1275 14.6867 73.2508 15.1833 73.2508 15.75C73.2508 16.3167 73.1242 16.8167 72.8708 17.25C72.6242 17.6767 72.2875 18.0067 71.8608 18.24C71.4342 18.4733 70.9608 18.59 70.4408 18.59ZM70.4408 17.79C70.7675 17.79 71.0742 17.7133 71.3608 17.56C71.6475 17.4067 71.8775 17.1767 72.0508 16.87C72.2308 16.5633 72.3208 16.19 72.3208 15.75C72.3208 15.31 72.2342 14.9367 72.0608 14.63C71.8875 14.3233 71.6608 14.0967 71.3808 13.95C71.1008 13.7967 70.7975 13.72 70.4708 13.72C70.1375 13.72 69.8308 13.7967 69.5508 13.95C69.2775 14.0967 69.0575 14.3233 68.8908 14.63C68.7242 14.9367 68.6408 15.31 68.6408 15.75C68.6408 16.1967 68.7208 16.5733 68.8808 16.88C69.0475 17.1867 69.2675 17.4167 69.5408 17.57C69.8142 17.7167 70.1142 17.79 70.4408 17.79ZM81.7473 13.02L80.0373 18.5H79.0973L77.7773 14.15L76.4573 18.5H75.5173L73.7973 13.02H74.7273L75.9873 17.62L77.3473 13.02H78.2773L79.6073 17.63L80.8473 13.02H81.7473ZM85.3204 12.92C85.9871 12.92 86.5271 13.1233 86.9404 13.53C87.3538 13.93 87.5604 14.51 87.5604 15.27V18.5H86.6604V15.4C86.6604 14.8533 86.5238 14.4367 86.2504 14.15C85.9771 13.8567 85.6038 13.71 85.1304 13.71C84.6504 13.71 84.2671 13.86 83.9804 14.16C83.7004 14.46 83.5604 14.8967 83.5604 15.47V18.5H82.6504V13.02H83.5604V13.8C83.7404 13.52 83.9838 13.3033 84.2904 13.15C84.6038 12.9967 84.9471 12.92 85.3204 12.92ZM89.9569 11.1V18.5H89.0469V11.1H89.9569ZM93.8979 18.59C93.3845 18.59 92.9179 18.4733 92.4979 18.24C92.0845 18.0067 91.7579 17.6767 91.5179 17.25C91.2845 16.8167 91.1679 16.3167 91.1679 15.75C91.1679 15.19 91.2879 14.6967 91.5279 14.27C91.7745 13.8367 92.1079 13.5067 92.5279 13.28C92.9479 13.0467 93.4179 12.93 93.9379 12.93C94.4579 12.93 94.9279 13.0467 95.3479 13.28C95.7679 13.5067 96.0979 13.8333 96.3379 14.26C96.5845 14.6867 96.7079 15.1833 96.7079 15.75C96.7079 16.3167 96.5812 16.8167 96.3279 17.25C96.0812 17.6767 95.7445 18.0067 95.3179 18.24C94.8912 18.4733 94.4179 18.59 93.8979 18.59ZM93.8979 17.79C94.2245 17.79 94.5312 17.7133 94.8179 17.56C95.1045 17.4067 95.3345 17.1767 95.5079 16.87C95.6879 16.5633 95.7779 16.19 95.7779 15.75C95.7779 15.31 95.6912 14.9367 95.5179 14.63C95.3445 14.3233 95.1179 14.0967 94.8379 13.95C94.5579 13.7967 94.2545 13.72 93.9279 13.72C93.5945 13.72 93.2879 13.7967 93.0079 13.95C92.7345 14.0967 92.5145 14.3233 92.3479 14.63C92.1812 14.9367 92.0979 15.31 92.0979 15.75C92.0979 16.1967 92.1779 16.5733 92.3379 16.88C92.5045 17.1867 92.7245 17.4167 92.9979 17.57C93.2712 17.7167 93.5712 17.79 93.8979 17.79ZM97.5643 15.74C97.5643 15.18 97.6777 14.69 97.9043 14.27C98.131 13.8433 98.441 13.5133 98.8343 13.28C99.2343 13.0467 99.6777 12.93 100.164 12.93C100.644 12.93 101.061 13.0333 101.414 13.24C101.768 13.4467 102.031 13.7067 102.204 14.02V13.02H103.124V18.5H102.204V17.48C102.024 17.8 101.754 18.0667 101.394 18.28C101.041 18.4867 100.628 18.59 100.154 18.59C99.6677 18.59 99.2277 18.47 98.8343 18.23C98.441 17.99 98.131 17.6533 97.9043 17.22C97.6777 16.7867 97.5643 16.2933 97.5643 15.74ZM102.204 15.75C102.204 15.3367 102.121 14.9767 101.954 14.67C101.788 14.3633 101.561 14.13 101.274 13.97C100.994 13.8033 100.684 13.72 100.344 13.72C100.004 13.72 99.6943 13.8 99.4143 13.96C99.1343 14.12 98.911 14.3533 98.7443 14.66C98.5777 14.9667 98.4943 15.3267 98.4943 15.74C98.4943 16.16 98.5777 16.5267 98.7443 16.84C98.911 17.1467 99.1343 17.3833 99.4143 17.55C99.6943 17.71 100.004 17.79 100.344 17.79C100.684 17.79 100.994 17.71 101.274 17.55C101.561 17.3833 101.788 17.1467 101.954 16.84C102.121 16.5267 102.204 16.1633 102.204 15.75ZM104.322 15.74C104.322 15.18 104.435 14.69 104.662 14.27C104.889 13.8433 105.199 13.5133 105.592 13.28C105.992 13.0467 106.439 12.93 106.932 12.93C107.359 12.93 107.755 13.03 108.122 13.23C108.489 13.4233 108.769 13.68 108.962 14V11.1H109.882V18.5H108.962V17.47C108.782 17.7967 108.515 18.0667 108.162 18.28C107.809 18.4867 107.395 18.59 106.922 18.59C106.435 18.59 105.992 18.47 105.592 18.23C105.199 17.99 104.889 17.6533 104.662 17.22C104.435 16.7867 104.322 16.2933 104.322 15.74ZM108.962 15.75C108.962 15.3367 108.879 14.9767 108.712 14.67C108.545 14.3633 108.319 14.13 108.032 13.97C107.752 13.8033 107.442 13.72 107.102 13.72C106.762 13.72 106.452 13.8 106.172 13.96C105.892 14.12 105.669 14.3533 105.502 14.66C105.335 14.9667 105.252 15.3267 105.252 15.74C105.252 16.16 105.335 16.5267 105.502 16.84C105.669 17.1467 105.892 17.3833 106.172 17.55C106.452 17.71 106.762 17.79 107.102 17.79C107.442 17.79 107.752 17.71 108.032 17.55C108.319 17.3833 108.545 17.1467 108.712 16.84C108.879 16.5267 108.962 16.1633 108.962 15.75ZM116.476 18.59C115.963 18.59 115.496 18.4733 115.076 18.24C114.663 18.0067 114.336 17.6767 114.096 17.25C113.863 16.8167 113.746 16.3167 113.746 15.75C113.746 15.19 113.866 14.6967 114.106 14.27C114.353 13.8367 114.686 13.5067 115.106 13.28C115.526 13.0467 115.996 12.93 116.516 12.93C117.036 12.93 117.506 13.0467 117.926 13.28C118.346 13.5067 118.676 13.8333 118.916 14.26C119.163 14.6867 119.286 15.1833 119.286 15.75C119.286 16.3167 119.159 16.8167 118.906 17.25C118.659 17.6767 118.323 18.0067 117.896 18.24C117.469 18.4733 116.996 18.59 116.476 18.59ZM116.476 17.79C116.803 17.79 117.109 17.7133 117.396 17.56C117.683 17.4067 117.913 17.1767 118.086 16.87C118.266 16.5633 118.356 16.19 118.356 15.75C118.356 15.31 118.269 14.9367 118.096 14.63C117.923 14.3233 117.696 14.0967 117.416 13.95C117.136 13.7967 116.833 13.72 116.506 13.72C116.173 13.72 115.866 13.7967 115.586 13.95C115.313 14.0967 115.093 14.3233 114.926 14.63C114.759 14.9367 114.676 15.31 114.676 15.75C114.676 16.1967 114.756 16.5733 114.916 16.88C115.083 17.1867 115.303 17.4167 115.576 17.57C115.849 17.7167 116.149 17.79 116.476 17.79ZM123.152 12.92C123.819 12.92 124.359 13.1233 124.772 13.53C125.186 13.93 125.392 14.51 125.392 15.27V18.5H124.492V15.4C124.492 14.8533 124.356 14.4367 124.082 14.15C123.809 13.8567 123.436 13.71 122.962 13.71C122.482 13.71 122.099 13.86 121.812 14.16C121.532 14.46 121.392 14.8967 121.392 15.47V18.5H120.482V13.02H121.392V13.8C121.572 13.52 121.816 13.3033 122.122 13.15C122.436 12.9967 122.779 12.92 123.152 12.92ZM130.655 13.77V17C130.655 17.2667 130.712 17.4567 130.825 17.57C130.938 17.6767 131.135 17.73 131.415 17.73H132.085V18.5H131.265C130.758 18.5 130.378 18.3833 130.125 18.15C129.872 17.9167 129.745 17.5333 129.745 17V13.77H129.035V13.02H129.745V11.64H130.655V13.02H132.085V13.77H130.655ZM135.908 12.92C136.321 12.92 136.694 13.01 137.028 13.19C137.361 13.3633 137.621 13.6267 137.808 13.98C138.001 14.3333 138.098 14.7633 138.098 15.27V18.5H137.198V15.4C137.198 14.8533 137.061 14.4367 136.788 14.15C136.514 13.8567 136.141 13.71 135.668 13.71C135.188 13.71 134.804 13.86 134.518 14.16C134.238 14.46 134.098 14.8967 134.098 15.47V18.5H133.188V11.1H134.098V13.8C134.278 13.52 134.524 13.3033 134.838 13.15C135.158 12.9967 135.514 12.92 135.908 12.92ZM144.584 15.55C144.584 15.7233 144.574 15.9067 144.554 16.1H140.174C140.207 16.64 140.391 17.0633 140.724 17.37C141.064 17.67 141.474 17.82 141.954 17.82C142.347 17.82 142.674 17.73 142.934 17.55C143.201 17.3633 143.387 17.1167 143.494 16.81H144.474C144.327 17.3367 144.034 17.7667 143.594 18.1C143.154 18.4267 142.607 18.59 141.954 18.59C141.434 18.59 140.967 18.4733 140.554 18.24C140.147 18.0067 139.827 17.6767 139.594 17.25C139.361 16.8167 139.244 16.3167 139.244 15.75C139.244 15.1833 139.357 14.6867 139.584 14.26C139.811 13.8333 140.127 13.5067 140.534 13.28C140.947 13.0467 141.421 12.93 141.954 12.93C142.474 12.93 142.934 13.0433 143.334 13.27C143.734 13.4967 144.041 13.81 144.254 14.21C144.474 14.6033 144.584 15.05 144.584 15.55ZM143.644 15.36C143.644 15.0133 143.567 14.7167 143.414 14.47C143.261 14.2167 143.051 14.0267 142.784 13.9C142.524 13.7667 142.234 13.7 141.914 13.7C141.454 13.7 141.061 13.8467 140.734 14.14C140.414 14.4333 140.231 14.84 140.184 15.36H143.644Z" fill="#2A2B3C"/>
<path d="M69.0125 34.46H63.5405L62.5325 37.25H60.8045L65.3405 24.776H67.2305L71.7485 37.25H70.0205L69.0125 34.46ZM68.5445 33.128L66.2765 26.792L64.0085 33.128H68.5445ZM75.3634 29.204C75.6874 28.64 76.1674 28.172 76.8034 27.8C77.4514 27.416 78.2014 27.224 79.0534 27.224C79.9294 27.224 80.7214 27.434 81.4294 27.854C82.1494 28.274 82.7134 28.868 83.1214 29.636C83.5294 30.392 83.7334 31.274 83.7334 32.282C83.7334 33.278 83.5294 34.166 83.1214 34.946C82.7134 35.726 82.1494 36.332 81.4294 36.764C80.7214 37.196 79.9294 37.412 79.0534 37.412C78.2134 37.412 77.4694 37.226 76.8214 36.854C76.1854 36.47 75.6994 35.996 75.3634 35.432V41.93H73.7254V27.386H75.3634V29.204ZM82.0594 32.282C82.0594 31.538 81.9094 30.89 81.6094 30.338C81.3094 29.786 80.9014 29.366 80.3854 29.078C79.8814 28.79 79.3234 28.646 78.7114 28.646C78.1114 28.646 77.5534 28.796 77.0374 29.096C76.5334 29.384 76.1254 29.81 75.8134 30.374C75.5134 30.926 75.3634 31.568 75.3634 32.3C75.3634 33.044 75.5134 33.698 75.8134 34.262C76.1254 34.814 76.5334 35.24 77.0374 35.54C77.5534 35.828 78.1114 35.972 78.7114 35.972C79.3234 35.972 79.8814 35.828 80.3854 35.54C80.9014 35.24 81.3094 34.814 81.6094 34.262C81.9094 33.698 82.0594 33.038 82.0594 32.282ZM87.5274 29.204C87.8514 28.64 88.3314 28.172 88.9674 27.8C89.6154 27.416 90.3654 27.224 91.2174 27.224C92.0934 27.224 92.8854 27.434 93.5934 27.854C94.3134 28.274 94.8774 28.868 95.2854 29.636C95.6934 30.392 95.8974 31.274 95.8974 32.282C95.8974 33.278 95.6934 34.166 95.2854 34.946C94.8774 35.726 94.3134 36.332 93.5934 36.764C92.8854 37.196 92.0934 37.412 91.2174 37.412C90.3774 37.412 89.6334 37.226 88.9854 36.854C88.3494 36.47 87.8634 35.996 87.5274 35.432V41.93H85.8894V27.386H87.5274V29.204ZM94.2234 32.282C94.2234 31.538 94.0734 30.89 93.7734 30.338C93.4734 29.786 93.0654 29.366 92.5494 29.078C92.0454 28.79 91.4874 28.646 90.8754 28.646C90.2754 28.646 89.7174 28.796 89.2014 29.096C88.6974 29.384 88.2894 29.81 87.9774 30.374C87.6774 30.926 87.5274 31.568 87.5274 32.3C87.5274 33.044 87.6774 33.698 87.9774 34.262C88.2894 34.814 88.6974 35.24 89.2014 35.54C89.7174 35.828 90.2754 35.972 90.8754 35.972C91.4874 35.972 92.0454 35.828 92.5494 35.54C93.0654 35.24 93.4734 34.814 93.7734 34.262C94.0734 33.698 94.2234 33.038 94.2234 32.282ZM106.83 37.376C106.002 37.376 105.258 37.232 104.598 36.944C103.95 36.644 103.44 36.236 103.068 35.72C102.696 35.192 102.504 34.586 102.492 33.902H104.238C104.298 34.49 104.538 34.988 104.958 35.396C105.39 35.792 106.014 35.99 106.83 35.99C107.61 35.99 108.222 35.798 108.666 35.414C109.122 35.018 109.35 34.514 109.35 33.902C109.35 33.422 109.218 33.032 108.954 32.732C108.69 32.432 108.36 32.204 107.964 32.048C107.568 31.892 107.034 31.724 106.362 31.544C105.534 31.328 104.868 31.112 104.364 30.896C103.872 30.68 103.446 30.344 103.086 29.888C102.738 29.42 102.564 28.796 102.564 28.016C102.564 27.332 102.738 26.726 103.086 26.198C103.434 25.67 103.92 25.262 104.544 24.974C105.18 24.686 105.906 24.542 106.722 24.542C107.898 24.542 108.858 24.836 109.602 25.424C110.358 26.012 110.784 26.792 110.88 27.764H109.08C109.02 27.284 108.768 26.864 108.324 26.504C107.88 26.132 107.292 25.946 106.56 25.946C105.876 25.946 105.318 26.126 104.886 26.486C104.454 26.834 104.238 27.326 104.238 27.962C104.238 28.418 104.364 28.79 104.616 29.078C104.88 29.366 105.198 29.588 105.57 29.744C105.954 29.888 106.488 30.056 107.172 30.248C108 30.476 108.666 30.704 109.17 30.932C109.674 31.148 110.106 31.49 110.466 31.958C110.826 32.414 111.006 33.038 111.006 33.83C111.006 34.442 110.844 35.018 110.52 35.558C110.196 36.098 109.716 36.536 109.08 36.872C108.444 37.208 107.694 37.376 106.83 37.376ZM115.415 28.736V34.55C115.415 35.03 115.517 35.372 115.721 35.576C115.925 35.768 116.279 35.864 116.783 35.864H117.989V37.25H116.513C115.601 37.25 114.917 37.04 114.461 36.62C114.005 36.2 113.777 35.51 113.777 34.55V28.736H112.499V27.386H113.777V24.902H115.415V27.386H117.989V28.736H115.415ZM124.275 37.412C123.351 37.412 122.511 37.202 121.755 36.782C121.011 36.362 120.423 35.768 119.991 35C119.571 34.22 119.361 33.32 119.361 32.3C119.361 31.292 119.577 30.404 120.009 29.636C120.453 28.856 121.053 28.262 121.809 27.854C122.565 27.434 123.411 27.224 124.347 27.224C125.283 27.224 126.129 27.434 126.885 27.854C127.641 28.262 128.235 28.85 128.667 29.618C129.111 30.386 129.333 31.28 129.333 32.3C129.333 33.32 129.105 34.22 128.649 35C128.205 35.768 127.599 36.362 126.831 36.782C126.063 37.202 125.211 37.412 124.275 37.412ZM124.275 35.972C124.863 35.972 125.415 35.834 125.931 35.558C126.447 35.282 126.861 34.868 127.173 34.316C127.497 33.764 127.659 33.092 127.659 32.3C127.659 31.508 127.503 30.836 127.191 30.284C126.879 29.732 126.471 29.324 125.967 29.06C125.463 28.784 124.917 28.646 124.329 28.646C123.729 28.646 123.177 28.784 122.673 29.06C122.181 29.324 121.785 29.732 121.485 30.284C121.185 30.836 121.035 31.508 121.035 32.3C121.035 33.104 121.179 33.782 121.467 34.334C121.767 34.886 122.163 35.3 122.655 35.576C123.147 35.84 123.687 35.972 124.275 35.972ZM133.125 28.988C133.413 28.424 133.821 27.986 134.349 27.674C134.889 27.362 135.543 27.206 136.311 27.206V28.898H135.879C134.043 28.898 133.125 29.894 133.125 31.886V37.25H131.487V27.386H133.125V28.988ZM147.202 31.94C147.202 32.252 147.184 32.582 147.148 32.93H139.264C139.324 33.902 139.654 34.664 140.254 35.216C140.866 35.756 141.604 36.026 142.468 36.026C143.176 36.026 143.764 35.864 144.232 35.54C144.712 35.204 145.048 34.76 145.24 34.208H147.004C146.74 35.156 146.212 35.93 145.42 36.53C144.628 37.118 143.644 37.412 142.468 37.412C141.532 37.412 140.692 37.202 139.948 36.782C139.216 36.362 138.64 35.768 138.22 35C137.8 34.22 137.59 33.32 137.59 32.3C137.59 31.28 137.794 30.386 138.202 29.618C138.61 28.85 139.18 28.262 139.912 27.854C140.656 27.434 141.508 27.224 142.468 27.224C143.404 27.224 144.232 27.428 144.952 27.836C145.672 28.244 146.224 28.808 146.608 29.528C147.004 30.236 147.202 31.04 147.202 31.94ZM145.51 31.598C145.51 30.974 145.372 30.44 145.096 29.996C144.82 29.54 144.442 29.198 143.962 28.97C143.494 28.73 142.972 28.61 142.396 28.61C141.568 28.61 140.86 28.874 140.272 29.402C139.696 29.93 139.366 30.662 139.282 31.598H145.51Z" fill="#2A2B3C"/>
<g clip-path="url(#clip0)">
<path d="M45.7334 33.5719C45.2345 34.5816 44.6439 35.511 43.9596 36.3655C43.0269 37.5304 42.2633 38.3367 41.6747 38.7845C40.7624 39.5194 39.7849 39.8958 38.7382 39.9172C37.9867 39.9172 37.0805 39.7299 36.0256 39.35C34.9673 38.9718 33.9946 38.7845 33.1053 38.7845C32.1726 38.7845 31.1723 38.9718 30.1024 39.35C29.0308 39.7299 28.1675 39.928 27.5075 39.9476C26.5037 39.985 25.5032 39.5979 24.5046 38.7845C23.8671 38.2975 23.0699 37.4626 22.1148 36.2799C21.09 35.0169 20.2475 33.5523 19.5875 31.8826C18.8807 30.0791 18.5263 28.3326 18.5263 26.6418C18.5263 24.7051 19.0041 23.0346 19.961 21.6348C20.7131 20.5104 21.7136 19.6235 22.9658 18.9723C24.218 18.3212 25.571 17.9894 27.0281 17.9682C27.8254 17.9682 28.8709 18.1842 30.1702 18.6088C31.4658 19.0348 32.2977 19.2508 32.6624 19.2508C32.9351 19.2508 33.8592 18.9982 35.4259 18.4946C36.9074 18.0276 38.1578 17.8342 39.1821 17.9104C41.9578 18.1066 44.0431 19.0651 45.43 20.7919C42.9475 22.1095 41.7195 23.9549 41.744 26.3223C41.7664 28.1664 42.53 29.7009 44.0309 30.9193C44.7111 31.4848 45.4707 31.9218 46.3158 32.2322C46.1325 32.6978 45.9391 33.1438 45.7334 33.5719V33.5719ZM39.3674 11.6282C39.3674 13.0735 38.7646 14.423 37.5631 15.6721C36.1132 17.157 34.3594 18.0151 32.4575 17.8797C32.4333 17.7063 32.4192 17.5238 32.4192 17.332C32.4192 15.9445 33.1088 14.4596 34.3333 13.2455C34.9446 12.6308 35.7222 12.1196 36.665 11.7119C37.6059 11.3102 38.4958 11.0881 39.3328 11.05C39.3572 11.2433 39.3674 11.4365 39.3674 11.6282V11.6282Z" fill="black"/>
</g>
<defs>
<clipPath id="clip0">
<rect width="37.0526" height="34" fill="white" transform="translate(13.8947 8.5)"/>
</clipPath>
</defs>
</svg>
