<svg width="176" height="51" viewBox="0 0 176 51" fill="none" xmlns="http://www.w3.org/2000/svg">
<rect width="176" height="51" rx="8" fill="white"/>
<path d="M64.89 32.09C64.542 31.358 64.038 30.794 63.378 30.398C62.718 29.99 61.95 29.786 61.074 29.786C60.198 29.786 59.406 29.99 58.698 30.398C58.002 30.794 57.45 31.37 57.042 32.126C56.646 32.87 56.448 33.734 56.448 34.718C56.448 35.702 56.646 36.566 57.042 37.31C57.45 38.054 58.002 38.63 58.698 39.038C59.406 39.434 60.198 39.632 61.074 39.632C62.298 39.632 63.306 39.266 64.098 38.534C64.89 37.802 65.352 36.812 65.484 35.564H60.48V34.232H67.23V35.492C67.134 36.524 66.81 37.472 66.258 38.336C65.706 39.188 64.98 39.866 64.08 40.37C63.18 40.862 62.178 41.108 61.074 41.108C59.91 41.108 58.848 40.838 57.888 40.298C56.928 39.746 56.166 38.984 55.602 38.012C55.05 37.04 54.774 35.942 54.774 34.718C54.774 33.494 55.05 32.396 55.602 31.424C56.166 30.44 56.928 29.678 57.888 29.138C58.848 28.586 59.91 28.31 61.074 28.31C62.406 28.31 63.582 28.64 64.602 29.3C65.634 29.96 66.384 30.89 66.852 32.09H64.89ZM73.6978 41.162C72.7738 41.162 71.9338 40.952 71.1778 40.532C70.4338 40.112 69.8458 39.518 69.4138 38.75C68.9938 37.97 68.7838 37.07 68.7838 36.05C68.7838 35.042 68.9998 34.154 69.4318 33.386C69.8758 32.606 70.4758 32.012 71.2318 31.604C71.9878 31.184 72.8338 30.974 73.7698 30.974C74.7058 30.974 75.5518 31.184 76.3078 31.604C77.0638 32.012 77.6578 32.6 78.0898 33.368C78.5338 34.136 78.7558 35.03 78.7558 36.05C78.7558 37.07 78.5278 37.97 78.0718 38.75C77.6278 39.518 77.0218 40.112 76.2538 40.532C75.4858 40.952 74.6338 41.162 73.6978 41.162ZM73.6978 39.722C74.2858 39.722 74.8378 39.584 75.3538 39.308C75.8698 39.032 76.2838 38.618 76.5958 38.066C76.9198 37.514 77.0818 36.842 77.0818 36.05C77.0818 35.258 76.9258 34.586 76.6138 34.034C76.3018 33.482 75.8938 33.074 75.3898 32.81C74.8858 32.534 74.3398 32.396 73.7518 32.396C73.1518 32.396 72.5998 32.534 72.0958 32.81C71.6038 33.074 71.2078 33.482 70.9078 34.034C70.6078 34.586 70.4578 35.258 70.4578 36.05C70.4578 36.854 70.6018 37.532 70.8898 38.084C71.1898 38.636 71.5858 39.05 72.0778 39.326C72.5698 39.59 73.1098 39.722 73.6978 39.722ZM80.2974 34.718C80.2974 33.494 80.5734 32.396 81.1254 31.424C81.6774 30.44 82.4274 29.672 83.3754 29.12C84.3354 28.568 85.3974 28.292 86.5614 28.292C87.9294 28.292 89.1234 28.622 90.1434 29.282C91.1634 29.942 91.9074 30.878 92.3754 32.09H90.4134C90.0654 31.334 89.5614 30.752 88.9014 30.344C88.2534 29.936 87.4734 29.732 86.5614 29.732C85.6854 29.732 84.8994 29.936 84.2034 30.344C83.5074 30.752 82.9614 31.334 82.5654 32.09C82.1694 32.834 81.9714 33.71 81.9714 34.718C81.9714 35.714 82.1694 36.59 82.5654 37.346C82.9614 38.09 83.5074 38.666 84.2034 39.074C84.8994 39.482 85.6854 39.686 86.5614 39.686C87.4734 39.686 88.2534 39.488 88.9014 39.092C89.5614 38.684 90.0654 38.102 90.4134 37.346H92.3754C91.9074 38.546 91.1634 39.476 90.1434 40.136C89.1234 40.784 87.9294 41.108 86.5614 41.108C85.3974 41.108 84.3354 40.838 83.3754 40.298C82.4274 39.746 81.6774 38.984 81.1254 38.012C80.5734 37.04 80.2974 35.942 80.2974 34.718ZM103.814 35.69C103.814 36.002 103.796 36.332 103.76 36.68H95.8757C95.9357 37.652 96.2657 38.414 96.8657 38.966C97.4777 39.506 98.2157 39.776 99.0797 39.776C99.7877 39.776 100.376 39.614 100.844 39.29C101.324 38.954 101.66 38.51 101.852 37.958H103.616C103.352 38.906 102.824 39.68 102.032 40.28C101.24 40.868 100.256 41.162 99.0797 41.162C98.1437 41.162 97.3037 40.952 96.5597 40.532C95.8277 40.112 95.2517 39.518 94.8317 38.75C94.4117 37.97 94.2017 37.07 94.2017 36.05C94.2017 35.03 94.4057 34.136 94.8137 33.368C95.2217 32.6 95.7917 32.012 96.5237 31.604C97.2677 31.184 98.1197 30.974 99.0797 30.974C100.016 30.974 100.844 31.178 101.564 31.586C102.284 31.994 102.836 32.558 103.22 33.278C103.616 33.986 103.814 34.79 103.814 35.69ZM102.122 35.348C102.122 34.724 101.984 34.19 101.708 33.746C101.432 33.29 101.054 32.948 100.574 32.72C100.106 32.48 99.5837 32.36 99.0077 32.36C98.1797 32.36 97.4717 32.624 96.8837 33.152C96.3077 33.68 95.9777 34.412 95.8937 35.348H102.122ZM107.614 27.68V41H105.976V27.68H107.614ZM112.044 27.68V41H110.406V27.68H112.044ZM114.223 36.032C114.223 35.024 114.427 34.142 114.835 33.386C115.243 32.618 115.801 32.024 116.509 31.604C117.229 31.184 118.027 30.974 118.903 30.974C119.767 30.974 120.517 31.16 121.153 31.532C121.789 31.904 122.263 32.372 122.575 32.936V31.136H124.231V41H122.575V39.164C122.251 39.74 121.765 40.22 121.117 40.604C120.481 40.976 119.737 41.162 118.885 41.162C118.009 41.162 117.217 40.946 116.509 40.514C115.801 40.082 115.243 39.476 114.835 38.696C114.427 37.916 114.223 37.028 114.223 36.032ZM122.575 36.05C122.575 35.306 122.425 34.658 122.125 34.106C121.825 33.554 121.417 33.134 120.901 32.846C120.397 32.546 119.839 32.396 119.227 32.396C118.615 32.396 118.057 32.54 117.553 32.828C117.049 33.116 116.647 33.536 116.347 34.088C116.047 34.64 115.897 35.288 115.897 36.032C115.897 36.788 116.047 37.448 116.347 38.012C116.647 38.564 117.049 38.99 117.553 39.29C118.057 39.578 118.615 39.722 119.227 39.722C119.839 39.722 120.397 39.578 120.901 39.29C121.417 38.99 121.825 38.564 122.125 38.012C122.425 37.448 122.575 36.794 122.575 36.05ZM128.637 32.738C128.925 32.174 129.333 31.736 129.861 31.424C130.401 31.112 131.055 30.956 131.823 30.956V32.648H131.391C129.555 32.648 128.637 33.644 128.637 35.636V41H126.999V31.136H128.637V32.738Z" fill="black"/>
<path fill-rule="evenodd" clip-rule="evenodd" d="M33.9308 45.2327C32.6156 43.4492 32.6575 40.9402 34.0566 39.203C32.3737 40.6472 29.9433 40.6905 28.2156 39.3328C29.5308 41.1163 29.4889 43.6253 28.0898 45.3626C29.7727 43.9183 32.2031 43.875 33.9308 45.2327ZM40.5146 38.4361C38.787 37.0784 36.3565 37.1217 34.6736 38.566C36.0727 36.8287 36.1146 34.3197 34.7994 32.5362C36.5271 33.8939 38.9575 33.8506 40.6404 32.4064C39.2414 34.1436 39.1994 36.6526 40.5146 38.4361ZM47.0985 31.6395C45.7833 29.856 45.8252 27.347 47.2242 25.6098C45.5414 27.054 43.1109 27.0973 41.3833 25.7396C42.6985 27.5231 42.6565 30.0321 41.2575 31.7694C42.9403 30.3251 45.3708 30.2818 47.0985 31.6395ZM27.3147 38.4028C25.9995 36.6193 26.0414 34.1103 27.4404 32.3731C25.7576 33.8173 23.3271 33.8606 21.5995 32.5029C22.9147 34.2864 22.8727 36.7954 21.4737 38.5326C23.1566 37.0884 25.587 37.0451 27.3147 38.4028ZM33.8985 31.6062C32.1708 30.2485 29.7404 30.2918 28.0575 31.736C29.4566 29.9988 29.4985 27.4898 28.1833 25.7063C29.911 27.064 32.3414 27.0207 34.0243 25.5765C32.6252 27.3137 32.5833 29.8227 33.8985 31.6062ZM40.4823 24.8096C39.1671 23.0261 39.2091 20.5171 40.6081 18.7799C38.9253 20.2241 36.4948 20.2674 34.7671 18.9097C36.0823 20.6932 36.0404 23.2022 34.6414 24.9394C36.3242 23.4952 38.7547 23.4519 40.4823 24.8096ZM20.6985 31.5729C19.3834 29.7894 19.4253 27.2804 20.8243 25.5431C19.1415 26.9874 16.711 27.0307 14.9834 25.673C16.2985 27.4565 16.2566 29.9655 14.8576 31.7027C16.5404 30.2585 18.9709 30.2152 20.6985 31.5729ZM27.2824 24.7763C25.5547 23.4186 23.1243 23.4619 21.4414 24.9061C22.8404 23.1689 22.8824 20.6599 21.5672 18.8764C23.2949 20.2341 25.7253 20.1908 27.4082 18.7465C26.0091 20.4838 25.9672 22.9928 27.2824 24.7763ZM33.8662 17.9797C32.551 16.1962 32.593 13.6872 33.992 11.9499C32.3091 13.3942 29.8787 13.4375 28.151 12.0798C29.4662 13.8633 29.4243 16.3723 28.0252 18.1095C29.7081 16.6653 32.1385 16.622 33.8662 17.9797Z" fill="#ED8A68"/>
<path d="M37.6666 25.1968C35.9069 25.2134 34.4207 26.5514 34.306 28.4604C34.184 30.492 35.7939 32.1619 37.6666 32.1796C39.5555 32.1975 41.2091 30.5096 41.0861 28.4604C40.9704 26.5327 39.4435 25.1801 37.6666 25.1968Z" fill="#ED8A68"/>
<path d="M24.3869 25.1876C22.6155 25.204 21.1195 26.5334 21.0041 28.43C20.8813 30.4485 22.5018 32.1075 24.3869 32.1251C25.2256 32.1329 26.0183 31.811 26.6317 31.274C26.7853 31.1395 26.9277 30.9915 27.0567 30.8318C27.3144 30.5129 27.0705 30.0695 26.68 30.0695C26.3888 30.0695 26.1527 29.8131 26.1527 29.4968V29.0724C26.1527 28.7176 26.4175 28.43 26.7441 28.43H28.7019C29.0177 28.43 29.2289 28.6996 29.2063 29.0418V29.0418C29.4319 28.0247 29.192 26.96 28.552 26.138L28.4391 25.993L27.6228 25.0687C27.7927 25.3114 27.7426 25.6682 27.5123 25.8745L27.3593 26.0114C27.1501 26.1987 26.8454 26.1743 26.6317 25.993C26.022 25.476 25.2326 25.1798 24.3869 25.1876Z" fill="#ED8A68"/>
<path d="M58.8813 20.07C58.2347 20.07 57.6447 19.92 57.1113 19.62C56.578 19.3133 56.1547 18.89 55.8413 18.35C55.5347 17.8033 55.3813 17.19 55.3813 16.51C55.3813 15.83 55.5347 15.22 55.8413 14.68C56.1547 14.1333 56.578 13.71 57.1113 13.41C57.6447 13.1033 58.2347 12.95 58.8813 12.95C59.5347 12.95 60.128 13.1033 60.6613 13.41C61.1947 13.71 61.6147 14.13 61.9213 14.67C62.228 15.21 62.3813 15.8233 62.3813 16.51C62.3813 17.1967 62.228 17.81 61.9213 18.35C61.6147 18.89 61.1947 19.3133 60.6613 19.62C60.128 19.92 59.5347 20.07 58.8813 20.07ZM58.8813 19.28C59.368 19.28 59.8047 19.1667 60.1913 18.94C60.5847 18.7133 60.8913 18.39 61.1113 17.97C61.338 17.55 61.4513 17.0633 61.4513 16.51C61.4513 15.95 61.338 15.4633 61.1113 15.05C60.8913 14.63 60.588 14.3067 60.2013 14.08C59.8147 13.8533 59.3747 13.74 58.8813 13.74C58.388 13.74 57.948 13.8533 57.5613 14.08C57.1747 14.3067 56.868 14.63 56.6413 15.05C56.4213 15.4633 56.3113 15.95 56.3113 16.51C56.3113 17.0633 56.4213 17.55 56.6413 17.97C56.868 18.39 57.1747 18.7133 57.5613 18.94C57.9547 19.1667 58.3947 19.28 58.8813 19.28ZM69.0627 20H68.1527L64.4927 14.45V20H63.5827V13.02H64.4927L68.1527 18.56V13.02H69.0627V20ZM71.5239 19.26H73.9639V20H70.6139V13.03H71.5239V19.26ZM75.8403 13.03V20H74.9303V13.03H75.8403ZM82.8712 20H81.9612L78.3012 14.45V20H77.3912V13.02H78.3012L81.9612 18.56V13.02H82.8712V20ZM85.3325 13.77V16.1H87.8725V16.85H85.3325V19.25H88.1725V20H84.4225V13.02H88.1725V13.77H85.3325ZM94.4255 20.07C93.9655 20.07 93.5521 19.99 93.1855 19.83C92.8255 19.6633 92.5421 19.4367 92.3355 19.15C92.1288 18.8567 92.0221 18.52 92.0155 18.14H92.9855C93.0188 18.4667 93.1521 18.7433 93.3855 18.97C93.6255 19.19 93.9721 19.3 94.4255 19.3C94.8588 19.3 95.1988 19.1933 95.4455 18.98C95.6988 18.76 95.8255 18.48 95.8255 18.14C95.8255 17.8733 95.7521 17.6567 95.6055 17.49C95.4588 17.3233 95.2755 17.1967 95.0555 17.11C94.8355 17.0233 94.5388 16.93 94.1655 16.83C93.7055 16.71 93.3355 16.59 93.0555 16.47C92.7821 16.35 92.5455 16.1633 92.3455 15.91C92.1521 15.65 92.0555 15.3033 92.0555 14.87C92.0555 14.49 92.1521 14.1533 92.3455 13.86C92.5388 13.5667 92.8088 13.34 93.1555 13.18C93.5088 13.02 93.9121 12.94 94.3655 12.94C95.0188 12.94 95.5521 13.1033 95.9655 13.43C96.3855 13.7567 96.6221 14.19 96.6755 14.73H95.6755C95.6421 14.4633 95.5021 14.23 95.2555 14.03C95.0088 13.8233 94.6821 13.72 94.2755 13.72C93.8955 13.72 93.5855 13.82 93.3455 14.02C93.1055 14.2133 92.9855 14.4867 92.9855 14.84C92.9855 15.0933 93.0555 15.3 93.1955 15.46C93.3421 15.62 93.5188 15.7433 93.7255 15.83C93.9388 15.91 94.2355 16.0033 94.6155 16.11C95.0755 16.2367 95.4455 16.3633 95.7255 16.49C96.0055 16.61 96.2455 16.8 96.4455 17.06C96.6455 17.3133 96.7455 17.66 96.7455 18.1C96.7455 18.44 96.6555 18.76 96.4755 19.06C96.2955 19.36 96.0288 19.6033 95.6755 19.79C95.3221 19.9767 94.9055 20.07 94.4255 20.07ZM103.455 13.03V20H102.545V16.84H98.9946V20H98.0846V13.03H98.9946V16.09H102.545V13.03H103.455ZM108.168 20.07C107.522 20.07 106.932 19.92 106.398 19.62C105.865 19.3133 105.442 18.89 105.128 18.35C104.822 17.8033 104.668 17.19 104.668 16.51C104.668 15.83 104.822 15.22 105.128 14.68C105.442 14.1333 105.865 13.71 106.398 13.41C106.932 13.1033 107.522 12.95 108.168 12.95C108.822 12.95 109.415 13.1033 109.948 13.41C110.482 13.71 110.902 14.13 111.208 14.67C111.515 15.21 111.668 15.8233 111.668 16.51C111.668 17.1967 111.515 17.81 111.208 18.35C110.902 18.89 110.482 19.3133 109.948 19.62C109.415 19.92 108.822 20.07 108.168 20.07ZM108.168 19.28C108.655 19.28 109.092 19.1667 109.478 18.94C109.872 18.7133 110.178 18.39 110.398 17.97C110.625 17.55 110.738 17.0633 110.738 16.51C110.738 15.95 110.625 15.4633 110.398 15.05C110.178 14.63 109.875 14.3067 109.488 14.08C109.102 13.8533 108.662 13.74 108.168 13.74C107.675 13.74 107.235 13.8533 106.848 14.08C106.462 14.3067 106.155 14.63 105.928 15.05C105.708 15.4633 105.598 15.95 105.598 16.51C105.598 17.0633 105.708 17.55 105.928 17.97C106.155 18.39 106.462 18.7133 106.848 18.94C107.242 19.1667 107.682 19.28 108.168 19.28ZM117.53 15.07C117.53 15.65 117.33 16.1333 116.93 16.52C116.536 16.9 115.933 17.09 115.12 17.09H113.78V20H112.87V13.03H115.12C115.906 13.03 116.503 13.22 116.91 13.6C117.323 13.98 117.53 14.47 117.53 15.07ZM115.12 16.34C115.626 16.34 116 16.23 116.24 16.01C116.48 15.79 116.6 15.4767 116.6 15.07C116.6 14.21 116.106 13.78 115.12 13.78H113.78V16.34H115.12Z" fill="black"/>
</svg>
