<svg width="176" height="51" viewBox="0 0 176 51" fill="none" xmlns="http://www.w3.org/2000/svg">
<rect x="6.10352e-05" width="176" height="51" rx="8" fill="white"/>
<path d="M59.5705 13.55C59.3772 13.1433 59.0972 12.83 58.7305 12.61C58.3638 12.3833 57.9372 12.27 57.4505 12.27C56.9638 12.27 56.5238 12.3833 56.1305 12.61C55.7438 12.83 55.4372 13.15 55.2105 13.57C54.9905 13.9833 54.8805 14.4633 54.8805 15.01C54.8805 15.5567 54.9905 16.0367 55.2105 16.45C55.4372 16.8633 55.7438 17.1833 56.1305 17.41C56.5238 17.63 56.9638 17.74 57.4505 17.74C58.1305 17.74 58.6905 17.5367 59.1305 17.13C59.5705 16.7233 59.8272 16.1733 59.9005 15.48H57.1205V14.74H60.8705V15.44C60.8172 16.0133 60.6372 16.54 60.3305 17.02C60.0238 17.4933 59.6205 17.87 59.1205 18.15C58.6205 18.4233 58.0638 18.56 57.4505 18.56C56.8038 18.56 56.2138 18.41 55.6805 18.11C55.1472 17.8033 54.7238 17.38 54.4105 16.84C54.1038 16.3 53.9505 15.69 53.9505 15.01C53.9505 14.33 54.1038 13.72 54.4105 13.18C54.7238 12.6333 55.1472 12.21 55.6805 11.91C56.2138 11.6033 56.8038 11.45 57.4505 11.45C58.1905 11.45 58.8438 11.6333 59.4105 12C59.9838 12.3667 60.4005 12.8833 60.6605 13.55H59.5705ZM62.9837 12.27V14.6H65.5237V15.35H62.9837V17.75H65.8237V18.5H62.0737V11.52H65.8237V12.27H62.9837ZM71.4907 11.53V12.27H69.5907V18.5H68.6807V12.27H66.7707V11.53H71.4907ZM76.1868 11.53V18.5H75.2768V11.53H76.1868ZM82.0278 11.53V12.27H80.1278V18.5H79.2178V12.27H77.3078V11.53H82.0278ZM88.9739 18.57C88.3273 18.57 87.7373 18.42 87.2039 18.12C86.6706 17.8133 86.2473 17.39 85.9339 16.85C85.6273 16.3033 85.4739 15.69 85.4739 15.01C85.4739 14.33 85.6273 13.72 85.9339 13.18C86.2473 12.6333 86.6706 12.21 87.2039 11.91C87.7373 11.6033 88.3273 11.45 88.9739 11.45C89.6273 11.45 90.2206 11.6033 90.7539 11.91C91.2873 12.21 91.7073 12.63 92.0139 13.17C92.3206 13.71 92.4739 14.3233 92.4739 15.01C92.4739 15.6967 92.3206 16.31 92.0139 16.85C91.7073 17.39 91.2873 17.8133 90.7539 18.12C90.2206 18.42 89.6273 18.57 88.9739 18.57ZM88.9739 17.78C89.4606 17.78 89.8973 17.6667 90.2839 17.44C90.6773 17.2133 90.9839 16.89 91.2039 16.47C91.4306 16.05 91.5439 15.5633 91.5439 15.01C91.5439 14.45 91.4306 13.9633 91.2039 13.55C90.9839 13.13 90.6806 12.8067 90.2939 12.58C89.9073 12.3533 89.4673 12.24 88.9739 12.24C88.4806 12.24 88.0406 12.3533 87.6539 12.58C87.2673 12.8067 86.9606 13.13 86.7339 13.55C86.5139 13.9633 86.4039 14.45 86.4039 15.01C86.4039 15.5633 86.5139 16.05 86.7339 16.47C86.9606 16.89 87.2673 17.2133 87.6539 17.44C88.0473 17.6667 88.4873 17.78 88.9739 17.78ZM99.1553 18.5H98.2453L94.5853 12.95V18.5H93.6753V11.52H94.5853L98.2453 17.06V11.52H99.1553V18.5Z" fill="#2A2B3C"/>
<path d="M64.4105 28.34C64.0625 27.608 63.5585 27.044 62.8985 26.648C62.2385 26.24 61.4705 26.036 60.5945 26.036C59.7185 26.036 58.9265 26.24 58.2185 26.648C57.5225 27.044 56.9705 27.62 56.5625 28.376C56.1665 29.12 55.9685 29.984 55.9685 30.968C55.9685 31.952 56.1665 32.816 56.5625 33.56C56.9705 34.304 57.5225 34.88 58.2185 35.288C58.9265 35.684 59.7185 35.882 60.5945 35.882C61.8185 35.882 62.8265 35.516 63.6185 34.784C64.4105 34.052 64.8725 33.062 65.0045 31.814H60.0005V30.482H66.7505V31.742C66.6545 32.774 66.3305 33.722 65.7785 34.586C65.2265 35.438 64.5005 36.116 63.6005 36.62C62.7005 37.112 61.6985 37.358 60.5945 37.358C59.4305 37.358 58.3685 37.088 57.4085 36.548C56.4485 35.996 55.6865 35.234 55.1225 34.262C54.5705 33.29 54.2945 32.192 54.2945 30.968C54.2945 29.744 54.5705 28.646 55.1225 27.674C55.6865 26.69 56.4485 25.928 57.4085 25.388C58.3685 24.836 59.4305 24.56 60.5945 24.56C61.9265 24.56 63.1025 24.89 64.1225 25.55C65.1545 26.21 65.9045 27.14 66.3725 28.34H64.4105ZM73.2183 37.412C72.2943 37.412 71.4543 37.202 70.6983 36.782C69.9543 36.362 69.3663 35.768 68.9343 35C68.5143 34.22 68.3043 33.32 68.3043 32.3C68.3043 31.292 68.5203 30.404 68.9523 29.636C69.3963 28.856 69.9963 28.262 70.7523 27.854C71.5083 27.434 72.3543 27.224 73.2903 27.224C74.2263 27.224 75.0723 27.434 75.8283 27.854C76.5843 28.262 77.1783 28.85 77.6103 29.618C78.0543 30.386 78.2763 31.28 78.2763 32.3C78.2763 33.32 78.0483 34.22 77.5923 35C77.1483 35.768 76.5423 36.362 75.7743 36.782C75.0063 37.202 74.1543 37.412 73.2183 37.412ZM73.2183 35.972C73.8063 35.972 74.3583 35.834 74.8743 35.558C75.3903 35.282 75.8043 34.868 76.1163 34.316C76.4403 33.764 76.6023 33.092 76.6023 32.3C76.6023 31.508 76.4463 30.836 76.1343 30.284C75.8223 29.732 75.4143 29.324 74.9103 29.06C74.4063 28.784 73.8603 28.646 73.2723 28.646C72.6723 28.646 72.1203 28.784 71.6163 29.06C71.1243 29.324 70.7283 29.732 70.4283 30.284C70.1283 30.836 69.9783 31.508 69.9783 32.3C69.9783 33.104 70.1223 33.782 70.4103 34.334C70.7103 34.886 71.1063 35.3 71.5983 35.576C72.0903 35.84 72.6303 35.972 73.2183 35.972ZM84.7319 37.412C83.8079 37.412 82.9679 37.202 82.2119 36.782C81.4679 36.362 80.8799 35.768 80.4479 35C80.0279 34.22 79.8179 33.32 79.8179 32.3C79.8179 31.292 80.0339 30.404 80.4659 29.636C80.9099 28.856 81.5099 28.262 82.2659 27.854C83.0219 27.434 83.8679 27.224 84.8039 27.224C85.7399 27.224 86.5859 27.434 87.3419 27.854C88.0979 28.262 88.6919 28.85 89.1239 29.618C89.5679 30.386 89.7899 31.28 89.7899 32.3C89.7899 33.32 89.5619 34.22 89.1059 35C88.6619 35.768 88.0559 36.362 87.2879 36.782C86.5199 37.202 85.6679 37.412 84.7319 37.412ZM84.7319 35.972C85.3199 35.972 85.8719 35.834 86.3879 35.558C86.9039 35.282 87.3179 34.868 87.6299 34.316C87.9539 33.764 88.1159 33.092 88.1159 32.3C88.1159 31.508 87.9599 30.836 87.6479 30.284C87.3359 29.732 86.9279 29.324 86.4239 29.06C85.9199 28.784 85.3739 28.646 84.7859 28.646C84.1859 28.646 83.6339 28.784 83.1299 29.06C82.6379 29.324 82.2419 29.732 81.9419 30.284C81.6419 30.836 81.4919 31.508 81.4919 32.3C81.4919 33.104 81.6359 33.782 81.9239 34.334C82.2239 34.886 82.6199 35.3 83.1119 35.576C83.6039 35.84 84.1439 35.972 84.7319 35.972ZM96.0116 27.224C96.8636 27.224 97.6076 27.41 98.2436 27.782C98.8916 28.154 99.3716 28.622 99.6836 29.186V27.386H101.34V37.466C101.34 38.366 101.148 39.164 100.764 39.86C100.38 40.568 99.8276 41.12 99.1076 41.516C98.3996 41.912 97.5716 42.11 96.6236 42.11C95.3276 42.11 94.2476 41.804 93.3836 41.192C92.5196 40.58 92.0096 39.746 91.8536 38.69H93.4736C93.6536 39.29 94.0256 39.77 94.5896 40.13C95.1536 40.502 95.8316 40.688 96.6236 40.688C97.5236 40.688 98.2556 40.406 98.8196 39.842C99.3956 39.278 99.6836 38.486 99.6836 37.466V35.396C99.3596 35.972 98.8796 36.452 98.2436 36.836C97.6076 37.22 96.8636 37.412 96.0116 37.412C95.1356 37.412 94.3376 37.196 93.6176 36.764C92.9096 36.332 92.3516 35.726 91.9436 34.946C91.5356 34.166 91.3316 33.278 91.3316 32.282C91.3316 31.274 91.5356 30.392 91.9436 29.636C92.3516 28.868 92.9096 28.274 93.6176 27.854C94.3376 27.434 95.1356 27.224 96.0116 27.224ZM99.6836 32.3C99.6836 31.556 99.5336 30.908 99.2336 30.356C98.9336 29.804 98.5256 29.384 98.0096 29.096C97.5056 28.796 96.9476 28.646 96.3356 28.646C95.7236 28.646 95.1656 28.79 94.6616 29.078C94.1576 29.366 93.7556 29.786 93.4556 30.338C93.1556 30.89 93.0056 31.538 93.0056 32.282C93.0056 33.038 93.1556 33.698 93.4556 34.262C93.7556 34.814 94.1576 35.24 94.6616 35.54C95.1656 35.828 95.7236 35.972 96.3356 35.972C96.9476 35.972 97.5056 35.828 98.0096 35.54C98.5256 35.24 98.9336 34.814 99.2336 34.262C99.5336 33.698 99.6836 33.044 99.6836 32.3ZM105.746 23.93V37.25H104.108V23.93H105.746ZM117.537 31.94C117.537 32.252 117.519 32.582 117.483 32.93H109.599C109.659 33.902 109.989 34.664 110.589 35.216C111.201 35.756 111.939 36.026 112.803 36.026C113.511 36.026 114.099 35.864 114.567 35.54C115.047 35.204 115.383 34.76 115.575 34.208H117.339C117.075 35.156 116.547 35.93 115.755 36.53C114.963 37.118 113.979 37.412 112.803 37.412C111.867 37.412 111.027 37.202 110.283 36.782C109.551 36.362 108.975 35.768 108.555 35C108.135 34.22 107.925 33.32 107.925 32.3C107.925 31.28 108.129 30.386 108.537 29.618C108.945 28.85 109.515 28.262 110.247 27.854C110.991 27.434 111.843 27.224 112.803 27.224C113.739 27.224 114.567 27.428 115.287 27.836C116.007 28.244 116.559 28.808 116.943 29.528C117.339 30.236 117.537 31.04 117.537 31.94ZM115.845 31.598C115.845 30.974 115.707 30.44 115.431 29.996C115.155 29.54 114.777 29.198 114.297 28.97C113.829 28.73 113.307 28.61 112.731 28.61C111.903 28.61 111.195 28.874 110.607 29.402C110.031 29.93 109.701 30.662 109.617 31.598H115.845ZM132.886 28.376C132.886 29.42 132.526 30.29 131.806 30.986C131.098 31.67 130.012 32.012 128.548 32.012H126.136V37.25H124.498V24.704H128.548C129.964 24.704 131.038 25.046 131.77 25.73C132.514 26.414 132.886 27.296 132.886 28.376ZM128.548 30.662C129.46 30.662 130.132 30.464 130.564 30.068C130.996 29.672 131.212 29.108 131.212 28.376C131.212 26.828 130.324 26.054 128.548 26.054H126.136V30.662H128.548ZM136.56 23.93V37.25H134.922V23.93H136.56ZM138.74 32.282C138.74 31.274 138.944 30.392 139.352 29.636C139.76 28.868 140.318 28.274 141.026 27.854C141.746 27.434 142.544 27.224 143.42 27.224C144.284 27.224 145.034 27.41 145.67 27.782C146.306 28.154 146.78 28.622 147.092 29.186V27.386H148.748V37.25H147.092V35.414C146.768 35.99 146.282 36.47 145.634 36.854C144.998 37.226 144.254 37.412 143.402 37.412C142.526 37.412 141.734 37.196 141.026 36.764C140.318 36.332 139.76 35.726 139.352 34.946C138.944 34.166 138.74 33.278 138.74 32.282ZM147.092 32.3C147.092 31.556 146.942 30.908 146.642 30.356C146.342 29.804 145.934 29.384 145.418 29.096C144.914 28.796 144.356 28.646 143.744 28.646C143.132 28.646 142.574 28.79 142.07 29.078C141.566 29.366 141.164 29.786 140.864 30.338C140.564 30.89 140.414 31.538 140.414 32.282C140.414 33.038 140.564 33.698 140.864 34.262C141.164 34.814 141.566 35.24 142.07 35.54C142.574 35.828 143.132 35.972 143.744 35.972C144.356 35.972 144.914 35.828 145.418 35.54C145.934 35.24 146.342 34.814 146.642 34.262C146.942 33.698 147.092 33.044 147.092 32.3ZM160.012 27.386L154.072 41.894H152.38L154.324 37.142L150.346 27.386H152.164L155.26 35.378L158.32 27.386H160.012Z" fill="#2A2B3C"/>
<path fill-rule="evenodd" clip-rule="evenodd" d="M15.9677 10.5755C15.6324 10.9485 15.4387 11.5186 15.4387 12.2648V38.7295C15.4387 39.4756 15.6324 40.0457 15.9793 40.4039L16.0689 40.4844L30.4324 25.6568V25.3255L16.0574 10.4949L15.9677 10.5755Z" fill="url(#paint0_linear)"/>
<path fill-rule="evenodd" clip-rule="evenodd" d="M35.2116 30.614L30.4209 25.6685V25.3222L35.2116 20.3767L35.3157 20.4424L40.9825 23.7672C42.6044 24.7104 42.6044 26.2684 40.9825 27.2235L35.3157 30.5483L35.2116 30.614Z" fill="url(#paint1_linear)"/>
<path fill-rule="evenodd" clip-rule="evenodd" d="M35.3157 30.5483L30.4209 25.4954L15.9678 40.4155C16.4969 41.0005 17.3845 41.0662 18.3761 40.4961L35.3157 30.5483Z" fill="url(#paint2_linear)"/>
<path fill-rule="evenodd" clip-rule="evenodd" d="M35.3157 20.4425L18.3761 10.5097C17.3845 9.92467 16.494 10.0053 15.9678 10.5902L30.4209 25.4955L35.3157 20.4425Z" fill="url(#paint3_linear)"/>
<defs>
<linearGradient id="paint0_linear" x1="29.144" y1="11.9792" x2="6.04184" y2="17.9422" gradientUnits="userSpaceOnUse">
<stop stop-color="#00A0FF"/>
<stop offset="0.00657" stop-color="#00A1FF"/>
<stop offset="0.2601" stop-color="#00BEFF"/>
<stop offset="0.5122" stop-color="#00D2FF"/>
<stop offset="0.7604" stop-color="#00DFFF"/>
<stop offset="1" stop-color="#00E3FF"/>
</linearGradient>
<linearGradient id="paint1_linear" x1="43.0976" y1="25.4954" x2="15.0445" y2="25.4954" gradientUnits="userSpaceOnUse">
<stop stop-color="#FFE000"/>
<stop offset="0.4087" stop-color="#FFBD00"/>
<stop offset="0.7754" stop-color="#FFA500"/>
<stop offset="1" stop-color="#FF9C00"/>
</linearGradient>
<linearGradient id="paint2_linear" x1="32.6541" y1="28.2449" x2="13.3021" y2="59.7964" gradientUnits="userSpaceOnUse">
<stop stop-color="#FF3A44"/>
<stop offset="1" stop-color="#C31162"/>
</linearGradient>
<linearGradient id="paint3_linear" x1="12.3283" y1="1.77273" x2="20.9623" y2="15.8645" gradientUnits="userSpaceOnUse">
<stop stop-color="#32A071"/>
<stop offset="0.0685" stop-color="#2DA771"/>
<stop offset="0.4762" stop-color="#15CF74"/>
<stop offset="0.8009" stop-color="#06E775"/>
<stop offset="1" stop-color="#00F076"/>
</linearGradient>
</defs>
</svg>
