<svg width="190" height="68" viewBox="0 0 190 68" fill="none" xmlns="http://www.w3.org/2000/svg">
<rect x="0.0554199" width="189.945" height="68" rx="8" fill="white"/>
<path d="M63.8663 16.3833C63.673 15.9766 63.393 15.6633 63.0263 15.4433C62.6596 15.2166 62.233 15.1033 61.7463 15.1033C61.2596 15.1033 60.8196 15.2166 60.4263 15.4433C60.0396 15.6633 59.733 15.9833 59.5063 16.4033C59.2863 16.8166 59.1763 17.2966 59.1763 17.8433C59.1763 18.3899 59.2863 18.8699 59.5063 19.2833C59.733 19.6966 60.0396 20.0166 60.4263 20.2433C60.8196 20.4633 61.2596 20.5733 61.7463 20.5733C62.4263 20.5733 62.9863 20.3699 63.4263 19.9633C63.8663 19.5566 64.123 19.0066 64.1963 18.3133H61.4163V17.5733H65.1663V18.2733C65.113 18.8466 64.933 19.3733 64.6263 19.8533C64.3196 20.3266 63.9163 20.7033 63.4163 20.9833C62.9163 21.2566 62.3596 21.3933 61.7463 21.3933C61.0996 21.3933 60.5096 21.2433 59.9763 20.9433C59.443 20.6366 59.0196 20.2133 58.7063 19.6733C58.3996 19.1333 58.2463 18.5233 58.2463 17.8433C58.2463 17.1633 58.3996 16.5533 58.7063 16.0133C59.0196 15.4666 59.443 15.0433 59.9763 14.7433C60.5096 14.4366 61.0996 14.2833 61.7463 14.2833C62.4863 14.2833 63.1396 14.4666 63.7063 14.8333C64.2796 15.1999 64.6963 15.7166 64.9563 16.3833H63.8663ZM67.2795 15.1033V17.4333H69.8195V18.1833H67.2795V20.5833H70.1195V21.3333H66.3695V14.3533H70.1195V15.1033H67.2795ZM75.7864 14.3633V15.1033H73.8864V21.3333H72.9764V15.1033H71.0664V14.3633H75.7864ZM80.4826 14.3633V21.3333H79.5726V14.3633H80.4826ZM86.3236 14.3633V15.1033H84.4235V21.3333H83.5135V15.1033H81.6035V14.3633H86.3236ZM93.2697 21.4033C92.6231 21.4033 92.0331 21.2533 91.4997 20.9533C90.9664 20.6466 90.5431 20.2233 90.2297 19.6833C89.9231 19.1366 89.7697 18.5233 89.7697 17.8433C89.7697 17.1633 89.9231 16.5533 90.2297 16.0133C90.5431 15.4666 90.9664 15.0433 91.4997 14.7433C92.0331 14.4366 92.6231 14.2833 93.2697 14.2833C93.9231 14.2833 94.5164 14.4366 95.0497 14.7433C95.5831 15.0433 96.0031 15.4633 96.3097 16.0033C96.6164 16.5433 96.7697 17.1566 96.7697 17.8433C96.7697 18.5299 96.6164 19.1433 96.3097 19.6833C96.0031 20.2233 95.5831 20.6466 95.0497 20.9533C94.5164 21.2533 93.9231 21.4033 93.2697 21.4033ZM93.2697 20.6133C93.7564 20.6133 94.1931 20.4999 94.5797 20.2733C94.9731 20.0466 95.2797 19.7233 95.4997 19.3033C95.7264 18.8833 95.8397 18.3966 95.8397 17.8433C95.8397 17.2833 95.7264 16.7966 95.4997 16.3833C95.2797 15.9633 94.9764 15.6399 94.5897 15.4133C94.2031 15.1866 93.7631 15.0733 93.2697 15.0733C92.7764 15.0733 92.3364 15.1866 91.9497 15.4133C91.5631 15.6399 91.2564 15.9633 91.0297 16.3833C90.8097 16.7966 90.6997 17.2833 90.6997 17.8433C90.6997 18.3966 90.8097 18.8833 91.0297 19.3033C91.2564 19.7233 91.5631 20.0466 91.9497 20.2733C92.3431 20.4999 92.7831 20.6133 93.2697 20.6133ZM103.451 21.3333H102.541L98.881 15.7833V21.3333H97.971V14.3533H98.881L102.541 19.8933V14.3533H103.451V21.3333Z" fill="#2A2B3C"/>
<path d="M68.7063 35.4233C68.3583 34.6913 67.8543 34.1273 67.1943 33.7313C66.5343 33.3233 65.7663 33.1193 64.8903 33.1193C64.0143 33.1193 63.2223 33.3233 62.5143 33.7313C61.8183 34.1273 61.2663 34.7033 60.8583 35.4593C60.4623 36.2033 60.2643 37.0673 60.2643 38.0513C60.2643 39.0353 60.4623 39.8993 60.8583 40.6433C61.2663 41.3873 61.8183 41.9633 62.5143 42.3713C63.2223 42.7673 64.0143 42.9653 64.8903 42.9653C66.1143 42.9653 67.1223 42.5993 67.9143 41.8673C68.7063 41.1353 69.1683 40.1453 69.3003 38.8973H64.2963V37.5653H71.0463V38.8253C70.9503 39.8573 70.6263 40.8053 70.0743 41.6693C69.5223 42.5213 68.7963 43.1993 67.8963 43.7033C66.9963 44.1953 65.9943 44.4413 64.8903 44.4413C63.7263 44.4413 62.6643 44.1713 61.7043 43.6313C60.7443 43.0793 59.9823 42.3173 59.4183 41.3453C58.8663 40.3733 58.5903 39.2753 58.5903 38.0513C58.5903 36.8273 58.8663 35.7293 59.4183 34.7573C59.9823 33.7733 60.7443 33.0113 61.7043 32.4713C62.6643 31.9193 63.7263 31.6433 64.8903 31.6433C66.2223 31.6433 67.3983 31.9733 68.4183 32.6333C69.4503 33.2933 70.2003 34.2233 70.6683 35.4233H68.7063ZM77.5141 44.4953C76.59 44.4953 75.75 44.2853 74.9941 43.8653C74.25 43.4453 73.662 42.8513 73.23 42.0833C72.81 41.3033 72.6 40.4033 72.6 39.3833C72.6 38.3753 72.816 37.4873 73.248 36.7193C73.692 35.9393 74.292 35.3453 75.048 34.9373C75.804 34.5173 76.6501 34.3073 77.5861 34.3073C78.5221 34.3073 79.3681 34.5173 80.1241 34.9373C80.8801 35.3453 81.4741 35.9333 81.906 36.7013C82.35 37.4693 82.572 38.3633 82.572 39.3833C82.572 40.4033 82.344 41.3033 81.8881 42.0833C81.4441 42.8513 80.8381 43.4453 80.0701 43.8653C79.3021 44.2853 78.4501 44.4953 77.5141 44.4953ZM77.5141 43.0553C78.1021 43.0553 78.6541 42.9173 79.1701 42.6413C79.6861 42.3653 80.1001 41.9513 80.4121 41.3993C80.7361 40.8473 80.898 40.1753 80.898 39.3833C80.898 38.5913 80.742 37.9193 80.4301 37.3673C80.1181 36.8153 79.7101 36.4073 79.2061 36.1433C78.7021 35.8673 78.1561 35.7293 77.568 35.7293C76.9681 35.7293 76.4161 35.8673 75.9121 36.1433C75.42 36.4073 75.024 36.8153 74.7241 37.3673C74.424 37.9193 74.274 38.5913 74.274 39.3833C74.274 40.1873 74.418 40.8653 74.7061 41.4173C75.006 41.9693 75.402 42.3833 75.8941 42.6593C76.3861 42.9233 76.9261 43.0553 77.5141 43.0553ZM89.0277 44.4953C88.1037 44.4953 87.2637 44.2853 86.5077 43.8653C85.7637 43.4453 85.1757 42.8513 84.7437 42.0833C84.3237 41.3033 84.1137 40.4033 84.1137 39.3833C84.1137 38.3753 84.3297 37.4873 84.7617 36.7193C85.2057 35.9393 85.8057 35.3453 86.5617 34.9373C87.3177 34.5173 88.1637 34.3073 89.0997 34.3073C90.0357 34.3073 90.8817 34.5173 91.6377 34.9373C92.3937 35.3453 92.9877 35.9333 93.4197 36.7013C93.8637 37.4693 94.0857 38.3633 94.0857 39.3833C94.0857 40.4033 93.8577 41.3033 93.4017 42.0833C92.9577 42.8513 92.3517 43.4453 91.5837 43.8653C90.8157 44.2853 89.9637 44.4953 89.0277 44.4953ZM89.0277 43.0553C89.6157 43.0553 90.1677 42.9173 90.6837 42.6413C91.1997 42.3653 91.6137 41.9513 91.9257 41.3993C92.2497 40.8473 92.4117 40.1753 92.4117 39.3833C92.4117 38.5913 92.2557 37.9193 91.9437 37.3673C91.6317 36.8153 91.2237 36.4073 90.7197 36.1433C90.2157 35.8673 89.6697 35.7293 89.0817 35.7293C88.4817 35.7293 87.9297 35.8673 87.4257 36.1433C86.9337 36.4073 86.5377 36.8153 86.2377 37.3673C85.9377 37.9193 85.7877 38.5913 85.7877 39.3833C85.7877 40.1873 85.9317 40.8653 86.2197 41.4173C86.5197 41.9693 86.9157 42.3833 87.4077 42.6593C87.8997 42.9233 88.4397 43.0553 89.0277 43.0553ZM100.307 34.3073C101.159 34.3073 101.903 34.4933 102.539 34.8653C103.187 35.2373 103.667 35.7053 103.979 36.2693V34.4693H105.635V44.5493C105.635 45.4493 105.443 46.2473 105.059 46.9433C104.675 47.6513 104.123 48.2033 103.403 48.5993C102.695 48.9953 101.867 49.1933 100.919 49.1933C99.6234 49.1933 98.5434 48.8873 97.6794 48.2753C96.8154 47.6633 96.3054 46.8293 96.1494 45.7733H97.7694C97.9494 46.3733 98.3214 46.8533 98.8854 47.2133C99.4494 47.5853 100.127 47.7713 100.919 47.7713C101.819 47.7713 102.551 47.4893 103.115 46.9253C103.691 46.3613 103.979 45.5693 103.979 44.5493V42.4793C103.655 43.0553 103.175 43.5353 102.539 43.9193C101.903 44.3033 101.159 44.4953 100.307 44.4953C99.4314 44.4953 98.6334 44.2793 97.9134 43.8473C97.2054 43.4153 96.6474 42.8093 96.2394 42.0293C95.8314 41.2493 95.6274 40.3613 95.6274 39.3653C95.6274 38.3573 95.8314 37.4753 96.2394 36.7193C96.6474 35.9513 97.2054 35.3573 97.9134 34.9373C98.6334 34.5173 99.4314 34.3073 100.307 34.3073ZM103.979 39.3833C103.979 38.6393 103.829 37.9913 103.529 37.4393C103.229 36.8873 102.821 36.4673 102.305 36.1793C101.801 35.8793 101.243 35.7293 100.631 35.7293C100.019 35.7293 99.4614 35.8733 98.9574 36.1613C98.4534 36.4493 98.0514 36.8693 97.7514 37.4213C97.4514 37.9733 97.3014 38.6213 97.3014 39.3653C97.3014 40.1213 97.4514 40.7813 97.7514 41.3453C98.0514 41.8973 98.4534 42.3233 98.9574 42.6233C99.4614 42.9113 100.019 43.0553 100.631 43.0553C101.243 43.0553 101.801 42.9113 102.305 42.6233C102.821 42.3233 103.229 41.8973 103.529 41.3453C103.829 40.7813 103.979 40.1273 103.979 39.3833ZM110.041 31.0133V44.3333H108.403V31.0133H110.041ZM121.833 39.0233C121.833 39.3353 121.815 39.6653 121.779 40.0133H113.895C113.955 40.9853 114.285 41.7473 114.885 42.2993C115.497 42.8393 116.235 43.1093 117.099 43.1093C117.807 43.1093 118.395 42.9473 118.863 42.6233C119.343 42.2873 119.679 41.8433 119.871 41.2913H121.635C121.371 42.2393 120.843 43.0133 120.051 43.6133C119.259 44.2013 118.275 44.4953 117.099 44.4953C116.163 44.4953 115.323 44.2853 114.579 43.8653C113.847 43.4453 113.271 42.8513 112.851 42.0833C112.431 41.3033 112.221 40.4033 112.221 39.3833C112.221 38.3633 112.425 37.4693 112.833 36.7013C113.241 35.9333 113.811 35.3453 114.543 34.9373C115.287 34.5173 116.139 34.3073 117.099 34.3073C118.035 34.3073 118.863 34.5113 119.583 34.9193C120.303 35.3273 120.855 35.8913 121.239 36.6113C121.635 37.3193 121.833 38.1233 121.833 39.0233ZM120.141 38.6813C120.141 38.0573 120.003 37.5233 119.727 37.0793C119.451 36.6233 119.073 36.2813 118.593 36.0533C118.125 35.8133 117.603 35.6933 117.027 35.6933C116.199 35.6933 115.491 35.9573 114.903 36.4853C114.327 37.0133 113.997 37.7453 113.913 38.6813H120.141ZM137.182 35.4593C137.182 36.5033 136.822 37.3733 136.102 38.0693C135.394 38.7533 134.308 39.0953 132.844 39.0953H130.432V44.3333H128.794V31.7873H132.844C134.26 31.7873 135.334 32.1293 136.066 32.8133C136.81 33.4973 137.182 34.3793 137.182 35.4593ZM132.844 37.7453C133.756 37.7453 134.428 37.5473 134.86 37.1513C135.292 36.7553 135.508 36.1913 135.508 35.4593C135.508 33.9113 134.62 33.1373 132.844 33.1373H130.432V37.7453H132.844ZM140.856 31.0133V44.3333H139.218V31.0133H140.856ZM143.036 39.3653C143.036 38.3573 143.24 37.4753 143.648 36.7193C144.056 35.9513 144.614 35.3573 145.322 34.9373C146.042 34.5173 146.84 34.3073 147.716 34.3073C148.58 34.3073 149.33 34.4933 149.966 34.8653C150.602 35.2373 151.076 35.7053 151.388 36.2693V34.4693H153.044V44.3333H151.388V42.4973C151.064 43.0733 150.578 43.5533 149.93 43.9373C149.294 44.3093 148.55 44.4953 147.698 44.4953C146.822 44.4953 146.03 44.2793 145.322 43.8473C144.614 43.4153 144.056 42.8093 143.648 42.0293C143.24 41.2493 143.036 40.3613 143.036 39.3653ZM151.388 39.3833C151.388 38.6393 151.238 37.9913 150.938 37.4393C150.638 36.8873 150.23 36.4673 149.714 36.1793C149.21 35.8793 148.652 35.7293 148.04 35.7293C147.428 35.7293 146.87 35.8733 146.366 36.1613C145.862 36.4493 145.46 36.8693 145.16 37.4213C144.86 37.9733 144.71 38.6213 144.71 39.3653C144.71 40.1213 144.86 40.7813 145.16 41.3453C145.46 41.8973 145.862 42.3233 146.366 42.6233C146.87 42.9113 147.428 43.0553 148.04 43.0553C148.652 43.0553 149.21 42.9113 149.714 42.6233C150.23 42.3233 150.638 41.8973 150.938 41.3453C151.238 40.7813 151.388 40.1273 151.388 39.3833ZM164.308 34.4693L158.368 48.9773H156.676L158.62 44.2253L154.642 34.4693H156.46L159.556 42.4613L162.616 34.4693H164.308Z" fill="#2A2B3C"/>
<path fill-rule="evenodd" clip-rule="evenodd" d="M17.2883 14.1004C16.9263 14.5978 16.7173 15.3579 16.7173 16.3528V51.6391C16.7173 52.6339 16.9263 53.394 17.3008 53.8716L17.3975 53.979L32.899 34.2088V33.7671L17.385 13.9929L17.2883 14.1004Z" fill="url(#paint0_linear)"/>
<path fill-rule="evenodd" clip-rule="evenodd" d="M38.0569 40.8187L32.8866 34.2246V33.763L38.0569 27.1689L38.1692 27.2565L44.285 31.6897C46.0354 32.9472 46.0354 35.0245 44.285 36.2979L38.1692 40.7311L38.0569 40.8187Z" fill="url(#paint1_linear)"/>
<path fill-rule="evenodd" clip-rule="evenodd" d="M38.1692 40.7312L32.8866 33.9939L17.2883 53.8875C17.8593 54.6674 18.8173 54.755 19.8875 53.9949L38.1692 40.7312Z" fill="url(#paint2_linear)"/>
<path fill-rule="evenodd" clip-rule="evenodd" d="M38.1692 27.2566L19.8875 14.0128C18.8173 13.2328 17.8562 13.3403 17.2883 14.1202L32.8866 33.9939L38.1692 27.2566Z" fill="url(#paint3_linear)"/>
<defs>
<linearGradient id="paint0_linear" x1="31.5086" y1="15.9721" x2="6.02712" y2="21.2957" gradientUnits="userSpaceOnUse">
<stop stop-color="#00A0FF"/>
<stop offset="0.00657" stop-color="#00A1FF"/>
<stop offset="0.2601" stop-color="#00BEFF"/>
<stop offset="0.5122" stop-color="#00D2FF"/>
<stop offset="0.7604" stop-color="#00DFFF"/>
<stop offset="1" stop-color="#00E3FF"/>
</linearGradient>
<linearGradient id="paint1_linear" x1="46.5677" y1="33.9939" x2="16.2919" y2="33.9939" gradientUnits="userSpaceOnUse">
<stop stop-color="#FFE000"/>
<stop offset="0.4087" stop-color="#FFBD00"/>
<stop offset="0.7754" stop-color="#FFA500"/>
<stop offset="1" stop-color="#FF9C00"/>
</linearGradient>
<linearGradient id="paint2_linear" x1="35.2967" y1="37.66" x2="7.42844" y2="74.4372" gradientUnits="userSpaceOnUse">
<stop stop-color="#FF3A44"/>
<stop offset="1" stop-color="#C31162"/>
</linearGradient>
<linearGradient id="paint3_linear" x1="13.3605" y1="2.36356" x2="25.7964" y2="18.7925" gradientUnits="userSpaceOnUse">
<stop stop-color="#32A071"/>
<stop offset="0.0685" stop-color="#2DA771"/>
<stop offset="0.4762" stop-color="#15CF74"/>
<stop offset="0.8009" stop-color="#06E775"/>
<stop offset="1" stop-color="#00F076"/>
</linearGradient>
</defs>
</svg>
