<svg width="568" height="100" viewBox="0 0 568 100" fill="none" xmlns="http://www.w3.org/2000/svg">
<path d="M54.296 24.006H57.796V25H53.022V15.13H54.296V24.006ZM62.5783 17.216C63.3156 17.216 63.9736 17.3747 64.5523 17.692C65.1403 18.0093 65.5976 18.4667 65.9243 19.064C66.2603 19.6613 66.4283 20.3613 66.4283 21.164C66.4283 21.9667 66.2603 22.6667 65.9243 23.264C65.5976 23.852 65.1403 24.3047 64.5523 24.622C63.9736 24.9393 63.3156 25.098 62.5783 25.098C61.841 25.098 61.1783 24.9393 60.5903 24.622C60.0116 24.3047 59.5543 23.852 59.2183 23.264C58.8823 22.6667 58.7143 21.9667 58.7143 21.164C58.7143 20.3613 58.8823 19.6613 59.2183 19.064C59.5543 18.4667 60.0116 18.0093 60.5903 17.692C61.1783 17.3747 61.841 17.216 62.5783 17.216ZM62.5783 18.336C62.121 18.336 61.6963 18.4387 61.3043 18.644C60.9216 18.8493 60.609 19.1667 60.3663 19.596C60.133 20.016 60.0163 20.5387 60.0163 21.164C60.0163 21.78 60.133 22.3027 60.3663 22.732C60.609 23.152 60.9216 23.4647 61.3043 23.67C61.6963 23.8753 62.121 23.978 62.5783 23.978C63.0356 23.978 63.4556 23.8753 63.8383 23.67C64.2303 23.4647 64.543 23.152 64.7763 22.732C65.019 22.3027 65.1403 21.78 65.1403 21.164C65.1403 20.5387 65.019 20.016 64.7763 19.596C64.543 19.1667 64.2303 18.8493 63.8383 18.644C63.4556 18.4387 63.0356 18.336 62.5783 18.336ZM69.3624 18.868C69.6144 18.336 69.9831 17.9253 70.4684 17.636C70.9537 17.3373 71.5324 17.188 72.2044 17.188V18.574H71.8124C71.0937 18.574 70.5057 18.7607 70.0484 19.134C69.5911 19.498 69.3624 20.1047 69.3624 20.954V25H68.0884V17.314H69.3624V18.868ZM80.5315 20.73C80.5315 21.0007 80.5128 21.234 80.4755 21.43H74.3295C74.3575 22.3073 74.6048 22.9653 75.0715 23.404C75.5475 23.8427 76.1261 24.062 76.8075 24.062C77.4235 24.062 77.9368 23.908 78.3475 23.6C78.7675 23.2827 79.0241 22.8627 79.1175 22.34H80.4755C80.3821 22.872 80.1721 23.348 79.8455 23.768C79.5281 24.188 79.1128 24.5147 78.5995 24.748C78.0861 24.9813 77.5075 25.098 76.8635 25.098C76.1261 25.098 75.4728 24.9393 74.9035 24.622C74.3341 24.3047 73.8861 23.852 73.5595 23.264C73.2421 22.6667 73.0835 21.9667 73.0835 21.164C73.0835 20.3613 73.2421 19.6613 73.5595 19.064C73.8861 18.4667 74.3341 18.0093 74.9035 17.692C75.4728 17.3747 76.1261 17.216 76.8635 17.216C77.6101 17.216 78.2588 17.3747 78.8095 17.692C79.3695 18.0093 79.7941 18.434 80.0835 18.966C80.3821 19.498 80.5315 20.086 80.5315 20.73ZM79.2435 20.814C79.2715 20.2447 79.1781 19.7687 78.9635 19.386C78.7488 19.0033 78.4548 18.7187 78.0815 18.532C77.7081 18.3453 77.3021 18.252 76.8635 18.252C76.1635 18.252 75.5755 18.4713 75.0995 18.91C74.6235 19.3393 74.3668 19.974 74.3295 20.814H79.2435ZM91.6478 17.188C92.5438 17.188 93.2624 17.4773 93.8038 18.056C94.3544 18.6253 94.6298 19.4513 94.6298 20.534V25H93.3558V20.646C93.3558 19.89 93.1691 19.3113 92.7958 18.91C92.4318 18.5087 91.9278 18.308 91.2838 18.308C90.6118 18.308 90.0704 18.532 89.6598 18.98C89.2584 19.4187 89.0578 20.0673 89.0578 20.926V25H87.7838V20.646C87.7838 19.89 87.5971 19.3113 87.2238 18.91C86.8504 18.5087 86.3464 18.308 85.7118 18.308C85.0304 18.308 84.4844 18.532 84.0738 18.98C83.6724 19.4187 83.4718 20.0673 83.4718 20.926V25H82.1978V17.314H83.4718V19.064C83.6584 18.4573 83.9898 17.9953 84.4658 17.678C84.9511 17.3513 85.5064 17.188 86.1318 17.188C86.7851 17.188 87.3498 17.356 87.8258 17.692C88.3111 18.0187 88.6564 18.504 88.8618 19.148C89.0764 18.5227 89.4358 18.042 89.9398 17.706C90.4438 17.3607 91.0131 17.188 91.6478 17.188ZM99.8429 15.06C99.8429 14.8267 99.9223 14.64 100.081 14.5C100.24 14.3507 100.45 14.276 100.711 14.276C100.972 14.276 101.182 14.3507 101.341 14.5C101.5 14.64 101.579 14.8267 101.579 15.06C101.579 15.2933 101.5 15.4847 101.341 15.634C101.182 15.774 100.972 15.844 100.711 15.844C100.45 15.844 100.24 15.774 100.081 15.634C99.9223 15.4847 99.8429 15.2933 99.8429 15.06ZM101.341 17.314V25H100.067V17.314H101.341ZM107.631 17.216C108.313 17.216 108.919 17.3747 109.451 17.692C109.983 18.0093 110.399 18.4667 110.697 19.064C111.005 19.6613 111.159 20.3613 111.159 21.164C111.159 21.9667 111.005 22.6667 110.697 23.264C110.399 23.852 109.983 24.3047 109.451 24.622C108.919 24.9393 108.313 25.098 107.631 25.098C106.885 25.098 106.25 24.9113 105.727 24.538C105.214 24.1553 104.859 23.656 104.663 23.04V28.64H103.389V17.314H104.663V19.274C104.859 18.658 105.214 18.1633 105.727 17.79C106.25 17.4073 106.885 17.216 107.631 17.216ZM107.267 18.35C106.773 18.35 106.325 18.4667 105.923 18.7C105.522 18.924 105.209 19.2507 104.985 19.68C104.761 20.1093 104.649 20.604 104.649 21.164C104.649 21.724 104.761 22.2187 104.985 22.648C105.209 23.068 105.522 23.3947 105.923 23.628C106.325 23.8613 106.773 23.978 107.267 23.978C108.061 23.978 108.691 23.7307 109.157 23.236C109.633 22.732 109.871 22.0413 109.871 21.164C109.871 20.2867 109.633 19.6007 109.157 19.106C108.691 18.602 108.061 18.35 107.267 18.35ZM115.231 17.216C116.099 17.216 116.794 17.4447 117.317 17.902C117.849 18.35 118.171 18.9567 118.283 19.722H117.065C117.009 19.2647 116.817 18.8913 116.491 18.602C116.173 18.3033 115.744 18.154 115.203 18.154C114.745 18.154 114.386 18.266 114.125 18.49C113.873 18.7047 113.747 18.9987 113.747 19.372C113.747 19.652 113.831 19.8807 113.999 20.058C114.176 20.226 114.391 20.3567 114.643 20.45C114.904 20.534 115.259 20.6273 115.707 20.73C116.276 20.8607 116.733 20.996 117.079 21.136C117.433 21.2667 117.732 21.4813 117.975 21.78C118.227 22.0787 118.353 22.48 118.353 22.984C118.353 23.6093 118.115 24.118 117.639 24.51C117.172 24.902 116.547 25.098 115.763 25.098C114.848 25.098 114.101 24.8787 113.523 24.44C112.944 24.0013 112.603 23.39 112.501 22.606H113.733C113.779 23.0727 113.98 23.4507 114.335 23.74C114.699 24.0293 115.175 24.174 115.763 24.174C116.201 24.174 116.542 24.062 116.785 23.838C117.037 23.614 117.163 23.32 117.163 22.956C117.163 22.6573 117.074 22.4193 116.897 22.242C116.719 22.0647 116.5 21.9293 116.239 21.836C115.977 21.7427 115.618 21.6447 115.161 21.542C114.591 21.4113 114.134 21.2807 113.789 21.15C113.453 21.0193 113.163 20.814 112.921 20.534C112.687 20.2447 112.571 19.8573 112.571 19.372C112.571 18.728 112.809 18.21 113.285 17.818C113.761 17.4167 114.409 17.216 115.231 17.216ZM126.887 17.314V25H125.613V23.194C125.417 23.8193 125.067 24.3 124.563 24.636C124.069 24.9627 123.49 25.126 122.827 25.126C121.941 25.126 121.222 24.8413 120.671 24.272C120.121 23.6933 119.845 22.8673 119.845 21.794V17.314H121.119V21.668C121.119 22.4333 121.315 23.026 121.707 23.446C122.099 23.8567 122.631 24.062 123.303 24.062C124.003 24.062 124.563 23.838 124.983 23.39C125.403 22.9327 125.613 22.27 125.613 21.402V17.314H126.887ZM138.378 17.188C139.274 17.188 139.993 17.4773 140.534 18.056C141.085 18.6253 141.36 19.4513 141.36 20.534V25H140.086V20.646C140.086 19.89 139.9 19.3113 139.526 18.91C139.162 18.5087 138.658 18.308 138.014 18.308C137.342 18.308 136.801 18.532 136.39 18.98C135.989 19.4187 135.788 20.0673 135.788 20.926V25H134.514V20.646C134.514 19.89 134.328 19.3113 133.954 18.91C133.581 18.5087 133.077 18.308 132.442 18.308C131.761 18.308 131.215 18.532 130.804 18.98C130.403 19.4187 130.202 20.0673 130.202 20.926V25H128.928V17.314H130.202V19.064C130.389 18.4573 130.72 17.9953 131.196 17.678C131.682 17.3513 132.237 17.188 132.862 17.188C133.516 17.188 134.08 17.356 134.556 17.692C135.042 18.0187 135.387 18.504 135.592 19.148C135.807 18.5227 136.166 18.042 136.67 17.706C137.174 17.3607 137.744 17.188 138.378 17.188ZM149.947 17.216C150.694 17.216 151.324 17.4027 151.837 17.776C152.36 18.1493 152.724 18.6487 152.929 19.274V14.64H154.203V25H152.929V23.04C152.724 23.6653 152.36 24.1647 151.837 24.538C151.324 24.9113 150.694 25.098 149.947 25.098C149.266 25.098 148.659 24.9393 148.127 24.622C147.595 24.3047 147.175 23.852 146.867 23.264C146.569 22.6667 146.419 21.9667 146.419 21.164C146.419 20.3613 146.569 19.6613 146.867 19.064C147.175 18.4667 147.595 18.0093 148.127 17.692C148.659 17.3747 149.266 17.216 149.947 17.216ZM150.311 18.35C149.527 18.35 148.897 18.602 148.421 19.106C147.955 19.6007 147.721 20.2867 147.721 21.164C147.721 22.0413 147.955 22.732 148.421 23.236C148.897 23.7307 149.527 23.978 150.311 23.978C150.815 23.978 151.263 23.8613 151.655 23.628C152.057 23.3947 152.369 23.068 152.593 22.648C152.817 22.2187 152.929 21.724 152.929 21.164C152.929 20.604 152.817 20.1093 152.593 19.68C152.369 19.2507 152.057 18.924 151.655 18.7C151.263 18.4667 150.815 18.35 150.311 18.35ZM159.717 17.216C160.454 17.216 161.112 17.3747 161.691 17.692C162.279 18.0093 162.736 18.4667 163.063 19.064C163.399 19.6613 163.567 20.3613 163.567 21.164C163.567 21.9667 163.399 22.6667 163.063 23.264C162.736 23.852 162.279 24.3047 161.691 24.622C161.112 24.9393 160.454 25.098 159.717 25.098C158.98 25.098 158.317 24.9393 157.729 24.622C157.15 24.3047 156.693 23.852 156.357 23.264C156.021 22.6667 155.853 21.9667 155.853 21.164C155.853 20.3613 156.021 19.6613 156.357 19.064C156.693 18.4667 157.15 18.0093 157.729 17.692C158.317 17.3747 158.98 17.216 159.717 17.216ZM159.717 18.336C159.26 18.336 158.835 18.4387 158.443 18.644C158.06 18.8493 157.748 19.1667 157.505 19.596C157.272 20.016 157.155 20.5387 157.155 21.164C157.155 21.78 157.272 22.3027 157.505 22.732C157.748 23.152 158.06 23.4647 158.443 23.67C158.835 23.8753 159.26 23.978 159.717 23.978C160.174 23.978 160.594 23.8753 160.977 23.67C161.369 23.4647 161.682 23.152 161.915 22.732C162.158 22.3027 162.279 21.78 162.279 21.164C162.279 20.5387 162.158 20.016 161.915 19.596C161.682 19.1667 161.369 18.8493 160.977 18.644C160.594 18.4387 160.174 18.336 159.717 18.336ZM166.501 14.64V25H165.227V14.64H166.501ZM172.035 17.216C172.773 17.216 173.431 17.3747 174.009 17.692C174.597 18.0093 175.055 18.4667 175.381 19.064C175.717 19.6613 175.885 20.3613 175.885 21.164C175.885 21.9667 175.717 22.6667 175.381 23.264C175.055 23.852 174.597 24.3047 174.009 24.622C173.431 24.9393 172.773 25.098 172.035 25.098C171.298 25.098 170.635 24.9393 170.047 24.622C169.469 24.3047 169.011 23.852 168.675 23.264C168.339 22.6667 168.171 21.9667 168.171 21.164C168.171 20.3613 168.339 19.6613 168.675 19.064C169.011 18.4667 169.469 18.0093 170.047 17.692C170.635 17.3747 171.298 17.216 172.035 17.216ZM172.035 18.336C171.578 18.336 171.153 18.4387 170.761 18.644C170.379 18.8493 170.066 19.1667 169.823 19.596C169.59 20.016 169.473 20.5387 169.473 21.164C169.473 21.78 169.59 22.3027 169.823 22.732C170.066 23.152 170.379 23.4647 170.761 23.67C171.153 23.8753 171.578 23.978 172.035 23.978C172.493 23.978 172.913 23.8753 173.295 23.67C173.687 23.4647 174 23.152 174.233 22.732C174.476 22.3027 174.597 21.78 174.597 21.164C174.597 20.5387 174.476 20.016 174.233 19.596C174 19.1667 173.687 18.8493 173.295 18.644C172.913 18.4387 172.493 18.336 172.035 18.336ZM178.819 18.868C179.071 18.336 179.44 17.9253 179.925 17.636C180.411 17.3373 180.989 17.188 181.661 17.188V18.574H181.269C180.551 18.574 179.963 18.7607 179.505 19.134C179.048 19.498 178.819 20.1047 178.819 20.954V25H177.545V17.314H178.819V18.868ZM188.785 17.216C189.653 17.216 190.349 17.4447 190.871 17.902C191.403 18.35 191.725 18.9567 191.837 19.722H190.619C190.563 19.2647 190.372 18.8913 190.045 18.602C189.728 18.3033 189.299 18.154 188.757 18.154C188.3 18.154 187.941 18.266 187.679 18.49C187.427 18.7047 187.301 18.9987 187.301 19.372C187.301 19.652 187.385 19.8807 187.553 20.058C187.731 20.226 187.945 20.3567 188.197 20.45C188.459 20.534 188.813 20.6273 189.261 20.73C189.831 20.8607 190.288 20.996 190.633 21.136C190.988 21.2667 191.287 21.4813 191.529 21.78C191.781 22.0787 191.907 22.48 191.907 22.984C191.907 23.6093 191.669 24.118 191.193 24.51C190.727 24.902 190.101 25.098 189.317 25.098C188.403 25.098 187.656 24.8787 187.077 24.44C186.499 24.0013 186.158 23.39 186.055 22.606H187.287C187.334 23.0727 187.535 23.4507 187.889 23.74C188.253 24.0293 188.729 24.174 189.317 24.174C189.756 24.174 190.097 24.062 190.339 23.838C190.591 23.614 190.717 23.32 190.717 22.956C190.717 22.6573 190.629 22.4193 190.451 22.242C190.274 22.0647 190.055 21.9293 189.793 21.836C189.532 21.7427 189.173 21.6447 188.715 21.542C188.146 21.4113 187.689 21.2807 187.343 21.15C187.007 21.0193 186.718 20.814 186.475 20.534C186.242 20.2447 186.125 19.8573 186.125 19.372C186.125 18.728 186.363 18.21 186.839 17.818C187.315 17.4167 187.964 17.216 188.785 17.216ZM193.386 15.06C193.386 14.8267 193.465 14.64 193.624 14.5C193.783 14.3507 193.993 14.276 194.254 14.276C194.515 14.276 194.725 14.3507 194.884 14.5C195.043 14.64 195.122 14.8267 195.122 15.06C195.122 15.2933 195.043 15.4847 194.884 15.634C194.725 15.774 194.515 15.844 194.254 15.844C193.993 15.844 193.783 15.774 193.624 15.634C193.465 15.4847 193.386 15.2933 193.386 15.06ZM194.884 17.314V25H193.61V17.314H194.884ZM200.6 23.88V25H199.648C198.864 25 198.276 24.8133 197.884 24.44C197.501 24.0667 197.31 23.4413 197.31 22.564V18.42H196.162V17.314H197.31V15.396H198.598V17.314H200.586V18.42H198.598V22.592C198.598 23.0867 198.687 23.4273 198.864 23.614C199.051 23.7913 199.368 23.88 199.816 23.88H200.6ZM208.764 17.216C209.51 17.216 210.14 17.4027 210.654 17.776C211.176 18.1493 211.54 18.6487 211.746 19.274V17.314H213.02V25H211.746V23.04C211.54 23.6653 211.176 24.1647 210.654 24.538C210.14 24.9113 209.51 25.098 208.764 25.098C208.082 25.098 207.476 24.9393 206.944 24.622C206.412 24.3047 205.992 23.852 205.684 23.264C205.385 22.6667 205.236 21.9667 205.236 21.164C205.236 20.3613 205.385 19.6613 205.684 19.064C205.992 18.4667 206.412 18.0093 206.944 17.692C207.476 17.3747 208.082 17.216 208.764 17.216ZM209.128 18.35C208.344 18.35 207.714 18.602 207.238 19.106C206.771 19.6007 206.538 20.2867 206.538 21.164C206.538 22.0413 206.771 22.732 207.238 23.236C207.714 23.7307 208.344 23.978 209.128 23.978C209.632 23.978 210.08 23.8613 210.472 23.628C210.873 23.3947 211.186 23.068 211.41 22.648C211.634 22.2187 211.746 21.724 211.746 21.164C211.746 20.604 211.634 20.1093 211.41 19.68C211.186 19.2507 210.873 18.924 210.472 18.7C210.08 18.4667 209.632 18.35 209.128 18.35ZM224.497 17.188C225.393 17.188 226.112 17.4773 226.653 18.056C227.204 18.6253 227.479 19.4513 227.479 20.534V25H226.205V20.646C226.205 19.89 226.019 19.3113 225.645 18.91C225.281 18.5087 224.777 18.308 224.133 18.308C223.461 18.308 222.92 18.532 222.509 18.98C222.108 19.4187 221.907 20.0673 221.907 20.926V25H220.633V20.646C220.633 19.89 220.447 19.3113 220.073 18.91C219.7 18.5087 219.196 18.308 218.561 18.308C217.88 18.308 217.334 18.532 216.923 18.98C216.522 19.4187 216.321 20.0673 216.321 20.926V25H215.047V17.314H216.321V19.064C216.508 18.4573 216.839 17.9953 217.315 17.678C217.801 17.3513 218.356 17.188 218.981 17.188C219.635 17.188 220.199 17.356 220.675 17.692C221.161 18.0187 221.506 18.504 221.711 19.148C221.926 18.5227 222.285 18.042 222.789 17.706C223.293 17.3607 223.863 17.188 224.497 17.188ZM236.528 20.73C236.528 21.0007 236.509 21.234 236.472 21.43H230.326C230.354 22.3073 230.601 22.9653 231.068 23.404C231.544 23.8427 232.122 24.062 232.804 24.062C233.42 24.062 233.933 23.908 234.344 23.6C234.764 23.2827 235.02 22.8627 235.114 22.34H236.472C236.378 22.872 236.168 23.348 235.842 23.768C235.524 24.188 235.109 24.5147 234.596 24.748C234.082 24.9813 233.504 25.098 232.86 25.098C232.122 25.098 231.469 24.9393 230.9 24.622C230.33 24.3047 229.882 23.852 229.556 23.264C229.238 22.6667 229.08 21.9667 229.08 21.164C229.08 20.3613 229.238 19.6613 229.556 19.064C229.882 18.4667 230.33 18.0093 230.9 17.692C231.469 17.3747 232.122 17.216 232.86 17.216C233.606 17.216 234.255 17.3747 234.806 17.692C235.366 18.0093 235.79 18.434 236.08 18.966C236.378 19.498 236.528 20.086 236.528 20.73ZM235.24 20.814C235.268 20.2447 235.174 19.7687 234.96 19.386C234.745 19.0033 234.451 18.7187 234.078 18.532C233.704 18.3453 233.298 18.252 232.86 18.252C232.16 18.252 231.572 18.4713 231.096 18.91C230.62 19.3393 230.363 19.974 230.326 20.814H235.24ZM241.862 23.88V25H240.91C240.126 25 239.538 24.8133 239.146 24.44C238.763 24.0667 238.572 23.4413 238.572 22.564V18.42H237.424V17.314H238.572V15.396H239.86V17.314H241.848V18.42H239.86V22.592C239.86 23.0867 239.949 23.4273 240.126 23.614C240.313 23.7913 240.63 23.88 241.078 23.88H241.862Z" fill="#2A2B3C"/>
<rect width="40" height="40" rx="8" fill="#F7F8FA"/>
<path d="M16.8542 16.3533C16.8542 16.0294 16.8542 9.11005 16.8542 8.78262C16.8542 8.35044 16.5125 8 16.0782 8H12.9323C12.498 8 12.1458 8.35039 12.1458 8.78262C12.1458 9.113 12.1458 16.0308 12.1458 16.3533C10.2433 17.2517 9 19.1761 9 21.3043V29.6522C9 30.9468 10.0584 32 11.3594 32H17.6511C18.9521 32 20 30.9468 20 29.6522V28.087V21.3043C20 19.1762 18.7567 17.2518 16.8542 16.3533ZM13.7083 9.5652H15.2917V11.1304H13.7083V9.5652ZM18.4376 29.6522C18.4376 30.0837 18.0848 30.4348 17.6511 30.4348H11.3594C10.9257 30.4348 10.5624 30.0837 10.5624 29.6522V21.3043C10.5624 19.6483 11.6264 18.1652 13.1944 17.6138C13.5087 17.5032 13.7083 17.2076 13.7083 16.8759V12.6957H15.2917V16.8759C15.2917 17.2076 15.5018 17.5032 15.8161 17.6138C17.1318 18.0766 18.0849 19.1954 18.3577 20.5218H14.5053C14.071 20.5218 13.7188 20.8722 13.7188 21.3044V28.087C13.7188 28.5192 14.0709 28.8696 14.5053 28.8696H18.4376V29.6522H18.4376ZM18.4376 27.3043H15.2812V22.087H18.4376V27.3043Z" fill="#7EA4B5"/>
<path d="M29.9716 30.4546H27.7333V25.7622C31.0494 25.2656 32.7042 21.857 31.7162 18.7738L30.6763 15.5284C30.5752 15.2129 30.2914 15 29.9716 15H24.0292C23.7094 15 23.4256 15.2128 23.3245 15.5283L22.2846 18.7737C21.2993 21.8483 22.9322 25.2643 26.2575 25.7622V30.4545H24.0291C23.6189 30.4545 23.2863 30.8005 23.2863 31.2273C23.2863 31.654 23.6189 32 24.0291 32H29.9716C30.3819 32 30.7145 31.654 30.7145 31.2273C30.7145 30.8005 30.3819 30.4546 29.9716 30.4546ZM23.6939 19.2625L24.5645 16.5455H29.4363L30.3069 19.2625C30.4067 19.574 30.469 19.8897 30.4972 20.2031H23.5036C23.5319 19.8897 23.5941 19.574 23.6939 19.2625ZM27.0004 24.2727C27.0001 24.2727 26.9999 24.2727 26.9997 24.2727C25.4951 24.2724 24.1259 23.3707 23.6502 21.7434H30.3505C29.8759 23.3668 28.5094 24.2725 27.0011 24.2727C27.0009 24.2727 27.0006 24.2727 27.0004 24.2727Z" fill="#7EA4B5"/>
<path d="M379.296 24.006H382.796V25H378.022V15.13H379.296V24.006ZM387.578 17.216C388.316 17.216 388.974 17.3747 389.552 17.692C390.14 18.0093 390.598 18.4667 390.924 19.064C391.26 19.6613 391.428 20.3613 391.428 21.164C391.428 21.9667 391.26 22.6667 390.924 23.264C390.598 23.852 390.14 24.3047 389.552 24.622C388.974 24.9393 388.316 25.098 387.578 25.098C386.841 25.098 386.178 24.9393 385.59 24.622C385.012 24.3047 384.554 23.852 384.218 23.264C383.882 22.6667 383.714 21.9667 383.714 21.164C383.714 20.3613 383.882 19.6613 384.218 19.064C384.554 18.4667 385.012 18.0093 385.59 17.692C386.178 17.3747 386.841 17.216 387.578 17.216ZM387.578 18.336C387.121 18.336 386.696 18.4387 386.304 18.644C385.922 18.8493 385.609 19.1667 385.366 19.596C385.133 20.016 385.016 20.5387 385.016 21.164C385.016 21.78 385.133 22.3027 385.366 22.732C385.609 23.152 385.922 23.4647 386.304 23.67C386.696 23.8753 387.121 23.978 387.578 23.978C388.036 23.978 388.456 23.8753 388.838 23.67C389.23 23.4647 389.543 23.152 389.776 22.732C390.019 22.3027 390.14 21.78 390.14 21.164C390.14 20.5387 390.019 20.016 389.776 19.596C389.543 19.1667 389.23 18.8493 388.838 18.644C388.456 18.4387 388.036 18.336 387.578 18.336ZM394.362 18.868C394.614 18.336 394.983 17.9253 395.468 17.636C395.954 17.3373 396.532 17.188 397.204 17.188V18.574H396.812C396.094 18.574 395.506 18.7607 395.048 19.134C394.591 19.498 394.362 20.1047 394.362 20.954V25H393.088V17.314H394.362V18.868ZM405.531 20.73C405.531 21.0007 405.513 21.234 405.475 21.43H399.329C399.357 22.3073 399.605 22.9653 400.071 23.404C400.547 23.8427 401.126 24.062 401.807 24.062C402.423 24.062 402.937 23.908 403.347 23.6C403.767 23.2827 404.024 22.8627 404.117 22.34H405.475C405.382 22.872 405.172 23.348 404.845 23.768C404.528 24.188 404.113 24.5147 403.599 24.748C403.086 24.9813 402.507 25.098 401.863 25.098C401.126 25.098 400.473 24.9393 399.903 24.622C399.334 24.3047 398.886 23.852 398.559 23.264C398.242 22.6667 398.083 21.9667 398.083 21.164C398.083 20.3613 398.242 19.6613 398.559 19.064C398.886 18.4667 399.334 18.0093 399.903 17.692C400.473 17.3747 401.126 17.216 401.863 17.216C402.61 17.216 403.259 17.3747 403.809 17.692C404.369 18.0093 404.794 18.434 405.083 18.966C405.382 19.498 405.531 20.086 405.531 20.73ZM404.243 20.814C404.271 20.2447 404.178 19.7687 403.963 19.386C403.749 19.0033 403.455 18.7187 403.081 18.532C402.708 18.3453 402.302 18.252 401.863 18.252C401.163 18.252 400.575 18.4713 400.099 18.91C399.623 19.3393 399.367 19.974 399.329 20.814H404.243ZM416.648 17.188C417.544 17.188 418.262 17.4773 418.804 18.056C419.354 18.6253 419.63 19.4513 419.63 20.534V25H418.356V20.646C418.356 19.89 418.169 19.3113 417.796 18.91C417.432 18.5087 416.928 18.308 416.284 18.308C415.612 18.308 415.07 18.532 414.66 18.98C414.258 19.4187 414.058 20.0673 414.058 20.926V25H412.784V20.646C412.784 19.89 412.597 19.3113 412.224 18.91C411.85 18.5087 411.346 18.308 410.712 18.308C410.03 18.308 409.484 18.532 409.074 18.98C408.672 19.4187 408.472 20.0673 408.472 20.926V25H407.198V17.314H408.472V19.064C408.658 18.4573 408.99 17.9953 409.466 17.678C409.951 17.3513 410.506 17.188 411.132 17.188C411.785 17.188 412.35 17.356 412.826 17.692C413.311 18.0187 413.656 18.504 413.862 19.148C414.076 18.5227 414.436 18.042 414.94 17.706C415.444 17.3607 416.013 17.188 416.648 17.188ZM424.843 15.06C424.843 14.8267 424.922 14.64 425.081 14.5C425.24 14.3507 425.45 14.276 425.711 14.276C425.972 14.276 426.182 14.3507 426.341 14.5C426.5 14.64 426.579 14.8267 426.579 15.06C426.579 15.2933 426.5 15.4847 426.341 15.634C426.182 15.774 425.972 15.844 425.711 15.844C425.45 15.844 425.24 15.774 425.081 15.634C424.922 15.4847 424.843 15.2933 424.843 15.06ZM426.341 17.314V25H425.067V17.314H426.341ZM432.631 17.216C433.313 17.216 433.919 17.3747 434.451 17.692C434.983 18.0093 435.399 18.4667 435.697 19.064C436.005 19.6613 436.159 20.3613 436.159 21.164C436.159 21.9667 436.005 22.6667 435.697 23.264C435.399 23.852 434.983 24.3047 434.451 24.622C433.919 24.9393 433.313 25.098 432.631 25.098C431.885 25.098 431.25 24.9113 430.727 24.538C430.214 24.1553 429.859 23.656 429.663 23.04V28.64H428.389V17.314H429.663V19.274C429.859 18.658 430.214 18.1633 430.727 17.79C431.25 17.4073 431.885 17.216 432.631 17.216ZM432.267 18.35C431.773 18.35 431.325 18.4667 430.923 18.7C430.522 18.924 430.209 19.2507 429.985 19.68C429.761 20.1093 429.649 20.604 429.649 21.164C429.649 21.724 429.761 22.2187 429.985 22.648C430.209 23.068 430.522 23.3947 430.923 23.628C431.325 23.8613 431.773 23.978 432.267 23.978C433.061 23.978 433.691 23.7307 434.157 23.236C434.633 22.732 434.871 22.0413 434.871 21.164C434.871 20.2867 434.633 19.6007 434.157 19.106C433.691 18.602 433.061 18.35 432.267 18.35ZM440.231 17.216C441.099 17.216 441.794 17.4447 442.317 17.902C442.849 18.35 443.171 18.9567 443.283 19.722H442.065C442.009 19.2647 441.817 18.8913 441.491 18.602C441.173 18.3033 440.744 18.154 440.203 18.154C439.745 18.154 439.386 18.266 439.125 18.49C438.873 18.7047 438.747 18.9987 438.747 19.372C438.747 19.652 438.831 19.8807 438.999 20.058C439.176 20.226 439.391 20.3567 439.643 20.45C439.904 20.534 440.259 20.6273 440.707 20.73C441.276 20.8607 441.733 20.996 442.079 21.136C442.433 21.2667 442.732 21.4813 442.975 21.78C443.227 22.0787 443.353 22.48 443.353 22.984C443.353 23.6093 443.115 24.118 442.639 24.51C442.172 24.902 441.547 25.098 440.763 25.098C439.848 25.098 439.101 24.8787 438.523 24.44C437.944 24.0013 437.603 23.39 437.501 22.606H438.733C438.779 23.0727 438.98 23.4507 439.335 23.74C439.699 24.0293 440.175 24.174 440.763 24.174C441.201 24.174 441.542 24.062 441.785 23.838C442.037 23.614 442.163 23.32 442.163 22.956C442.163 22.6573 442.074 22.4193 441.897 22.242C441.719 22.0647 441.5 21.9293 441.239 21.836C440.977 21.7427 440.618 21.6447 440.161 21.542C439.591 21.4113 439.134 21.2807 438.789 21.15C438.453 21.0193 438.163 20.814 437.921 20.534C437.687 20.2447 437.571 19.8573 437.571 19.372C437.571 18.728 437.809 18.21 438.285 17.818C438.761 17.4167 439.409 17.216 440.231 17.216ZM451.887 17.314V25H450.613V23.194C450.417 23.8193 450.067 24.3 449.563 24.636C449.069 24.9627 448.49 25.126 447.827 25.126C446.941 25.126 446.222 24.8413 445.671 24.272C445.121 23.6933 444.845 22.8673 444.845 21.794V17.314H446.119V21.668C446.119 22.4333 446.315 23.026 446.707 23.446C447.099 23.8567 447.631 24.062 448.303 24.062C449.003 24.062 449.563 23.838 449.983 23.39C450.403 22.9327 450.613 22.27 450.613 21.402V17.314H451.887ZM463.378 17.188C464.274 17.188 464.993 17.4773 465.534 18.056C466.085 18.6253 466.36 19.4513 466.36 20.534V25H465.086V20.646C465.086 19.89 464.9 19.3113 464.526 18.91C464.162 18.5087 463.658 18.308 463.014 18.308C462.342 18.308 461.801 18.532 461.39 18.98C460.989 19.4187 460.788 20.0673 460.788 20.926V25H459.514V20.646C459.514 19.89 459.328 19.3113 458.954 18.91C458.581 18.5087 458.077 18.308 457.442 18.308C456.761 18.308 456.215 18.532 455.804 18.98C455.403 19.4187 455.202 20.0673 455.202 20.926V25H453.928V17.314H455.202V19.064C455.389 18.4573 455.72 17.9953 456.196 17.678C456.682 17.3513 457.237 17.188 457.862 17.188C458.516 17.188 459.08 17.356 459.556 17.692C460.042 18.0187 460.387 18.504 460.592 19.148C460.807 18.5227 461.166 18.042 461.67 17.706C462.174 17.3607 462.744 17.188 463.378 17.188ZM474.947 17.216C475.694 17.216 476.324 17.4027 476.837 17.776C477.36 18.1493 477.724 18.6487 477.929 19.274V14.64H479.203V25H477.929V23.04C477.724 23.6653 477.36 24.1647 476.837 24.538C476.324 24.9113 475.694 25.098 474.947 25.098C474.266 25.098 473.659 24.9393 473.127 24.622C472.595 24.3047 472.175 23.852 471.867 23.264C471.569 22.6667 471.419 21.9667 471.419 21.164C471.419 20.3613 471.569 19.6613 471.867 19.064C472.175 18.4667 472.595 18.0093 473.127 17.692C473.659 17.3747 474.266 17.216 474.947 17.216ZM475.311 18.35C474.527 18.35 473.897 18.602 473.421 19.106C472.955 19.6007 472.721 20.2867 472.721 21.164C472.721 22.0413 472.955 22.732 473.421 23.236C473.897 23.7307 474.527 23.978 475.311 23.978C475.815 23.978 476.263 23.8613 476.655 23.628C477.057 23.3947 477.369 23.068 477.593 22.648C477.817 22.2187 477.929 21.724 477.929 21.164C477.929 20.604 477.817 20.1093 477.593 19.68C477.369 19.2507 477.057 18.924 476.655 18.7C476.263 18.4667 475.815 18.35 475.311 18.35ZM484.717 17.216C485.454 17.216 486.112 17.3747 486.691 17.692C487.279 18.0093 487.736 18.4667 488.063 19.064C488.399 19.6613 488.567 20.3613 488.567 21.164C488.567 21.9667 488.399 22.6667 488.063 23.264C487.736 23.852 487.279 24.3047 486.691 24.622C486.112 24.9393 485.454 25.098 484.717 25.098C483.98 25.098 483.317 24.9393 482.729 24.622C482.15 24.3047 481.693 23.852 481.357 23.264C481.021 22.6667 480.853 21.9667 480.853 21.164C480.853 20.3613 481.021 19.6613 481.357 19.064C481.693 18.4667 482.15 18.0093 482.729 17.692C483.317 17.3747 483.98 17.216 484.717 17.216ZM484.717 18.336C484.26 18.336 483.835 18.4387 483.443 18.644C483.06 18.8493 482.748 19.1667 482.505 19.596C482.272 20.016 482.155 20.5387 482.155 21.164C482.155 21.78 482.272 22.3027 482.505 22.732C482.748 23.152 483.06 23.4647 483.443 23.67C483.835 23.8753 484.26 23.978 484.717 23.978C485.174 23.978 485.594 23.8753 485.977 23.67C486.369 23.4647 486.682 23.152 486.915 22.732C487.158 22.3027 487.279 21.78 487.279 21.164C487.279 20.5387 487.158 20.016 486.915 19.596C486.682 19.1667 486.369 18.8493 485.977 18.644C485.594 18.4387 485.174 18.336 484.717 18.336ZM491.501 14.64V25H490.227V14.64H491.501ZM497.035 17.216C497.773 17.216 498.431 17.3747 499.009 17.692C499.597 18.0093 500.055 18.4667 500.381 19.064C500.717 19.6613 500.885 20.3613 500.885 21.164C500.885 21.9667 500.717 22.6667 500.381 23.264C500.055 23.852 499.597 24.3047 499.009 24.622C498.431 24.9393 497.773 25.098 497.035 25.098C496.298 25.098 495.635 24.9393 495.047 24.622C494.469 24.3047 494.011 23.852 493.675 23.264C493.339 22.6667 493.171 21.9667 493.171 21.164C493.171 20.3613 493.339 19.6613 493.675 19.064C494.011 18.4667 494.469 18.0093 495.047 17.692C495.635 17.3747 496.298 17.216 497.035 17.216ZM497.035 18.336C496.578 18.336 496.153 18.4387 495.761 18.644C495.379 18.8493 495.066 19.1667 494.823 19.596C494.59 20.016 494.473 20.5387 494.473 21.164C494.473 21.78 494.59 22.3027 494.823 22.732C495.066 23.152 495.379 23.4647 495.761 23.67C496.153 23.8753 496.578 23.978 497.035 23.978C497.493 23.978 497.913 23.8753 498.295 23.67C498.687 23.4647 499 23.152 499.233 22.732C499.476 22.3027 499.597 21.78 499.597 21.164C499.597 20.5387 499.476 20.016 499.233 19.596C499 19.1667 498.687 18.8493 498.295 18.644C497.913 18.4387 497.493 18.336 497.035 18.336ZM503.819 18.868C504.071 18.336 504.44 17.9253 504.925 17.636C505.411 17.3373 505.989 17.188 506.661 17.188V18.574H506.269C505.551 18.574 504.963 18.7607 504.505 19.134C504.048 19.498 503.819 20.1047 503.819 20.954V25H502.545V17.314H503.819V18.868ZM513.785 17.216C514.653 17.216 515.349 17.4447 515.871 17.902C516.403 18.35 516.725 18.9567 516.837 19.722H515.619C515.563 19.2647 515.372 18.8913 515.045 18.602C514.728 18.3033 514.299 18.154 513.757 18.154C513.3 18.154 512.941 18.266 512.679 18.49C512.427 18.7047 512.301 18.9987 512.301 19.372C512.301 19.652 512.385 19.8807 512.553 20.058C512.731 20.226 512.945 20.3567 513.197 20.45C513.459 20.534 513.813 20.6273 514.261 20.73C514.831 20.8607 515.288 20.996 515.633 21.136C515.988 21.2667 516.287 21.4813 516.529 21.78C516.781 22.0787 516.907 22.48 516.907 22.984C516.907 23.6093 516.669 24.118 516.193 24.51C515.727 24.902 515.101 25.098 514.317 25.098C513.403 25.098 512.656 24.8787 512.077 24.44C511.499 24.0013 511.158 23.39 511.055 22.606H512.287C512.334 23.0727 512.535 23.4507 512.889 23.74C513.253 24.0293 513.729 24.174 514.317 24.174C514.756 24.174 515.097 24.062 515.339 23.838C515.591 23.614 515.717 23.32 515.717 22.956C515.717 22.6573 515.629 22.4193 515.451 22.242C515.274 22.0647 515.055 21.9293 514.793 21.836C514.532 21.7427 514.173 21.6447 513.715 21.542C513.146 21.4113 512.689 21.2807 512.343 21.15C512.007 21.0193 511.718 20.814 511.475 20.534C511.242 20.2447 511.125 19.8573 511.125 19.372C511.125 18.728 511.363 18.21 511.839 17.818C512.315 17.4167 512.964 17.216 513.785 17.216ZM518.386 15.06C518.386 14.8267 518.465 14.64 518.624 14.5C518.783 14.3507 518.993 14.276 519.254 14.276C519.515 14.276 519.725 14.3507 519.884 14.5C520.043 14.64 520.122 14.8267 520.122 15.06C520.122 15.2933 520.043 15.4847 519.884 15.634C519.725 15.774 519.515 15.844 519.254 15.844C518.993 15.844 518.783 15.774 518.624 15.634C518.465 15.4847 518.386 15.2933 518.386 15.06ZM519.884 17.314V25H518.61V17.314H519.884ZM525.6 23.88V25H524.648C523.864 25 523.276 24.8133 522.884 24.44C522.501 24.0667 522.31 23.4413 522.31 22.564V18.42H521.162V17.314H522.31V15.396H523.598V17.314H525.586V18.42H523.598V22.592C523.598 23.0867 523.687 23.4273 523.864 23.614C524.051 23.7913 524.368 23.88 524.816 23.88H525.6ZM533.764 17.216C534.51 17.216 535.14 17.4027 535.654 17.776C536.176 18.1493 536.54 18.6487 536.746 19.274V17.314H538.02V25H536.746V23.04C536.54 23.6653 536.176 24.1647 535.654 24.538C535.14 24.9113 534.51 25.098 533.764 25.098C533.082 25.098 532.476 24.9393 531.944 24.622C531.412 24.3047 530.992 23.852 530.684 23.264C530.385 22.6667 530.236 21.9667 530.236 21.164C530.236 20.3613 530.385 19.6613 530.684 19.064C530.992 18.4667 531.412 18.0093 531.944 17.692C532.476 17.3747 533.082 17.216 533.764 17.216ZM534.128 18.35C533.344 18.35 532.714 18.602 532.238 19.106C531.771 19.6007 531.538 20.2867 531.538 21.164C531.538 22.0413 531.771 22.732 532.238 23.236C532.714 23.7307 533.344 23.978 534.128 23.978C534.632 23.978 535.08 23.8613 535.472 23.628C535.873 23.3947 536.186 23.068 536.41 22.648C536.634 22.2187 536.746 21.724 536.746 21.164C536.746 20.604 536.634 20.1093 536.41 19.68C536.186 19.2507 535.873 18.924 535.472 18.7C535.08 18.4667 534.632 18.35 534.128 18.35ZM549.497 17.188C550.393 17.188 551.112 17.4773 551.653 18.056C552.204 18.6253 552.479 19.4513 552.479 20.534V25H551.205V20.646C551.205 19.89 551.019 19.3113 550.645 18.91C550.281 18.5087 549.777 18.308 549.133 18.308C548.461 18.308 547.92 18.532 547.509 18.98C547.108 19.4187 546.907 20.0673 546.907 20.926V25H545.633V20.646C545.633 19.89 545.447 19.3113 545.073 18.91C544.7 18.5087 544.196 18.308 543.561 18.308C542.88 18.308 542.334 18.532 541.923 18.98C541.522 19.4187 541.321 20.0673 541.321 20.926V25H540.047V17.314H541.321V19.064C541.508 18.4573 541.839 17.9953 542.315 17.678C542.801 17.3513 543.356 17.188 543.981 17.188C544.635 17.188 545.199 17.356 545.675 17.692C546.161 18.0187 546.506 18.504 546.711 19.148C546.926 18.5227 547.285 18.042 547.789 17.706C548.293 17.3607 548.863 17.188 549.497 17.188ZM561.528 20.73C561.528 21.0007 561.509 21.234 561.472 21.43H555.326C555.354 22.3073 555.601 22.9653 556.068 23.404C556.544 23.8427 557.122 24.062 557.804 24.062C558.42 24.062 558.933 23.908 559.344 23.6C559.764 23.2827 560.02 22.8627 560.114 22.34H561.472C561.378 22.872 561.168 23.348 560.842 23.768C560.524 24.188 560.109 24.5147 559.596 24.748C559.082 24.9813 558.504 25.098 557.86 25.098C557.122 25.098 556.469 24.9393 555.9 24.622C555.33 24.3047 554.882 23.852 554.556 23.264C554.238 22.6667 554.08 21.9667 554.08 21.164C554.08 20.3613 554.238 19.6613 554.556 19.064C554.882 18.4667 555.33 18.0093 555.9 17.692C556.469 17.3747 557.122 17.216 557.86 17.216C558.606 17.216 559.255 17.3747 559.806 17.692C560.366 18.0093 560.79 18.434 561.08 18.966C561.378 19.498 561.528 20.086 561.528 20.73ZM560.24 20.814C560.268 20.2447 560.174 19.7687 559.96 19.386C559.745 19.0033 559.451 18.7187 559.078 18.532C558.704 18.3453 558.298 18.252 557.86 18.252C557.16 18.252 556.572 18.4713 556.096 18.91C555.62 19.3393 555.363 19.974 555.326 20.814H560.24ZM566.862 23.88V25H565.91C565.126 25 564.538 24.8133 564.146 24.44C563.763 24.0667 563.572 23.4413 563.572 22.564V18.42H562.424V17.314H563.572V15.396H564.86V17.314H566.848V18.42H564.86V22.592C564.86 23.0867 564.949 23.4273 565.126 23.614C565.313 23.7913 565.63 23.88 566.078 23.88H566.862Z" fill="#2A2B3C"/>
<rect x="325" width="40" height="40" rx="8" fill="#F7F8FA"/>
<path fill-rule="evenodd" clip-rule="evenodd" d="M345 10C342.878 10 340.843 10.8429 339.343 12.3431C337.843 13.8434 337 15.8783 337 18C337 21.0981 339.016 24.1042 341.226 26.4373C342.311 27.5822 343.399 28.5195 344.217 29.1708C344.521 29.4133 344.787 29.6152 345 29.7726C345.213 29.6152 345.479 29.4133 345.783 29.1708C346.601 28.5195 347.689 27.5822 348.774 26.4373C350.984 24.1042 353 21.0981 353 18C353 15.8783 352.157 13.8434 350.657 12.3431C349.157 10.8429 347.122 10 345 10ZM345 31C344.445 31.8321 344.445 31.8319 344.445 31.8317L344.442 31.8298L344.435 31.8253L344.412 31.8098C344.393 31.7966 344.365 31.7776 344.33 31.753C344.259 31.7038 344.156 31.6321 344.028 31.5392C343.771 31.3534 343.406 31.0822 342.971 30.7354C342.101 30.043 340.939 29.0428 339.774 27.8127C337.484 25.3958 335 21.9019 335 18C335 15.3478 336.054 12.8043 337.929 10.9289C339.804 9.05357 342.348 8 345 8C347.652 8 350.196 9.05357 352.071 10.9289C353.946 12.8043 355 15.3478 355 18C355 21.9019 352.516 25.3958 350.226 27.8127C349.061 29.0428 347.899 30.043 347.029 30.7354C346.594 31.0822 346.229 31.3534 345.972 31.5392C345.844 31.6321 345.741 31.7038 345.67 31.753C345.635 31.7776 345.607 31.7966 345.588 31.8098L345.565 31.8253L345.558 31.8298L345.556 31.8312C345.556 31.8314 345.555 31.8321 345 31ZM345 31L345.555 31.8321C345.219 32.056 344.781 32.0556 344.445 31.8317L345 31Z" fill="#7EA4B5"/>
<path fill-rule="evenodd" clip-rule="evenodd" d="M345 16C343.895 16 343 16.8954 343 18C343 19.1046 343.895 20 345 20C346.105 20 347 19.1046 347 18C347 16.8954 346.105 16 345 16ZM341 18C341 15.7909 342.791 14 345 14C347.209 14 349 15.7909 349 18C349 20.2091 347.209 22 345 22C342.791 22 341 20.2091 341 18Z" fill="#7EA4B5"/>
<path d="M54.296 84.006H57.796V85H53.022V75.13H54.296V84.006ZM62.5783 77.216C63.3156 77.216 63.9736 77.3747 64.5523 77.692C65.1403 78.0093 65.5976 78.4667 65.9243 79.064C66.2603 79.6613 66.4283 80.3613 66.4283 81.164C66.4283 81.9667 66.2603 82.6667 65.9243 83.264C65.5976 83.852 65.1403 84.3047 64.5523 84.622C63.9736 84.9393 63.3156 85.098 62.5783 85.098C61.841 85.098 61.1783 84.9393 60.5903 84.622C60.0116 84.3047 59.5543 83.852 59.2183 83.264C58.8823 82.6667 58.7143 81.9667 58.7143 81.164C58.7143 80.3613 58.8823 79.6613 59.2183 79.064C59.5543 78.4667 60.0116 78.0093 60.5903 77.692C61.1783 77.3747 61.841 77.216 62.5783 77.216ZM62.5783 78.336C62.121 78.336 61.6963 78.4387 61.3043 78.644C60.9216 78.8493 60.609 79.1667 60.3663 79.596C60.133 80.016 60.0163 80.5387 60.0163 81.164C60.0163 81.78 60.133 82.3027 60.3663 82.732C60.609 83.152 60.9216 83.4647 61.3043 83.67C61.6963 83.8753 62.121 83.978 62.5783 83.978C63.0356 83.978 63.4556 83.8753 63.8383 83.67C64.2303 83.4647 64.543 83.152 64.7763 82.732C65.019 82.3027 65.1403 81.78 65.1403 81.164C65.1403 80.5387 65.019 80.016 64.7763 79.596C64.543 79.1667 64.2303 78.8493 63.8383 78.644C63.4556 78.4387 63.0356 78.336 62.5783 78.336ZM69.3624 78.868C69.6144 78.336 69.9831 77.9253 70.4684 77.636C70.9537 77.3373 71.5324 77.188 72.2044 77.188V78.574H71.8124C71.0937 78.574 70.5057 78.7607 70.0484 79.134C69.5911 79.498 69.3624 80.1047 69.3624 80.954V85H68.0884V77.314H69.3624V78.868ZM80.5315 80.73C80.5315 81.0007 80.5128 81.234 80.4755 81.43H74.3295C74.3575 82.3073 74.6048 82.9653 75.0715 83.404C75.5475 83.8427 76.1261 84.062 76.8075 84.062C77.4235 84.062 77.9368 83.908 78.3475 83.6C78.7675 83.2827 79.0241 82.8627 79.1175 82.34H80.4755C80.3821 82.872 80.1721 83.348 79.8455 83.768C79.5281 84.188 79.1128 84.5147 78.5995 84.748C78.0861 84.9813 77.5075 85.098 76.8635 85.098C76.1261 85.098 75.4728 84.9393 74.9035 84.622C74.3341 84.3047 73.8861 83.852 73.5595 83.264C73.2421 82.6667 73.0835 81.9667 73.0835 81.164C73.0835 80.3613 73.2421 79.6613 73.5595 79.064C73.8861 78.4667 74.3341 78.0093 74.9035 77.692C75.4728 77.3747 76.1261 77.216 76.8635 77.216C77.6101 77.216 78.2588 77.3747 78.8095 77.692C79.3695 78.0093 79.7941 78.434 80.0835 78.966C80.3821 79.498 80.5315 80.086 80.5315 80.73ZM79.2435 80.814C79.2715 80.2447 79.1781 79.7687 78.9635 79.386C78.7488 79.0033 78.4548 78.7187 78.0815 78.532C77.7081 78.3453 77.3021 78.252 76.8635 78.252C76.1635 78.252 75.5755 78.4713 75.0995 78.91C74.6235 79.3393 74.3668 79.974 74.3295 80.814H79.2435ZM91.6478 77.188C92.5438 77.188 93.2624 77.4773 93.8038 78.056C94.3544 78.6253 94.6298 79.4513 94.6298 80.534V85H93.3558V80.646C93.3558 79.89 93.1691 79.3113 92.7958 78.91C92.4318 78.5087 91.9278 78.308 91.2838 78.308C90.6118 78.308 90.0704 78.532 89.6598 78.98C89.2584 79.4187 89.0578 80.0673 89.0578 80.926V85H87.7838V80.646C87.7838 79.89 87.5971 79.3113 87.2238 78.91C86.8504 78.5087 86.3464 78.308 85.7118 78.308C85.0304 78.308 84.4844 78.532 84.0738 78.98C83.6724 79.4187 83.4718 80.0673 83.4718 80.926V85H82.1978V77.314H83.4718V79.064C83.6584 78.4573 83.9898 77.9953 84.4658 77.678C84.9511 77.3513 85.5064 77.188 86.1318 77.188C86.7851 77.188 87.3498 77.356 87.8258 77.692C88.3111 78.0187 88.6564 78.504 88.8618 79.148C89.0764 78.5227 89.4358 78.042 89.9398 77.706C90.4438 77.3607 91.0131 77.188 91.6478 77.188ZM99.8429 75.06C99.8429 74.8267 99.9223 74.64 100.081 74.5C100.24 74.3507 100.45 74.276 100.711 74.276C100.972 74.276 101.182 74.3507 101.341 74.5C101.5 74.64 101.579 74.8267 101.579 75.06C101.579 75.2933 101.5 75.4847 101.341 75.634C101.182 75.774 100.972 75.844 100.711 75.844C100.45 75.844 100.24 75.774 100.081 75.634C99.9223 75.4847 99.8429 75.2933 99.8429 75.06ZM101.341 77.314V85H100.067V77.314H101.341ZM107.631 77.216C108.313 77.216 108.919 77.3747 109.451 77.692C109.983 78.0093 110.399 78.4667 110.697 79.064C111.005 79.6613 111.159 80.3613 111.159 81.164C111.159 81.9667 111.005 82.6667 110.697 83.264C110.399 83.852 109.983 84.3047 109.451 84.622C108.919 84.9393 108.313 85.098 107.631 85.098C106.885 85.098 106.25 84.9113 105.727 84.538C105.214 84.1553 104.859 83.656 104.663 83.04V88.64H103.389V77.314H104.663V79.274C104.859 78.658 105.214 78.1633 105.727 77.79C106.25 77.4073 106.885 77.216 107.631 77.216ZM107.267 78.35C106.773 78.35 106.325 78.4667 105.923 78.7C105.522 78.924 105.209 79.2507 104.985 79.68C104.761 80.1093 104.649 80.604 104.649 81.164C104.649 81.724 104.761 82.2187 104.985 82.648C105.209 83.068 105.522 83.3947 105.923 83.628C106.325 83.8613 106.773 83.978 107.267 83.978C108.061 83.978 108.691 83.7307 109.157 83.236C109.633 82.732 109.871 82.0413 109.871 81.164C109.871 80.2867 109.633 79.6007 109.157 79.106C108.691 78.602 108.061 78.35 107.267 78.35ZM115.231 77.216C116.099 77.216 116.794 77.4447 117.317 77.902C117.849 78.35 118.171 78.9567 118.283 79.722H117.065C117.009 79.2647 116.817 78.8913 116.491 78.602C116.173 78.3033 115.744 78.154 115.203 78.154C114.745 78.154 114.386 78.266 114.125 78.49C113.873 78.7047 113.747 78.9987 113.747 79.372C113.747 79.652 113.831 79.8807 113.999 80.058C114.176 80.226 114.391 80.3567 114.643 80.45C114.904 80.534 115.259 80.6273 115.707 80.73C116.276 80.8607 116.733 80.996 117.079 81.136C117.433 81.2667 117.732 81.4813 117.975 81.78C118.227 82.0787 118.353 82.48 118.353 82.984C118.353 83.6093 118.115 84.118 117.639 84.51C117.172 84.902 116.547 85.098 115.763 85.098C114.848 85.098 114.101 84.8787 113.523 84.44C112.944 84.0013 112.603 83.39 112.501 82.606H113.733C113.779 83.0727 113.98 83.4507 114.335 83.74C114.699 84.0293 115.175 84.174 115.763 84.174C116.201 84.174 116.542 84.062 116.785 83.838C117.037 83.614 117.163 83.32 117.163 82.956C117.163 82.6573 117.074 82.4193 116.897 82.242C116.719 82.0647 116.5 81.9293 116.239 81.836C115.977 81.7427 115.618 81.6447 115.161 81.542C114.591 81.4113 114.134 81.2807 113.789 81.15C113.453 81.0193 113.163 80.814 112.921 80.534C112.687 80.2447 112.571 79.8573 112.571 79.372C112.571 78.728 112.809 78.21 113.285 77.818C113.761 77.4167 114.409 77.216 115.231 77.216ZM126.887 77.314V85H125.613V83.194C125.417 83.8193 125.067 84.3 124.563 84.636C124.069 84.9627 123.49 85.126 122.827 85.126C121.941 85.126 121.222 84.8413 120.671 84.272C120.121 83.6933 119.845 82.8673 119.845 81.794V77.314H121.119V81.668C121.119 82.4333 121.315 83.026 121.707 83.446C122.099 83.8567 122.631 84.062 123.303 84.062C124.003 84.062 124.563 83.838 124.983 83.39C125.403 82.9327 125.613 82.27 125.613 81.402V77.314H126.887ZM138.378 77.188C139.274 77.188 139.993 77.4773 140.534 78.056C141.085 78.6253 141.36 79.4513 141.36 80.534V85H140.086V80.646C140.086 79.89 139.9 79.3113 139.526 78.91C139.162 78.5087 138.658 78.308 138.014 78.308C137.342 78.308 136.801 78.532 136.39 78.98C135.989 79.4187 135.788 80.0673 135.788 80.926V85H134.514V80.646C134.514 79.89 134.328 79.3113 133.954 78.91C133.581 78.5087 133.077 78.308 132.442 78.308C131.761 78.308 131.215 78.532 130.804 78.98C130.403 79.4187 130.202 80.0673 130.202 80.926V85H128.928V77.314H130.202V79.064C130.389 78.4573 130.72 77.9953 131.196 77.678C131.682 77.3513 132.237 77.188 132.862 77.188C133.516 77.188 134.08 77.356 134.556 77.692C135.042 78.0187 135.387 78.504 135.592 79.148C135.807 78.5227 136.166 78.042 136.67 77.706C137.174 77.3607 137.744 77.188 138.378 77.188ZM149.947 77.216C150.694 77.216 151.324 77.4027 151.837 77.776C152.36 78.1493 152.724 78.6487 152.929 79.274V74.64H154.203V85H152.929V83.04C152.724 83.6653 152.36 84.1647 151.837 84.538C151.324 84.9113 150.694 85.098 149.947 85.098C149.266 85.098 148.659 84.9393 148.127 84.622C147.595 84.3047 147.175 83.852 146.867 83.264C146.569 82.6667 146.419 81.9667 146.419 81.164C146.419 80.3613 146.569 79.6613 146.867 79.064C147.175 78.4667 147.595 78.0093 148.127 77.692C148.659 77.3747 149.266 77.216 149.947 77.216ZM150.311 78.35C149.527 78.35 148.897 78.602 148.421 79.106C147.955 79.6007 147.721 80.2867 147.721 81.164C147.721 82.0413 147.955 82.732 148.421 83.236C148.897 83.7307 149.527 83.978 150.311 83.978C150.815 83.978 151.263 83.8613 151.655 83.628C152.057 83.3947 152.369 83.068 152.593 82.648C152.817 82.2187 152.929 81.724 152.929 81.164C152.929 80.604 152.817 80.1093 152.593 79.68C152.369 79.2507 152.057 78.924 151.655 78.7C151.263 78.4667 150.815 78.35 150.311 78.35ZM159.717 77.216C160.454 77.216 161.112 77.3747 161.691 77.692C162.279 78.0093 162.736 78.4667 163.063 79.064C163.399 79.6613 163.567 80.3613 163.567 81.164C163.567 81.9667 163.399 82.6667 163.063 83.264C162.736 83.852 162.279 84.3047 161.691 84.622C161.112 84.9393 160.454 85.098 159.717 85.098C158.98 85.098 158.317 84.9393 157.729 84.622C157.15 84.3047 156.693 83.852 156.357 83.264C156.021 82.6667 155.853 81.9667 155.853 81.164C155.853 80.3613 156.021 79.6613 156.357 79.064C156.693 78.4667 157.15 78.0093 157.729 77.692C158.317 77.3747 158.98 77.216 159.717 77.216ZM159.717 78.336C159.26 78.336 158.835 78.4387 158.443 78.644C158.06 78.8493 157.748 79.1667 157.505 79.596C157.272 80.016 157.155 80.5387 157.155 81.164C157.155 81.78 157.272 82.3027 157.505 82.732C157.748 83.152 158.06 83.4647 158.443 83.67C158.835 83.8753 159.26 83.978 159.717 83.978C160.174 83.978 160.594 83.8753 160.977 83.67C161.369 83.4647 161.682 83.152 161.915 82.732C162.158 82.3027 162.279 81.78 162.279 81.164C162.279 80.5387 162.158 80.016 161.915 79.596C161.682 79.1667 161.369 78.8493 160.977 78.644C160.594 78.4387 160.174 78.336 159.717 78.336ZM166.501 74.64V85H165.227V74.64H166.501ZM172.035 77.216C172.773 77.216 173.431 77.3747 174.009 77.692C174.597 78.0093 175.055 78.4667 175.381 79.064C175.717 79.6613 175.885 80.3613 175.885 81.164C175.885 81.9667 175.717 82.6667 175.381 83.264C175.055 83.852 174.597 84.3047 174.009 84.622C173.431 84.9393 172.773 85.098 172.035 85.098C171.298 85.098 170.635 84.9393 170.047 84.622C169.469 84.3047 169.011 83.852 168.675 83.264C168.339 82.6667 168.171 81.9667 168.171 81.164C168.171 80.3613 168.339 79.6613 168.675 79.064C169.011 78.4667 169.469 78.0093 170.047 77.692C170.635 77.3747 171.298 77.216 172.035 77.216ZM172.035 78.336C171.578 78.336 171.153 78.4387 170.761 78.644C170.379 78.8493 170.066 79.1667 169.823 79.596C169.59 80.016 169.473 80.5387 169.473 81.164C169.473 81.78 169.59 82.3027 169.823 82.732C170.066 83.152 170.379 83.4647 170.761 83.67C171.153 83.8753 171.578 83.978 172.035 83.978C172.493 83.978 172.913 83.8753 173.295 83.67C173.687 83.4647 174 83.152 174.233 82.732C174.476 82.3027 174.597 81.78 174.597 81.164C174.597 80.5387 174.476 80.016 174.233 79.596C174 79.1667 173.687 78.8493 173.295 78.644C172.913 78.4387 172.493 78.336 172.035 78.336ZM178.819 78.868C179.071 78.336 179.44 77.9253 179.925 77.636C180.411 77.3373 180.989 77.188 181.661 77.188V78.574H181.269C180.551 78.574 179.963 78.7607 179.505 79.134C179.048 79.498 178.819 80.1047 178.819 80.954V85H177.545V77.314H178.819V78.868ZM188.785 77.216C189.653 77.216 190.349 77.4447 190.871 77.902C191.403 78.35 191.725 78.9567 191.837 79.722H190.619C190.563 79.2647 190.372 78.8913 190.045 78.602C189.728 78.3033 189.299 78.154 188.757 78.154C188.3 78.154 187.941 78.266 187.679 78.49C187.427 78.7047 187.301 78.9987 187.301 79.372C187.301 79.652 187.385 79.8807 187.553 80.058C187.731 80.226 187.945 80.3567 188.197 80.45C188.459 80.534 188.813 80.6273 189.261 80.73C189.831 80.8607 190.288 80.996 190.633 81.136C190.988 81.2667 191.287 81.4813 191.529 81.78C191.781 82.0787 191.907 82.48 191.907 82.984C191.907 83.6093 191.669 84.118 191.193 84.51C190.727 84.902 190.101 85.098 189.317 85.098C188.403 85.098 187.656 84.8787 187.077 84.44C186.499 84.0013 186.158 83.39 186.055 82.606H187.287C187.334 83.0727 187.535 83.4507 187.889 83.74C188.253 84.0293 188.729 84.174 189.317 84.174C189.756 84.174 190.097 84.062 190.339 83.838C190.591 83.614 190.717 83.32 190.717 82.956C190.717 82.6573 190.629 82.4193 190.451 82.242C190.274 82.0647 190.055 81.9293 189.793 81.836C189.532 81.7427 189.173 81.6447 188.715 81.542C188.146 81.4113 187.689 81.2807 187.343 81.15C187.007 81.0193 186.718 80.814 186.475 80.534C186.242 80.2447 186.125 79.8573 186.125 79.372C186.125 78.728 186.363 78.21 186.839 77.818C187.315 77.4167 187.964 77.216 188.785 77.216ZM193.386 75.06C193.386 74.8267 193.465 74.64 193.624 74.5C193.783 74.3507 193.993 74.276 194.254 74.276C194.515 74.276 194.725 74.3507 194.884 74.5C195.043 74.64 195.122 74.8267 195.122 75.06C195.122 75.2933 195.043 75.4847 194.884 75.634C194.725 75.774 194.515 75.844 194.254 75.844C193.993 75.844 193.783 75.774 193.624 75.634C193.465 75.4847 193.386 75.2933 193.386 75.06ZM194.884 77.314V85H193.61V77.314H194.884ZM200.6 83.88V85H199.648C198.864 85 198.276 84.8133 197.884 84.44C197.501 84.0667 197.31 83.4413 197.31 82.564V78.42H196.162V77.314H197.31V75.396H198.598V77.314H200.586V78.42H198.598V82.592C198.598 83.0867 198.687 83.4273 198.864 83.614C199.051 83.7913 199.368 83.88 199.816 83.88H200.6ZM208.764 77.216C209.51 77.216 210.14 77.4027 210.654 77.776C211.176 78.1493 211.54 78.6487 211.746 79.274V77.314H213.02V85H211.746V83.04C211.54 83.6653 211.176 84.1647 210.654 84.538C210.14 84.9113 209.51 85.098 208.764 85.098C208.082 85.098 207.476 84.9393 206.944 84.622C206.412 84.3047 205.992 83.852 205.684 83.264C205.385 82.6667 205.236 81.9667 205.236 81.164C205.236 80.3613 205.385 79.6613 205.684 79.064C205.992 78.4667 206.412 78.0093 206.944 77.692C207.476 77.3747 208.082 77.216 208.764 77.216ZM209.128 78.35C208.344 78.35 207.714 78.602 207.238 79.106C206.771 79.6007 206.538 80.2867 206.538 81.164C206.538 82.0413 206.771 82.732 207.238 83.236C207.714 83.7307 208.344 83.978 209.128 83.978C209.632 83.978 210.08 83.8613 210.472 83.628C210.873 83.3947 211.186 83.068 211.41 82.648C211.634 82.2187 211.746 81.724 211.746 81.164C211.746 80.604 211.634 80.1093 211.41 79.68C211.186 79.2507 210.873 78.924 210.472 78.7C210.08 78.4667 209.632 78.35 209.128 78.35ZM224.497 77.188C225.393 77.188 226.112 77.4773 226.653 78.056C227.204 78.6253 227.479 79.4513 227.479 80.534V85H226.205V80.646C226.205 79.89 226.019 79.3113 225.645 78.91C225.281 78.5087 224.777 78.308 224.133 78.308C223.461 78.308 222.92 78.532 222.509 78.98C222.108 79.4187 221.907 80.0673 221.907 80.926V85H220.633V80.646C220.633 79.89 220.447 79.3113 220.073 78.91C219.7 78.5087 219.196 78.308 218.561 78.308C217.88 78.308 217.334 78.532 216.923 78.98C216.522 79.4187 216.321 80.0673 216.321 80.926V85H215.047V77.314H216.321V79.064C216.508 78.4573 216.839 77.9953 217.315 77.678C217.801 77.3513 218.356 77.188 218.981 77.188C219.635 77.188 220.199 77.356 220.675 77.692C221.161 78.0187 221.506 78.504 221.711 79.148C221.926 78.5227 222.285 78.042 222.789 77.706C223.293 77.3607 223.863 77.188 224.497 77.188ZM236.528 80.73C236.528 81.0007 236.509 81.234 236.472 81.43H230.326C230.354 82.3073 230.601 82.9653 231.068 83.404C231.544 83.8427 232.122 84.062 232.804 84.062C233.42 84.062 233.933 83.908 234.344 83.6C234.764 83.2827 235.02 82.8627 235.114 82.34H236.472C236.378 82.872 236.168 83.348 235.842 83.768C235.524 84.188 235.109 84.5147 234.596 84.748C234.082 84.9813 233.504 85.098 232.86 85.098C232.122 85.098 231.469 84.9393 230.9 84.622C230.33 84.3047 229.882 83.852 229.556 83.264C229.238 82.6667 229.08 81.9667 229.08 81.164C229.08 80.3613 229.238 79.6613 229.556 79.064C229.882 78.4667 230.33 78.0093 230.9 77.692C231.469 77.3747 232.122 77.216 232.86 77.216C233.606 77.216 234.255 77.3747 234.806 77.692C235.366 78.0093 235.79 78.434 236.08 78.966C236.378 79.498 236.528 80.086 236.528 80.73ZM235.24 80.814C235.268 80.2447 235.174 79.7687 234.96 79.386C234.745 79.0033 234.451 78.7187 234.078 78.532C233.704 78.3453 233.298 78.252 232.86 78.252C232.16 78.252 231.572 78.4713 231.096 78.91C230.62 79.3393 230.363 79.974 230.326 80.814H235.24ZM241.862 83.88V85H240.91C240.126 85 239.538 84.8133 239.146 84.44C238.763 84.0667 238.572 83.4413 238.572 82.564V78.42H237.424V77.314H238.572V75.396H239.86V77.314H241.848V78.42H239.86V82.592C239.86 83.0867 239.949 83.4273 240.126 83.614C240.313 83.7913 240.63 83.88 241.078 83.88H241.862Z" fill="#2A2B3C"/>
<rect y="60" width="40" height="40" rx="8" fill="#F7F8FA"/>
<path d="M30 78.6957C30 76.538 28.2746 74.7826 26.1539 74.7826C25.3482 74.7826 24.5859 75.0311 23.9495 75.4857C23.2667 74.34 22.116 73.5139 20.7692 73.283C20.7692 72.8134 20.7692 72.4319 20.7692 71.9131C20.7692 70.6185 21.8045 69.5652 23.0769 69.5652C23.5017 69.5652 23.8462 69.2149 23.8462 68.7826C23.8462 68.3504 23.5017 68 23.0769 68C21.7137 68 20.5147 68.726 19.8315 69.8172C19.1438 69.0237 18.1383 68.5217 17.0193 68.5217H15.3846C14.9598 68.5217 14.6154 68.8721 14.6154 69.3043V70.9674C14.6154 72.5306 15.5446 73.8765 16.8702 74.4653C16.5525 74.7641 16.2759 75.1074 16.0505 75.4857C15.4141 75.0311 14.6518 74.7826 13.8462 74.7826C11.7254 74.7826 10 76.538 10 78.6957C10 80.6178 11.3696 82.2195 13.1679 82.5465C13.108 82.8227 13.0769 83.1058 13.0769 83.3913C13.0769 85.3135 14.4465 86.9151 16.2448 87.2421C16.1849 87.5183 16.1538 87.8015 16.1538 88.0869C16.1538 90.2446 17.8792 92 20 92C22.1208 92 23.8462 90.2446 23.8462 88.087C23.8462 87.8015 23.815 87.5183 23.7552 87.2422C25.5534 86.9151 26.9231 85.3135 26.9231 83.3914C26.9231 83.1058 26.8919 82.8227 26.8321 82.5466C28.6304 82.2195 30 80.6178 30 78.6957ZM20 74.7826C21.6966 74.7826 23.0769 76.187 23.0769 77.9131C23.0769 79.6392 21.6966 81.0435 20 81.0435C18.3034 81.0435 16.9231 79.6392 16.9231 77.913C16.9231 76.1869 18.3034 74.7826 20 74.7826ZM16.1539 70.9674V70.087H17.0193C18.2387 70.087 19.2308 71.0963 19.2308 72.337V73.2174H18.3654C17.146 73.2174 16.1539 72.208 16.1539 70.9674ZM13.8462 81.0435C12.5737 81.0435 11.5385 79.9902 11.5385 78.6957C11.5385 77.4011 12.5737 76.3478 13.8462 76.3478C14.4636 76.3478 15.0382 76.5919 15.4676 77.0256C15.4134 77.3131 15.3846 77.6097 15.3846 77.9131C15.3846 78.6263 15.542 79.3028 15.8229 79.9088C15.4093 80.6075 14.6654 81.0435 13.8462 81.0435ZM16.9231 85.7391C15.6506 85.7391 14.6154 84.6859 14.6154 83.3913C14.6154 83.0798 14.6763 82.7732 14.7924 82.4889C15.5596 82.292 16.2454 81.8593 16.759 81.2527C17.3807 81.8773 18.1752 82.3242 19.0622 82.5112C19.1725 82.7892 19.2308 83.088 19.2308 83.3914C19.2308 84.6859 18.1955 85.7391 16.9231 85.7391ZM20 90.4348C18.7275 90.4348 17.6923 89.3816 17.6923 88.087C17.6923 87.7753 17.7533 87.4685 17.8696 87.1842C18.7326 86.9611 19.4802 86.4406 20 85.7364C20.5198 86.4406 21.2674 86.9611 22.1304 87.1842C22.2467 87.4685 22.3077 87.7753 22.3077 88.087C22.3077 89.3816 21.2725 90.4348 20 90.4348ZM23.0769 85.7391C21.8045 85.7391 20.7692 84.6859 20.7692 83.3913C20.7692 83.088 20.8275 82.7892 20.9379 82.5111C21.8248 82.3242 22.6193 81.8773 23.241 81.2527C23.7546 81.8593 24.4404 82.292 25.2075 82.4889C25.3237 82.7731 25.3846 83.0798 25.3846 83.3913C25.3846 84.6859 24.3494 85.7391 23.0769 85.7391ZM26.1539 81.0435C25.3346 81.0435 24.5906 80.6076 24.1771 79.9087C24.458 79.3027 24.6154 78.6262 24.6154 77.913C24.6154 77.6097 24.5866 77.3131 24.5324 77.0256C24.9619 76.5918 25.5364 76.3478 26.1539 76.3478C27.4263 76.3478 28.4615 77.401 28.4615 78.6956C28.4615 79.9903 27.4263 81.0435 26.1539 81.0435Z" fill="#7EA4B5"/>
<path d="M379.296 84.006H382.796V85H378.022V75.13H379.296V84.006ZM387.578 77.216C388.316 77.216 388.974 77.3747 389.552 77.692C390.14 78.0093 390.598 78.4667 390.924 79.064C391.26 79.6613 391.428 80.3613 391.428 81.164C391.428 81.9667 391.26 82.6667 390.924 83.264C390.598 83.852 390.14 84.3047 389.552 84.622C388.974 84.9393 388.316 85.098 387.578 85.098C386.841 85.098 386.178 84.9393 385.59 84.622C385.012 84.3047 384.554 83.852 384.218 83.264C383.882 82.6667 383.714 81.9667 383.714 81.164C383.714 80.3613 383.882 79.6613 384.218 79.064C384.554 78.4667 385.012 78.0093 385.59 77.692C386.178 77.3747 386.841 77.216 387.578 77.216ZM387.578 78.336C387.121 78.336 386.696 78.4387 386.304 78.644C385.922 78.8493 385.609 79.1667 385.366 79.596C385.133 80.016 385.016 80.5387 385.016 81.164C385.016 81.78 385.133 82.3027 385.366 82.732C385.609 83.152 385.922 83.4647 386.304 83.67C386.696 83.8753 387.121 83.978 387.578 83.978C388.036 83.978 388.456 83.8753 388.838 83.67C389.23 83.4647 389.543 83.152 389.776 82.732C390.019 82.3027 390.14 81.78 390.14 81.164C390.14 80.5387 390.019 80.016 389.776 79.596C389.543 79.1667 389.23 78.8493 388.838 78.644C388.456 78.4387 388.036 78.336 387.578 78.336ZM394.362 78.868C394.614 78.336 394.983 77.9253 395.468 77.636C395.954 77.3373 396.532 77.188 397.204 77.188V78.574H396.812C396.094 78.574 395.506 78.7607 395.048 79.134C394.591 79.498 394.362 80.1047 394.362 80.954V85H393.088V77.314H394.362V78.868ZM405.531 80.73C405.531 81.0007 405.513 81.234 405.475 81.43H399.329C399.357 82.3073 399.605 82.9653 400.071 83.404C400.547 83.8427 401.126 84.062 401.807 84.062C402.423 84.062 402.937 83.908 403.347 83.6C403.767 83.2827 404.024 82.8627 404.117 82.34H405.475C405.382 82.872 405.172 83.348 404.845 83.768C404.528 84.188 404.113 84.5147 403.599 84.748C403.086 84.9813 402.507 85.098 401.863 85.098C401.126 85.098 400.473 84.9393 399.903 84.622C399.334 84.3047 398.886 83.852 398.559 83.264C398.242 82.6667 398.083 81.9667 398.083 81.164C398.083 80.3613 398.242 79.6613 398.559 79.064C398.886 78.4667 399.334 78.0093 399.903 77.692C400.473 77.3747 401.126 77.216 401.863 77.216C402.61 77.216 403.259 77.3747 403.809 77.692C404.369 78.0093 404.794 78.434 405.083 78.966C405.382 79.498 405.531 80.086 405.531 80.73ZM404.243 80.814C404.271 80.2447 404.178 79.7687 403.963 79.386C403.749 79.0033 403.455 78.7187 403.081 78.532C402.708 78.3453 402.302 78.252 401.863 78.252C401.163 78.252 400.575 78.4713 400.099 78.91C399.623 79.3393 399.367 79.974 399.329 80.814H404.243ZM416.648 77.188C417.544 77.188 418.262 77.4773 418.804 78.056C419.354 78.6253 419.63 79.4513 419.63 80.534V85H418.356V80.646C418.356 79.89 418.169 79.3113 417.796 78.91C417.432 78.5087 416.928 78.308 416.284 78.308C415.612 78.308 415.07 78.532 414.66 78.98C414.258 79.4187 414.058 80.0673 414.058 80.926V85H412.784V80.646C412.784 79.89 412.597 79.3113 412.224 78.91C411.85 78.5087 411.346 78.308 410.712 78.308C410.03 78.308 409.484 78.532 409.074 78.98C408.672 79.4187 408.472 80.0673 408.472 80.926V85H407.198V77.314H408.472V79.064C408.658 78.4573 408.99 77.9953 409.466 77.678C409.951 77.3513 410.506 77.188 411.132 77.188C411.785 77.188 412.35 77.356 412.826 77.692C413.311 78.0187 413.656 78.504 413.862 79.148C414.076 78.5227 414.436 78.042 414.94 77.706C415.444 77.3607 416.013 77.188 416.648 77.188ZM424.843 75.06C424.843 74.8267 424.922 74.64 425.081 74.5C425.24 74.3507 425.45 74.276 425.711 74.276C425.972 74.276 426.182 74.3507 426.341 74.5C426.5 74.64 426.579 74.8267 426.579 75.06C426.579 75.2933 426.5 75.4847 426.341 75.634C426.182 75.774 425.972 75.844 425.711 75.844C425.45 75.844 425.24 75.774 425.081 75.634C424.922 75.4847 424.843 75.2933 424.843 75.06ZM426.341 77.314V85H425.067V77.314H426.341ZM432.631 77.216C433.313 77.216 433.919 77.3747 434.451 77.692C434.983 78.0093 435.399 78.4667 435.697 79.064C436.005 79.6613 436.159 80.3613 436.159 81.164C436.159 81.9667 436.005 82.6667 435.697 83.264C435.399 83.852 434.983 84.3047 434.451 84.622C433.919 84.9393 433.313 85.098 432.631 85.098C431.885 85.098 431.25 84.9113 430.727 84.538C430.214 84.1553 429.859 83.656 429.663 83.04V88.64H428.389V77.314H429.663V79.274C429.859 78.658 430.214 78.1633 430.727 77.79C431.25 77.4073 431.885 77.216 432.631 77.216ZM432.267 78.35C431.773 78.35 431.325 78.4667 430.923 78.7C430.522 78.924 430.209 79.2507 429.985 79.68C429.761 80.1093 429.649 80.604 429.649 81.164C429.649 81.724 429.761 82.2187 429.985 82.648C430.209 83.068 430.522 83.3947 430.923 83.628C431.325 83.8613 431.773 83.978 432.267 83.978C433.061 83.978 433.691 83.7307 434.157 83.236C434.633 82.732 434.871 82.0413 434.871 81.164C434.871 80.2867 434.633 79.6007 434.157 79.106C433.691 78.602 433.061 78.35 432.267 78.35ZM440.231 77.216C441.099 77.216 441.794 77.4447 442.317 77.902C442.849 78.35 443.171 78.9567 443.283 79.722H442.065C442.009 79.2647 441.817 78.8913 441.491 78.602C441.173 78.3033 440.744 78.154 440.203 78.154C439.745 78.154 439.386 78.266 439.125 78.49C438.873 78.7047 438.747 78.9987 438.747 79.372C438.747 79.652 438.831 79.8807 438.999 80.058C439.176 80.226 439.391 80.3567 439.643 80.45C439.904 80.534 440.259 80.6273 440.707 80.73C441.276 80.8607 441.733 80.996 442.079 81.136C442.433 81.2667 442.732 81.4813 442.975 81.78C443.227 82.0787 443.353 82.48 443.353 82.984C443.353 83.6093 443.115 84.118 442.639 84.51C442.172 84.902 441.547 85.098 440.763 85.098C439.848 85.098 439.101 84.8787 438.523 84.44C437.944 84.0013 437.603 83.39 437.501 82.606H438.733C438.779 83.0727 438.98 83.4507 439.335 83.74C439.699 84.0293 440.175 84.174 440.763 84.174C441.201 84.174 441.542 84.062 441.785 83.838C442.037 83.614 442.163 83.32 442.163 82.956C442.163 82.6573 442.074 82.4193 441.897 82.242C441.719 82.0647 441.5 81.9293 441.239 81.836C440.977 81.7427 440.618 81.6447 440.161 81.542C439.591 81.4113 439.134 81.2807 438.789 81.15C438.453 81.0193 438.163 80.814 437.921 80.534C437.687 80.2447 437.571 79.8573 437.571 79.372C437.571 78.728 437.809 78.21 438.285 77.818C438.761 77.4167 439.409 77.216 440.231 77.216ZM451.887 77.314V85H450.613V83.194C450.417 83.8193 450.067 84.3 449.563 84.636C449.069 84.9627 448.49 85.126 447.827 85.126C446.941 85.126 446.222 84.8413 445.671 84.272C445.121 83.6933 444.845 82.8673 444.845 81.794V77.314H446.119V81.668C446.119 82.4333 446.315 83.026 446.707 83.446C447.099 83.8567 447.631 84.062 448.303 84.062C449.003 84.062 449.563 83.838 449.983 83.39C450.403 82.9327 450.613 82.27 450.613 81.402V77.314H451.887ZM463.378 77.188C464.274 77.188 464.993 77.4773 465.534 78.056C466.085 78.6253 466.36 79.4513 466.36 80.534V85H465.086V80.646C465.086 79.89 464.9 79.3113 464.526 78.91C464.162 78.5087 463.658 78.308 463.014 78.308C462.342 78.308 461.801 78.532 461.39 78.98C460.989 79.4187 460.788 80.0673 460.788 80.926V85H459.514V80.646C459.514 79.89 459.328 79.3113 458.954 78.91C458.581 78.5087 458.077 78.308 457.442 78.308C456.761 78.308 456.215 78.532 455.804 78.98C455.403 79.4187 455.202 80.0673 455.202 80.926V85H453.928V77.314H455.202V79.064C455.389 78.4573 455.72 77.9953 456.196 77.678C456.682 77.3513 457.237 77.188 457.862 77.188C458.516 77.188 459.08 77.356 459.556 77.692C460.042 78.0187 460.387 78.504 460.592 79.148C460.807 78.5227 461.166 78.042 461.67 77.706C462.174 77.3607 462.744 77.188 463.378 77.188ZM474.947 77.216C475.694 77.216 476.324 77.4027 476.837 77.776C477.36 78.1493 477.724 78.6487 477.929 79.274V74.64H479.203V85H477.929V83.04C477.724 83.6653 477.36 84.1647 476.837 84.538C476.324 84.9113 475.694 85.098 474.947 85.098C474.266 85.098 473.659 84.9393 473.127 84.622C472.595 84.3047 472.175 83.852 471.867 83.264C471.569 82.6667 471.419 81.9667 471.419 81.164C471.419 80.3613 471.569 79.6613 471.867 79.064C472.175 78.4667 472.595 78.0093 473.127 77.692C473.659 77.3747 474.266 77.216 474.947 77.216ZM475.311 78.35C474.527 78.35 473.897 78.602 473.421 79.106C472.955 79.6007 472.721 80.2867 472.721 81.164C472.721 82.0413 472.955 82.732 473.421 83.236C473.897 83.7307 474.527 83.978 475.311 83.978C475.815 83.978 476.263 83.8613 476.655 83.628C477.057 83.3947 477.369 83.068 477.593 82.648C477.817 82.2187 477.929 81.724 477.929 81.164C477.929 80.604 477.817 80.1093 477.593 79.68C477.369 79.2507 477.057 78.924 476.655 78.7C476.263 78.4667 475.815 78.35 475.311 78.35ZM484.717 77.216C485.454 77.216 486.112 77.3747 486.691 77.692C487.279 78.0093 487.736 78.4667 488.063 79.064C488.399 79.6613 488.567 80.3613 488.567 81.164C488.567 81.9667 488.399 82.6667 488.063 83.264C487.736 83.852 487.279 84.3047 486.691 84.622C486.112 84.9393 485.454 85.098 484.717 85.098C483.98 85.098 483.317 84.9393 482.729 84.622C482.15 84.3047 481.693 83.852 481.357 83.264C481.021 82.6667 480.853 81.9667 480.853 81.164C480.853 80.3613 481.021 79.6613 481.357 79.064C481.693 78.4667 482.15 78.0093 482.729 77.692C483.317 77.3747 483.98 77.216 484.717 77.216ZM484.717 78.336C484.26 78.336 483.835 78.4387 483.443 78.644C483.06 78.8493 482.748 79.1667 482.505 79.596C482.272 80.016 482.155 80.5387 482.155 81.164C482.155 81.78 482.272 82.3027 482.505 82.732C482.748 83.152 483.06 83.4647 483.443 83.67C483.835 83.8753 484.26 83.978 484.717 83.978C485.174 83.978 485.594 83.8753 485.977 83.67C486.369 83.4647 486.682 83.152 486.915 82.732C487.158 82.3027 487.279 81.78 487.279 81.164C487.279 80.5387 487.158 80.016 486.915 79.596C486.682 79.1667 486.369 78.8493 485.977 78.644C485.594 78.4387 485.174 78.336 484.717 78.336ZM491.501 74.64V85H490.227V74.64H491.501ZM497.035 77.216C497.773 77.216 498.431 77.3747 499.009 77.692C499.597 78.0093 500.055 78.4667 500.381 79.064C500.717 79.6613 500.885 80.3613 500.885 81.164C500.885 81.9667 500.717 82.6667 500.381 83.264C500.055 83.852 499.597 84.3047 499.009 84.622C498.431 84.9393 497.773 85.098 497.035 85.098C496.298 85.098 495.635 84.9393 495.047 84.622C494.469 84.3047 494.011 83.852 493.675 83.264C493.339 82.6667 493.171 81.9667 493.171 81.164C493.171 80.3613 493.339 79.6613 493.675 79.064C494.011 78.4667 494.469 78.0093 495.047 77.692C495.635 77.3747 496.298 77.216 497.035 77.216ZM497.035 78.336C496.578 78.336 496.153 78.4387 495.761 78.644C495.379 78.8493 495.066 79.1667 494.823 79.596C494.59 80.016 494.473 80.5387 494.473 81.164C494.473 81.78 494.59 82.3027 494.823 82.732C495.066 83.152 495.379 83.4647 495.761 83.67C496.153 83.8753 496.578 83.978 497.035 83.978C497.493 83.978 497.913 83.8753 498.295 83.67C498.687 83.4647 499 83.152 499.233 82.732C499.476 82.3027 499.597 81.78 499.597 81.164C499.597 80.5387 499.476 80.016 499.233 79.596C499 79.1667 498.687 78.8493 498.295 78.644C497.913 78.4387 497.493 78.336 497.035 78.336ZM503.819 78.868C504.071 78.336 504.44 77.9253 504.925 77.636C505.411 77.3373 505.989 77.188 506.661 77.188V78.574H506.269C505.551 78.574 504.963 78.7607 504.505 79.134C504.048 79.498 503.819 80.1047 503.819 80.954V85H502.545V77.314H503.819V78.868ZM513.785 77.216C514.653 77.216 515.349 77.4447 515.871 77.902C516.403 78.35 516.725 78.9567 516.837 79.722H515.619C515.563 79.2647 515.372 78.8913 515.045 78.602C514.728 78.3033 514.299 78.154 513.757 78.154C513.3 78.154 512.941 78.266 512.679 78.49C512.427 78.7047 512.301 78.9987 512.301 79.372C512.301 79.652 512.385 79.8807 512.553 80.058C512.731 80.226 512.945 80.3567 513.197 80.45C513.459 80.534 513.813 80.6273 514.261 80.73C514.831 80.8607 515.288 80.996 515.633 81.136C515.988 81.2667 516.287 81.4813 516.529 81.78C516.781 82.0787 516.907 82.48 516.907 82.984C516.907 83.6093 516.669 84.118 516.193 84.51C515.727 84.902 515.101 85.098 514.317 85.098C513.403 85.098 512.656 84.8787 512.077 84.44C511.499 84.0013 511.158 83.39 511.055 82.606H512.287C512.334 83.0727 512.535 83.4507 512.889 83.74C513.253 84.0293 513.729 84.174 514.317 84.174C514.756 84.174 515.097 84.062 515.339 83.838C515.591 83.614 515.717 83.32 515.717 82.956C515.717 82.6573 515.629 82.4193 515.451 82.242C515.274 82.0647 515.055 81.9293 514.793 81.836C514.532 81.7427 514.173 81.6447 513.715 81.542C513.146 81.4113 512.689 81.2807 512.343 81.15C512.007 81.0193 511.718 80.814 511.475 80.534C511.242 80.2447 511.125 79.8573 511.125 79.372C511.125 78.728 511.363 78.21 511.839 77.818C512.315 77.4167 512.964 77.216 513.785 77.216ZM518.386 75.06C518.386 74.8267 518.465 74.64 518.624 74.5C518.783 74.3507 518.993 74.276 519.254 74.276C519.515 74.276 519.725 74.3507 519.884 74.5C520.043 74.64 520.122 74.8267 520.122 75.06C520.122 75.2933 520.043 75.4847 519.884 75.634C519.725 75.774 519.515 75.844 519.254 75.844C518.993 75.844 518.783 75.774 518.624 75.634C518.465 75.4847 518.386 75.2933 518.386 75.06ZM519.884 77.314V85H518.61V77.314H519.884ZM525.6 83.88V85H524.648C523.864 85 523.276 84.8133 522.884 84.44C522.501 84.0667 522.31 83.4413 522.31 82.564V78.42H521.162V77.314H522.31V75.396H523.598V77.314H525.586V78.42H523.598V82.592C523.598 83.0867 523.687 83.4273 523.864 83.614C524.051 83.7913 524.368 83.88 524.816 83.88H525.6ZM533.764 77.216C534.51 77.216 535.14 77.4027 535.654 77.776C536.176 78.1493 536.54 78.6487 536.746 79.274V77.314H538.02V85H536.746V83.04C536.54 83.6653 536.176 84.1647 535.654 84.538C535.14 84.9113 534.51 85.098 533.764 85.098C533.082 85.098 532.476 84.9393 531.944 84.622C531.412 84.3047 530.992 83.852 530.684 83.264C530.385 82.6667 530.236 81.9667 530.236 81.164C530.236 80.3613 530.385 79.6613 530.684 79.064C530.992 78.4667 531.412 78.0093 531.944 77.692C532.476 77.3747 533.082 77.216 533.764 77.216ZM534.128 78.35C533.344 78.35 532.714 78.602 532.238 79.106C531.771 79.6007 531.538 80.2867 531.538 81.164C531.538 82.0413 531.771 82.732 532.238 83.236C532.714 83.7307 533.344 83.978 534.128 83.978C534.632 83.978 535.08 83.8613 535.472 83.628C535.873 83.3947 536.186 83.068 536.41 82.648C536.634 82.2187 536.746 81.724 536.746 81.164C536.746 80.604 536.634 80.1093 536.41 79.68C536.186 79.2507 535.873 78.924 535.472 78.7C535.08 78.4667 534.632 78.35 534.128 78.35ZM549.497 77.188C550.393 77.188 551.112 77.4773 551.653 78.056C552.204 78.6253 552.479 79.4513 552.479 80.534V85H551.205V80.646C551.205 79.89 551.019 79.3113 550.645 78.91C550.281 78.5087 549.777 78.308 549.133 78.308C548.461 78.308 547.92 78.532 547.509 78.98C547.108 79.4187 546.907 80.0673 546.907 80.926V85H545.633V80.646C545.633 79.89 545.447 79.3113 545.073 78.91C544.7 78.5087 544.196 78.308 543.561 78.308C542.88 78.308 542.334 78.532 541.923 78.98C541.522 79.4187 541.321 80.0673 541.321 80.926V85H540.047V77.314H541.321V79.064C541.508 78.4573 541.839 77.9953 542.315 77.678C542.801 77.3513 543.356 77.188 543.981 77.188C544.635 77.188 545.199 77.356 545.675 77.692C546.161 78.0187 546.506 78.504 546.711 79.148C546.926 78.5227 547.285 78.042 547.789 77.706C548.293 77.3607 548.863 77.188 549.497 77.188ZM561.528 80.73C561.528 81.0007 561.509 81.234 561.472 81.43H555.326C555.354 82.3073 555.601 82.9653 556.068 83.404C556.544 83.8427 557.122 84.062 557.804 84.062C558.42 84.062 558.933 83.908 559.344 83.6C559.764 83.2827 560.02 82.8627 560.114 82.34H561.472C561.378 82.872 561.168 83.348 560.842 83.768C560.524 84.188 560.109 84.5147 559.596 84.748C559.082 84.9813 558.504 85.098 557.86 85.098C557.122 85.098 556.469 84.9393 555.9 84.622C555.33 84.3047 554.882 83.852 554.556 83.264C554.238 82.6667 554.08 81.9667 554.08 81.164C554.08 80.3613 554.238 79.6613 554.556 79.064C554.882 78.4667 555.33 78.0093 555.9 77.692C556.469 77.3747 557.122 77.216 557.86 77.216C558.606 77.216 559.255 77.3747 559.806 77.692C560.366 78.0093 560.79 78.434 561.08 78.966C561.378 79.498 561.528 80.086 561.528 80.73ZM560.24 80.814C560.268 80.2447 560.174 79.7687 559.96 79.386C559.745 79.0033 559.451 78.7187 559.078 78.532C558.704 78.3453 558.298 78.252 557.86 78.252C557.16 78.252 556.572 78.4713 556.096 78.91C555.62 79.3393 555.363 79.974 555.326 80.814H560.24ZM566.862 83.88V85H565.91C565.126 85 564.538 84.8133 564.146 84.44C563.763 84.0667 563.572 83.4413 563.572 82.564V78.42H562.424V77.314H563.572V75.396H564.86V77.314H566.848V78.42H564.86V82.592C564.86 83.0867 564.949 83.4273 565.126 83.614C565.313 83.7913 565.63 83.88 566.078 83.88H566.862Z" fill="#2A2B3C"/>
<rect x="325" y="60" width="40" height="40" rx="8" fill="#F7F8FA"/>
<path d="M348.53 82.13C348.437 82.0363 348.326 81.9619 348.205 81.9111C348.083 81.8603 347.952 81.8342 347.82 81.8342C347.688 81.8342 347.557 81.8603 347.435 81.9111C347.314 81.9619 347.203 82.0363 347.11 82.13C346.924 82.3174 346.819 82.5708 346.819 82.835C346.819 83.0992 346.924 83.3526 347.11 83.54L353.29 89.72C353.383 89.8137 353.494 89.8881 353.615 89.9389C353.737 89.9897 353.868 90.0158 354 90.0158C354.132 90.0158 354.263 89.9897 354.385 89.9389C354.506 89.8881 354.617 89.8137 354.71 89.72C354.896 89.5326 355.001 89.2792 355.001 89.015C355.001 88.7508 354.896 88.4974 354.71 88.31L348.53 82.13ZM349.76 79.64C350.555 79.6393 351.318 79.3228 351.88 78.76L354.71 75.93C354.896 75.7426 355.001 75.4892 355.001 75.225C355.001 74.9608 354.896 74.7074 354.71 74.52C354.617 74.4263 354.506 74.3519 354.385 74.3011C354.263 74.2503 354.132 74.2242 354 74.2242C353.868 74.2242 353.737 74.2503 353.615 74.3011C353.494 74.3519 353.383 74.4263 353.29 74.52L350.46 77.35C350.273 77.5362 350.019 77.6408 349.755 77.6408C349.491 77.6408 349.237 77.5362 349.05 77.35L352.59 73.81C352.776 73.6226 352.881 73.3692 352.881 73.105C352.881 72.8408 352.776 72.5874 352.59 72.4C352.497 72.3063 352.386 72.2319 352.265 72.1811C352.143 72.1303 352.012 72.1042 351.88 72.1042C351.748 72.1042 351.617 72.1303 351.495 72.1811C351.374 72.2319 351.263 72.3063 351.17 72.4L347.64 75.93C347.454 75.7426 347.349 75.4892 347.349 75.225C347.349 74.9608 347.454 74.7074 347.64 74.52L350.46 71.69C350.565 71.6003 350.65 71.49 350.71 71.366C350.77 71.2419 350.803 71.1068 350.809 70.969C350.814 70.8313 350.791 70.694 350.741 70.5657C350.69 70.4373 350.614 70.3208 350.517 70.2233C350.419 70.1259 350.303 70.0496 350.174 69.9994C350.046 69.9491 349.909 69.9259 349.771 69.9312C349.633 69.9365 349.498 69.9702 349.374 70.0303C349.25 70.0903 349.14 70.1753 349.05 70.28L346.22 73.11C345.658 73.6725 345.343 74.435 345.343 75.23C345.343 76.025 345.658 76.7875 346.22 77.35L345 78.59L343.44 77.05C343.883 76.251 344.05 75.3284 343.916 74.4247C343.783 73.5211 343.355 72.6865 342.7 72.05C341.26 70.61 337.53 69 335.77 70.79C334.01 72.58 335.6 76.27 337 77.72C337.782 78.5046 338.833 78.9623 339.94 79H340.08C340.756 78.9904 341.418 78.8042 342 78.46L343.57 80L335.29 88.28C335.197 88.3732 335.124 88.4838 335.074 88.6054C335.024 88.7269 334.999 88.8571 334.999 88.9885C335 89.1199 335.026 89.2499 335.077 89.3712C335.128 89.4924 335.202 89.6024 335.295 89.695C335.388 89.7876 335.499 89.8609 335.62 89.9107C335.742 89.9606 335.872 89.986 336.004 89.9855C336.135 89.9851 336.265 89.9587 336.386 89.908C336.507 89.8573 336.617 89.7832 336.71 89.69L345.71 80.69L347.63 78.77C347.91 79.048 348.243 79.268 348.608 79.4173C348.974 79.5666 349.365 79.6423 349.76 79.64ZM341.43 76.44C341.243 76.6262 341.019 76.772 340.773 76.8684C340.527 76.9647 340.264 77.0095 340 77C339.415 76.9748 338.863 76.7239 338.46 76.3C337.38 75.22 336.62 72.77 337.19 72.2C337.379 72.0572 337.613 71.9863 337.85 72C339.126 72.1017 340.334 72.6179 341.29 73.47C341.698 73.8477 341.942 74.3708 341.968 74.9263C341.994 75.4819 341.801 76.0255 341.43 76.44Z" fill="#7EA4B5"/>
</svg>
