<svg width="124" height="36" viewBox="0 0 124 36" fill="none" xmlns="http://www.w3.org/2000/svg">
<path d="M59.4922 14.5391L58.1562 15.1016C58.0521 14.763 57.9115 14.4531 57.7344 14.1719C57.5625 13.8906 57.3542 13.651 57.1094 13.4531C56.8698 13.25 56.5964 13.0938 56.2891 12.9844C55.9818 12.8698 55.6458 12.8125 55.2812 12.8125C54.8906 12.8125 54.5312 12.8776 54.2031 13.0078C53.8802 13.138 53.5885 13.3151 53.3281 13.5391C53.0729 13.7578 52.849 14.0156 52.6562 14.3125C52.4635 14.6094 52.3021 14.9271 52.1719 15.2656C52.0469 15.599 51.9505 15.9453 51.8828 16.3047C51.8203 16.6641 51.7891 17.0156 51.7891 17.3594C51.7891 17.9062 51.8516 18.4505 51.9766 18.9922C52.1068 19.5339 52.3099 20.0208 52.5859 20.4531C52.8672 20.8854 53.2292 21.237 53.6719 21.5078C54.1146 21.7734 54.651 21.9062 55.2812 21.9062C55.625 21.9062 55.8932 21.8307 56.0859 21.6797C56.2786 21.5234 56.375 21.2526 56.375 20.8672V17.4141H59.4766V23H58.5781L58.0312 22.1172C57.5312 22.4974 56.9792 22.7786 56.375 22.9609C55.776 23.138 55.1641 23.2266 54.5391 23.2266C53.987 23.2266 53.4557 23.1589 52.9453 23.0234C52.4401 22.888 51.9688 22.6953 51.5312 22.4453C51.0938 22.1953 50.6953 21.8932 50.3359 21.5391C49.9818 21.1849 49.6771 20.7917 49.4219 20.3594C49.1719 19.9271 48.9766 19.4583 48.8359 18.9531C48.7005 18.4427 48.6328 17.9115 48.6328 17.3594C48.6328 16.8073 48.7005 16.2786 48.8359 15.7734C48.9766 15.263 49.1719 14.7917 49.4219 14.3594C49.6771 13.9219 49.9818 13.526 50.3359 13.1719C50.6953 12.8177 51.0938 12.5156 51.5312 12.2656C51.9688 12.0156 52.4401 11.8229 52.9453 11.6875C53.4557 11.5521 53.987 11.4844 54.5391 11.4844C55.0703 11.4844 55.5885 11.5469 56.0938 11.6719C56.6042 11.7969 57.0781 11.987 57.5156 12.2422C57.9531 12.4922 58.3411 12.8099 58.6797 13.1953C59.0234 13.5755 59.2943 14.0234 59.4922 14.5391ZM70.9297 18.4688C70.9297 18.9375 70.8672 19.3776 70.7422 19.7891C70.6172 20.2005 70.4427 20.5807 70.2188 20.9297C70 21.2786 69.7344 21.5938 69.4219 21.875C69.1094 22.151 68.7656 22.3854 68.3906 22.5781C68.0208 22.7708 67.6224 22.9193 67.1953 23.0234C66.7734 23.1276 66.3385 23.1797 65.8906 23.1797C65.4427 23.1797 65.0078 23.1276 64.5859 23.0234C64.1641 22.9193 63.7656 22.7708 63.3906 22.5781C63.0208 22.3854 62.6797 22.151 62.3672 21.875C62.0547 21.5938 61.7865 21.2786 61.5625 20.9297C61.3438 20.5807 61.1719 20.2005 61.0469 19.7891C60.9219 19.3724 60.8594 18.9323 60.8594 18.4688C60.8594 18.0052 60.9219 17.5677 61.0469 17.1562C61.1719 16.7396 61.3438 16.3568 61.5625 16.0078C61.7865 15.6589 62.0547 15.3464 62.3672 15.0703C62.6797 14.7891 63.0208 14.5521 63.3906 14.3594C63.7656 14.1667 64.1641 14.0182 64.5859 13.9141C65.0078 13.8099 65.4427 13.7578 65.8906 13.7578C66.3385 13.7578 66.7734 13.8099 67.1953 13.9141C67.6224 14.0182 68.0208 14.1667 68.3906 14.3594C68.7656 14.5521 69.1094 14.7891 69.4219 15.0703C69.7344 15.3464 70 15.6589 70.2188 16.0078C70.4427 16.3568 70.6172 16.7396 70.7422 17.1562C70.8672 17.5677 70.9297 18.0052 70.9297 18.4688ZM68.2422 18.4688C68.2422 18.2188 68.2266 17.9557 68.1953 17.6797C68.1693 17.3984 68.1224 17.125 68.0547 16.8594C67.987 16.5885 67.8932 16.3307 67.7734 16.0859C67.6589 15.8359 67.5156 15.6198 67.3438 15.4375C67.1719 15.25 66.9661 15.1016 66.7266 14.9922C66.487 14.8776 66.2083 14.8203 65.8906 14.8203C65.5885 14.8203 65.3203 14.8776 65.0859 14.9922C64.8516 15.1068 64.6458 15.2604 64.4688 15.4531C64.2969 15.6406 64.151 15.8594 64.0312 16.1094C63.9167 16.3594 63.8229 16.6198 63.75 16.8906C63.6771 17.1562 63.625 17.4271 63.5938 17.7031C63.5625 17.974 63.5469 18.2292 63.5469 18.4688C63.5469 18.7083 63.5625 18.9661 63.5938 19.2422C63.625 19.513 63.6771 19.7839 63.75 20.0547C63.8229 20.3255 63.9167 20.5859 64.0312 20.8359C64.151 21.0807 64.2969 21.2995 64.4688 21.4922C64.6458 21.6797 64.8516 21.8307 65.0859 21.9453C65.3203 22.0599 65.5885 22.1172 65.8906 22.1172C66.2031 22.1172 66.4792 22.0625 66.7188 21.9531C66.9583 21.8385 67.1641 21.6875 67.3359 21.5C67.513 21.3125 67.6589 21.0964 67.7734 20.8516C67.888 20.6068 67.9792 20.349 68.0469 20.0781C68.1198 19.8073 68.1693 19.5339 68.1953 19.2578C68.2266 18.9818 68.2422 18.7188 68.2422 18.4688ZM82.9922 14.5391L81.6562 15.1016C81.5521 14.763 81.4115 14.4531 81.2344 14.1719C81.0625 13.8906 80.8542 13.651 80.6094 13.4531C80.3698 13.25 80.0964 13.0938 79.7891 12.9844C79.4818 12.8698 79.1458 12.8125 78.7812 12.8125C78.3906 12.8125 78.0312 12.8776 77.7031 13.0078C77.3802 13.1328 77.0885 13.3073 76.8281 13.5312C76.5729 13.7552 76.349 14.0156 76.1562 14.3125C75.9635 14.6094 75.8021 14.9271 75.6719 15.2656C75.5417 15.599 75.4453 15.9453 75.3828 16.3047C75.3203 16.6641 75.2891 17.0156 75.2891 17.3594C75.2891 17.9062 75.3516 18.4505 75.4766 18.9922C75.6068 19.5339 75.8099 20.0208 76.0859 20.4531C76.3672 20.8854 76.7292 21.237 77.1719 21.5078C77.6146 21.7734 78.151 21.9062 78.7812 21.9062C79.1146 21.9062 79.4297 21.8516 79.7266 21.7422C80.0234 21.6276 80.2917 21.474 80.5312 21.2812C80.776 21.0833 80.9896 20.8516 81.1719 20.5859C81.3542 20.3203 81.5 20.0339 81.6094 19.7266L82.9609 20.2656C82.763 20.7604 82.4922 21.1953 82.1484 21.5703C81.8047 21.9401 81.4115 22.2474 80.9688 22.4922C80.5312 22.737 80.0599 22.9193 79.5547 23.0391C79.0547 23.1641 78.5495 23.2266 78.0391 23.2266C77.487 23.2266 76.9557 23.1589 76.4453 23.0234C75.9401 22.888 75.4688 22.6953 75.0312 22.4453C74.5938 22.1953 74.1953 21.8932 73.8359 21.5391C73.4818 21.1849 73.1771 20.7917 72.9219 20.3594C72.6719 19.9271 72.4766 19.4583 72.3359 18.9531C72.2005 18.4427 72.1328 17.9115 72.1328 17.3594C72.1328 16.8073 72.2005 16.2786 72.3359 15.7734C72.4766 15.263 72.6719 14.7917 72.9219 14.3594C73.1771 13.9219 73.4818 13.526 73.8359 13.1719C74.1953 12.8177 74.5938 12.5156 75.0312 12.2656C75.4688 12.0156 75.9401 11.8229 76.4453 11.6875C76.9557 11.5521 77.487 11.4844 78.0391 11.4844C78.5703 11.4844 79.0885 11.5469 79.5938 11.6719C80.1042 11.7969 80.5781 11.987 81.0156 12.2422C81.4531 12.4922 81.8411 12.8099 82.1797 13.1953C82.5234 13.5755 82.7943 14.0234 82.9922 14.5391ZM86.8047 18.7188C87.1276 18.7917 87.4505 18.849 87.7734 18.8906C88.0964 18.9323 88.4219 18.9531 88.75 18.9531C89.0938 18.9531 89.4115 18.9219 89.7031 18.8594C90 18.7917 90.2552 18.6823 90.4688 18.5312C90.6875 18.375 90.8594 18.1693 90.9844 17.9141C91.1094 17.6589 91.1719 17.3411 91.1719 16.9609C91.1719 16.6536 91.1302 16.3724 91.0469 16.1172C90.9635 15.862 90.8385 15.6432 90.6719 15.4609C90.5104 15.2786 90.3099 15.138 90.0703 15.0391C89.8307 14.9349 89.5521 14.8828 89.2344 14.8828C88.9375 14.8828 88.6693 14.9375 88.4297 15.0469C88.1953 15.1562 87.987 15.3047 87.8047 15.4922C87.6276 15.6745 87.474 15.888 87.3438 16.1328C87.2188 16.3776 87.1146 16.6328 87.0312 16.8984C86.9479 17.1641 86.888 17.4323 86.8516 17.7031C86.8151 17.974 86.7969 18.2292 86.7969 18.4688C86.7969 18.5104 86.7969 18.5521 86.7969 18.5938C86.7969 18.6354 86.7995 18.6771 86.8047 18.7188ZM93.3125 16.9375C93.3125 17.3073 93.2526 17.638 93.1328 17.9297C93.013 18.2161 92.849 18.4688 92.6406 18.6875C92.4375 18.9062 92.2005 19.0911 91.9297 19.2422C91.6589 19.3932 91.3698 19.5182 91.0625 19.6172C90.7552 19.7109 90.4375 19.7786 90.1094 19.8203C89.7865 19.862 89.4714 19.8828 89.1641 19.8828C88.7734 19.8828 88.388 19.8568 88.0078 19.8047C87.6276 19.7474 87.2526 19.6589 86.8828 19.5391C86.9401 19.8828 87.0312 20.2109 87.1562 20.5234C87.2812 20.8307 87.4479 21.1016 87.6562 21.3359C87.8646 21.5651 88.1198 21.7474 88.4219 21.8828C88.7292 22.0182 89.0911 22.0859 89.5078 22.0859C89.7839 22.0859 90.0469 22.0443 90.2969 21.9609C90.5469 21.8776 90.776 21.7604 90.9844 21.6094C91.1927 21.4583 91.375 21.2786 91.5312 21.0703C91.6927 20.862 91.8229 20.6302 91.9219 20.375L93.0625 20.7969C92.8906 21.2083 92.6536 21.5651 92.3516 21.8672C92.0547 22.1641 91.7161 22.4115 91.3359 22.6094C90.9609 22.8021 90.5599 22.9453 90.1328 23.0391C89.7109 23.1328 89.2917 23.1797 88.875 23.1797C88.1875 23.1797 87.5521 23.0651 86.9688 22.8359C86.3854 22.6016 85.8828 22.276 85.4609 21.8594C85.0391 21.4427 84.7083 20.9453 84.4688 20.3672C84.2292 19.7891 84.1094 19.1562 84.1094 18.4688C84.1094 17.7812 84.2292 17.1484 84.4688 16.5703C84.7083 15.9922 85.0391 15.4948 85.4609 15.0781C85.8828 14.6615 86.3854 14.3385 86.9688 14.1094C87.5521 13.875 88.1875 13.7578 88.875 13.7578C89.2083 13.7578 89.5495 13.7812 89.8984 13.8281C90.2474 13.875 90.5859 13.9505 90.9141 14.0547C91.2422 14.1536 91.5521 14.2839 91.8438 14.4453C92.1354 14.6068 92.388 14.8073 92.6016 15.0469C92.8203 15.2812 92.9922 15.5547 93.1172 15.8672C93.2474 16.1797 93.3125 16.5365 93.3125 16.9375ZM97.6016 23H94.9609V9.82031H95.9766L97.6016 12.5625V23ZM102.445 23H99.8047V9.82031H100.82L102.445 12.5625V23ZM113.734 23H111.094V21.9219C110.781 22.349 110.404 22.6667 109.961 22.875C109.523 23.0781 109.042 23.1797 108.516 23.1797C107.828 23.1797 107.214 23.0573 106.672 22.8125C106.13 22.5677 105.672 22.2344 105.297 21.8125C104.922 21.3854 104.635 20.8854 104.438 20.3125C104.24 19.7396 104.141 19.125 104.141 18.4688C104.141 17.8125 104.24 17.1979 104.438 16.625C104.635 16.0521 104.922 15.5547 105.297 15.1328C105.672 14.7057 106.13 14.3698 106.672 14.125C107.214 13.8802 107.828 13.7578 108.516 13.7578C108.865 13.7578 109.195 13.8099 109.508 13.9141C109.826 14.0182 110.115 14.1667 110.375 14.3594C110.641 14.5469 110.872 14.776 111.07 15.0469C111.273 15.3125 111.432 15.6094 111.547 15.9375L112.719 13.9766H113.734V23ZM111.078 18.4688C111.078 18.2344 111.065 17.987 111.039 17.7266C111.018 17.4661 110.979 17.2083 110.922 16.9531C110.865 16.6979 110.784 16.4557 110.68 16.2266C110.581 15.9922 110.451 15.7865 110.289 15.6094C110.133 15.4271 109.943 15.2839 109.719 15.1797C109.495 15.0755 109.234 15.0234 108.938 15.0234C108.641 15.0234 108.383 15.0781 108.164 15.1875C107.945 15.2917 107.758 15.4349 107.602 15.6172C107.445 15.7943 107.315 16 107.211 16.2344C107.112 16.4688 107.034 16.7135 106.977 16.9688C106.919 17.224 106.878 17.4818 106.852 17.7422C106.831 17.9974 106.82 18.2396 106.82 18.4688C106.82 18.6979 106.831 18.9427 106.852 19.2031C106.878 19.4635 106.919 19.7214 106.977 19.9766C107.034 20.2318 107.112 20.4766 107.211 20.7109C107.315 20.9453 107.445 21.1536 107.602 21.3359C107.758 21.513 107.945 21.6562 108.164 21.7656C108.383 21.8698 108.641 21.9219 108.938 21.9219C109.208 21.9219 109.448 21.8672 109.656 21.7578C109.87 21.6432 110.055 21.4922 110.211 21.3047C110.372 21.1172 110.508 20.9036 110.617 20.6641C110.727 20.4245 110.815 20.1771 110.883 19.9219C110.951 19.6667 111 19.4141 111.031 19.1641C111.062 18.9089 111.078 18.6771 111.078 18.4688ZM123.617 14.7734L122.133 17.2344C122.07 17.026 121.99 16.7917 121.891 16.5312C121.792 16.2708 121.669 16.0286 121.523 15.8047C121.378 15.5755 121.203 15.3854 121 15.2344C120.797 15.0781 120.562 15 120.297 15C120.052 15 119.839 15.0625 119.656 15.1875C119.479 15.3125 119.328 15.4766 119.203 15.6797C119.078 15.8776 118.974 16.1042 118.891 16.3594C118.812 16.6094 118.75 16.8646 118.703 17.125C118.661 17.3802 118.633 17.6276 118.617 17.8672C118.602 18.1016 118.594 18.3047 118.594 18.4766V23H115.945V13.9766H116.961L118.031 16.0781C118.177 15.7396 118.344 15.4297 118.531 15.1484C118.719 14.862 118.935 14.6172 119.18 14.4141C119.424 14.2057 119.701 14.0443 120.008 13.9297C120.32 13.8151 120.672 13.7578 121.062 13.7578C121.266 13.7578 121.492 13.776 121.742 13.8125C121.992 13.8438 122.237 13.901 122.477 13.9844C122.716 14.0625 122.938 14.1667 123.141 14.2969C123.344 14.4271 123.503 14.5859 123.617 14.7734Z" fill="#ED8A68"/>
<path fill-rule="evenodd" clip-rule="evenodd" d="M20.7319 33.1797C19.4886 31.5465 19.5282 29.2489 20.8508 27.6581C19.2599 28.9806 16.9624 29.0203 15.3291 27.777C16.5724 29.4102 16.5328 31.7078 15.2102 33.2986C16.8011 31.9761 19.0987 31.9364 20.7319 33.1797ZM26.9558 26.9558C25.3226 25.7125 23.025 25.7522 21.4341 27.0747C22.7567 25.4839 22.7963 23.1863 21.553 21.5531C23.1863 22.7963 25.4839 22.7567 27.0747 21.4341C25.7522 23.025 25.7125 25.3226 26.9558 26.9558ZM33.1797 20.7319C31.9364 19.0987 31.9761 16.8011 33.2986 15.2102C31.7078 16.5328 29.4102 16.5724 27.777 15.3291C29.0202 16.9624 28.9806 19.2599 27.6581 20.8508C29.2489 19.5282 31.5465 19.4886 33.1797 20.7319ZM14.4775 26.9253C13.2342 25.2921 13.2738 22.9945 14.5964 21.4036C13.0055 22.7262 10.7079 22.7658 9.07471 21.5225C10.318 23.1558 10.2784 25.4533 8.95581 27.0442C10.5467 25.7216 12.8442 25.682 14.4775 26.9253ZM20.7014 20.7014C19.0682 19.4581 16.7706 19.4977 15.1797 20.8203C16.5023 19.2294 16.5419 16.9318 15.2986 15.2986C16.9318 16.5419 19.2294 16.5023 20.8203 15.1797C19.4977 16.7706 19.4581 19.0682 20.7014 20.7014ZM26.9253 14.4775C25.682 12.8443 25.7216 10.5467 27.0442 8.95581C25.4533 10.2784 23.1557 10.318 21.5225 9.07472C22.7658 10.7079 22.7262 13.0055 21.4036 14.5964C22.9945 13.2738 25.2921 13.2342 26.9253 14.4775ZM8.22304 20.6709C6.97975 19.0376 7.01938 16.7401 8.34194 15.1492C6.75108 16.4718 4.4535 16.5114 2.82028 15.2681C4.06357 16.9013 4.02394 19.1989 2.70138 20.7898C4.29224 19.4672 6.58982 19.4276 8.22304 20.6709ZM14.4469 14.4469C12.8137 13.2037 10.5161 13.2433 8.92528 14.5659C10.2478 12.975 10.2875 10.6774 9.04419 9.04419C10.6774 10.2875 12.975 10.2478 14.5659 8.92529C13.2433 10.5161 13.2037 12.8137 14.4469 14.4469ZM20.6709 8.22304C19.4276 6.58982 19.4672 4.29224 20.7898 2.70138C19.1989 4.02394 16.9013 4.06357 15.2681 2.82028C16.5114 4.4535 16.4718 6.75108 15.1492 8.34194C16.7401 7.01938 19.0376 6.97975 20.6709 8.22304Z" fill="#ED8A68"/>
</svg>
